<?xml version="1.0" encoding="UTF-8" standalone="no"?>
<svg
   xmlns:dc="http://purl.org/dc/elements/1.1/"
   xmlns:cc="http://creativecommons.org/ns#"
   xmlns:rdf="http://www.w3.org/1999/02/22-rdf-syntax-ns#"
   xmlns:svg="http://www.w3.org/2000/svg"
   xmlns="http://www.w3.org/2000/svg"
   xmlns:sodipodi="http://sodipodi.sourceforge.net/DTD/sodipodi-0.dtd"
   xmlns:inkscape="http://www.inkscape.org/namespaces/inkscape"
   width="966"
   height="143"
   version="1.1"
   id="svg220"
   sodipodi:docname="graph-legend.svg"
   inkscape:version="0.92.3 (2405546, 2018-03-11)">
  <metadata
     id="metadata224">
    <rdf:RDF>
      <cc:Work
         rdf:about="">
        <dc:format>image/svg+xml</dc:format>
        <dc:type
           rdf:resource="http://purl.org/dc/dcmitype/StillImage" />
      </cc:Work>
    </rdf:RDF>
  </metadata>
  <sodipodi:namedview
     pagecolor="#ffffff"
     bordercolor="#666666"
     borderopacity="1"
     objecttolerance="10"
     gridtolerance="10"
     guidetolerance="10"
     inkscape:pageopacity="0"
     inkscape:pageshadow="2"
     inkscape:window-width="1664"
     inkscape:window-height="955"
     id="namedview222"
     showgrid="false"
     showguides="true"
     inkscape:guide-bbox="true"
     inkscape:zoom="1.5792837"
     inkscape:cx="482.43658"
     inkscape:cy="71"
     inkscape:window-x="0"
     inkscape:window-y="27"
     inkscape:window-maximized="1"
     inkscape:current-layer="svg220"
     inkscape:snap-global="false" />
  <!-- Generator: Sketch 51.1 (57501) - http://www.bohemiancoding.com/sketch -->
  <title
     id="title10">Group 47</title>
  <desc
     id="desc12">Created with Sketch.</desc>
  <defs
     id="defs14">
    <marker
       inkscape:stockid="TriangleOutL"
       orient="auto"
       refY="0"
       refX="0"
       id="TriangleOutL"
       style="overflow:visible"
       inkscape:isstock="true">
      <path
         id="path2196"
         d="M 5.77,0 -2.88,5 V -5 Z"
         style="fill:#000000;fill-opacity:1;fill-rule:evenodd;stroke:#000000;stroke-width:1.00000003pt;stroke-opacity:1"
         transform="scale(0.8)"
         inkscape:connector-curvature="0" />
    </marker>
    <marker
       inkscape:stockid="Arrow1Sstart"
       orient="auto"
       refY="0"
       refX="0"
       id="Arrow1Sstart"
       style="overflow:visible"
       inkscape:isstock="true">
      <path
         id="path1281"
         d="M 0,0 5,-5 -12.5,0 5,5 Z"
         style="fill:#000000;fill-opacity:1;fill-rule:evenodd;stroke:#000000;stroke-width:1.00000003pt;stroke-opacity:1"
         transform="matrix(0.2,0,0,0.2,1.2,0)"
         inkscape:connector-curvature="0" />
    </marker>
    <marker
       inkscape:stockid="Arrow1Lend"
       orient="auto"
       refY="0"
       refX="0"
       id="Arrow1Lend"
       style="overflow:visible"
       inkscape:isstock="true">
      <path
         id="path1272"
         d="M 0,0 5,-5 -12.5,0 5,5 Z"
         style="fill:#000000;fill-opacity:1;fill-rule:evenodd;stroke:#000000;stroke-width:1.00000003pt;stroke-opacity:1"
         transform="matrix(-0.8,0,0,-0.8,-10,0)"
         inkscape:connector-curvature="0" />
    </marker>
  </defs>
  <path
     d="M 793,2 V 142"
     id="Line-4"
     inkscape:connector-curvature="0"
     style="fill:none;fill-rule:evenodd;stroke:#d1d1d1;stroke-width:1;stroke-linecap:square" />
  <path
     d="M 449,2 V 142"
     id="path17"
     inkscape:connector-curvature="0"
     style="fill:none;fill-rule:evenodd;stroke:#d1d1d1;stroke-width:1;stroke-linecap:square" />
  <path
     d="M 216.19599,2 V 142"
     id="path19"
     inkscape:connector-curvature="0"
     style="fill:none;fill-rule:evenodd;stroke:#d1d1d1;stroke-width:1;stroke-linecap:square" />
  <g
     style="fill:none;fill-rule:evenodd;stroke:none;stroke-width:1"
     id="Group-8"
     transform="translate(231,39)">
    <text
       transform="translate(231 39)"
       class="B C D"
       id="text20">
      <tspan
         id="tspan21"
         y="16"
         x="32">Healthy</tspan>
    </text>
    <circle
       style="fill:#ffffff;stroke:#8b8d8f"
       r="12.5"
       cy="12.5"
       cx="12.5"
       id="Oval-7" />
  </g>
  <g
     style="fill:none;fill-rule:evenodd;stroke:none;stroke-width:1"
     transform="translate(321,39)"
     id="Group-9">
    <text
       style="font-weight:normal;font-size:12px;font-family:OpenSans, 'Open Sans';fill:#030303"
       line-spacing="18"
       font-weight="normal"
       font-size="12"
       id="Warning">
      <tspan
         id="tspan26"
         y="17"
         x="32">Warning</tspan>
    </text>
    <circle
       style="fill:#ffffff;stroke:#ec7a08"
       r="12.5"
       cy="12.5"
       cx="12.5"
       id="circle29" />
  </g>
  <g
     style="fill:none;fill-rule:evenodd;stroke:none;stroke-width:1"
     transform="translate(231,100)"
     id="Group-10">
    <text
       style="font-weight:normal;font-size:12px;font-family:OpenSans, 'Open Sans';fill:#030303"
       line-spacing="18"
       font-weight="normal"
       font-size="12"
       id="Error">
      <tspan
         id="tspan32"
         y="18"
         x="32">Error</tspan>
    </text>
    <circle
       style="fill:#ffffff;stroke:#cc0000"
       r="12.5"
       cy="12.5"
       cx="12.5"
       id="circle35" />
  </g>
  <text
     id="Unused-(no-traffic-y"
     font-size="12"
     font-weight="normal"
     line-spacing="18"
     style="font-weight:normal;font-size:12px;font-family:OpenSans, 'Open Sans';fill:#030303;fill-rule:evenodd;stroke:none;stroke-width:1"
     x="321"
     y="94">
    <tspan
       x="354"
       y="107"
       id="tspan38">Unused</tspan>
    <tspan
       x="354"
       y="125"
       id="tspan40">(no traffic yet)</tspan>
  </text>
  <path
     d="m 333.5,125 c 6.90356,0 12.5,-5.59644 12.5,-12.5 0,-6.90356 -5.59644,-12.5 -12.5,-12.5 -6.90356,0 -12.5,5.59644 -12.5,12.5 0,6.90356 5.59644,12.5 12.5,12.5 z"
     id="path43"
     inkscape:connector-curvature="0"
     style="fill:#ffffff;fill-rule:evenodd;stroke:#8b8d8f;stroke-width:1;stroke-dasharray:6, 5" />
  <text
     style="font-weight:normal;font-size:12px;font-family:OpenSans, 'Open Sans';fill:#030303;fill-rule:evenodd;stroke:none;stroke-width:1"
     line-spacing="18"
     font-weight="normal"
     font-size="12"
     id="text447"
     x="467.0083"
     y="27.601658">
    <tspan
       id="tspan443"
       y="40.601658"
       x="500.0083">External</tspan>
    <tspan
       id="tspan445"
       y="58.601662"
       x="500.0083">Namespace</tspan>
  </text>
  <text
     id="Node-Colors"
     font-size="15"
     font-weight="500"
     line-spacing="10"
     style="font-weight:500;font-size:15px;font-family:OpenSans-Semibold, 'Open Sans';fill:#030303;fill-rule:evenodd;stroke:none;stroke-width:1"
     x="-93"
     y="2">
    <tspan
       x="231"
       y="18"
       id="tspan47">Node Colors</tspan>
  </text>
  <text
     id="Edges"
     font-size="15"
     font-weight="500"
     line-spacing="10"
     style="font-weight:500;font-size:15px;font-family:OpenSans-Semibold, 'Open Sans';fill:#030303;fill-rule:evenodd;stroke:none;stroke-width:1"
     x="51"
     y="2">
    <tspan
       x="618"
       y="18"
       id="tspan51">Edges</tspan>
  </text>
  <text
     y="32.281326"
     x="601.72272"
     style="font-weight:normal;font-size:11.55796528px;font-family:OpenSans, 'Open Sans';fill:#030303;fill-rule:evenodd;stroke:none;stroke-width:0.96316379"
     line-spacing="18"
     font-weight="normal"
     font-size="12"
     id="&gt;-20%-Error"
     transform="scale(1.0383692,0.96304859)">
    <tspan
       id="tspan58"
       y="44.802456"
       x="660.47565"
       style="stroke-width:0.96316379">20% Error</tspan>
  </text>
  <text
     y="32.281326"
     x="601.80737"
     style="font-weight:normal;font-size:11.55796528px;font-family:OpenSans, 'Open Sans';fill:#030303;fill-rule:evenodd;stroke:none;stroke-width:0.96316379"
     line-spacing="18"
     font-weight="normal"
     font-size="12"
     id="0.1---20%-Error"
     transform="scale(1.0383692,0.96304859)">
    <tspan
       id="tspan61"
       y="64.065735"
       x="660.5603"
       style="stroke-width:0.96316379">0.1 - 20% Error</tspan>
  </text>
  <text
     y="32.281326"
     x="601.80737"
     style="font-weight:normal;font-size:11.55796528px;font-family:OpenSans, 'Open Sans';fill:#030303;fill-rule:evenodd;stroke:none;stroke-width:0.96316379"
     line-spacing="18"
     font-weight="normal"
     font-size="12"
     id="&lt;-0.1%-Error"
     transform="scale(1.0383692,0.96304859)">
    <tspan
       id="tspan64"
       y="83.32901"
       x="660.5603"
       style="stroke-width:0.96316379">0.1% Error</tspan>
  </text>
  <text
     y="32.281326"
     x="601.43488"
     style="font-weight:normal;font-size:11.55796528px;font-family:OpenSans, 'Open Sans';fill:#030303;fill-rule:evenodd;stroke:none;stroke-width:0.96316379"
     line-spacing="18"
     font-weight="normal"
     font-size="12"
     id="Idle"
     transform="scale(1.0383692,0.96304859)">
    <tspan
       id="tspan67"
       y="121.85556"
       x="660.18781"
       style="stroke-width:0.96316379">Idle</tspan>
  </text>
  <text
     y="32.281326"
     x="602.60309"
     style="font-weight:normal;font-size:11.55796528px;font-family:OpenSans, 'Open Sans';fill:#030303;fill-rule:evenodd;stroke:none;stroke-width:0.96316379"
     line-spacing="18"
     font-weight="normal"
     font-size="12"
     id="TCP-Connection"
     transform="scale(1.0383692,0.96304859)">
    <tspan
       id="tspan70"
       y="102.59229"
       x="661.35602"
       style="stroke-width:0.96316379">TCP Connection</tspan>
  </text>
  <path
     id="Line"
     d="M 671.22008,96.224562 657.2184,89.731548 v 12.986032 z m -44.00527,0.927574 h 31.00371 1.00012 v -1.855147 h -1.00012 -31.00371 -1.00012 v 1.855147 z"
     inkscape:connector-curvature="0"
     style="fill:#004368;fill-rule:nonzero;stroke:none;stroke-width:0.96316379" />
  <path
     d="M 651.99386,90.453191 V 101.58407"
     id="Line-2"
     inkscape:connector-curvature="0"
     style="fill:none;fill-rule:evenodd;stroke:#004368;stroke-width:2.88949132;stroke-linecap:square" />
  <text
     id="Traffic-Animations"
     font-size="15"
     font-weight="500"
     line-spacing="10"
     style="font-weight:500;font-size:15px;font-family:OpenSans-Semibold, 'Open Sans';fill:#030303;fill-rule:evenodd;stroke:none;stroke-width:1"
     x="51"
     y="2">
    <tspan
       x="807"
       y="18"
       id="tspan79">Traffic Animations</tspan>
  </text>
  <text
     style="font-weight:normal;font-size:12px;font-family:OpenSans, 'Open Sans';fill:#030303;fill-rule:evenodd;stroke:none;stroke-width:1"
     line-spacing="18"
     font-weight="normal"
     font-size="12"
     id="Normal-Request"
     x="806.67053"
     y="23.433834">
    <tspan
       id="tspan82"
       y="36.433834"
       x="866.67053">Normal Request</tspan>
  </text>
  <text
     style="font-weight:normal;font-size:12px;font-family:OpenSans, 'Open Sans';fill:#030303;fill-rule:evenodd;stroke:none;stroke-width:1"
     line-spacing="18"
     font-weight="normal"
     font-size="12"
     id="Failed-Request"
     x="806.67053"
     y="23.433834">
    <tspan
       id="tspan85"
       y="56.433834"
       x="866.67053">Failed Request</tspan>
  </text>
  <path
     style="fill:none;fill-rule:evenodd;stroke:#d1d1d1;stroke-width:2;stroke-linecap:square"
     inkscape:connector-curvature="0"
     id="path88"
     d="m 806.89502,32.267167 h 43.77551" />
  <path
     style="fill:none;fill-rule:evenodd;stroke:#d1d1d1;stroke-width:2;stroke-linecap:square"
     inkscape:connector-curvature="0"
     id="path90"
     d="m 806.89502,52.267167 h 43.77551" />
  <circle
     style="fill:#393f44;fill-rule:evenodd;stroke:none;stroke-width:1"
     r="5"
     cy="32.433834"
     cx="829.67053"
     id="Oval-3" />
  <polygon
     style="fill:#cc0000;fill-rule:evenodd;stroke:none;stroke-width:1"
     points="23,23 29,29 23,35 17,29 "
     id="Polygon"
     transform="translate(806.67053,23.433834)" />
  <text
     y="39.313969"
     x="11.163209"
     id="App/Workload"
     font-size="12"
     font-weight="normal"
     line-spacing="18"
     style="font-weight:normal;font-size:12px;font-family:OpenSans, 'Open Sans';fill:#030303;fill-rule:evenodd;stroke:none;stroke-width:1">
    <tspan
       x="42.163208"
       y="54.313969"
       id="tspan95">Workload</tspan>
  </text>
  <circle
     id="Oval-5"
     cx="23.66321"
     cy="51.813969"
     r="12.5"
     style="fill:#ffffff;fill-rule:evenodd;stroke:#8b8d8f;stroke-width:1" />
  <circle
     style="fill:#ffffff;fill-rule:evenodd;stroke:#8b8d8f;stroke-width:1"
     r="12.5"
     cy="45.813969"
     cx="477.87851"
     id="circle2046" />
  <text
     x="131.06461"
     id="App/Workload-(Extern"
     font-size="12"
     font-weight="normal"
     line-spacing="18"
     style="font-weight:normal;font-size:12px;font-family:OpenSans, 'Open Sans';fill:#030303;fill-rule:evenodd;stroke:none;stroke-width:1"
     y="39.966312">
    <tspan
       x="162.06462"
       y="52.966312"
       id="tspan100">App</tspan>
  </text>
  <text
     y="94.313972"
     x="128.06461"
     id="Service"
     font-size="12"
     font-weight="normal"
     line-spacing="18"
     style="font-weight:normal;font-size:12px;font-family:OpenSans, 'Open Sans';fill:#030303;fill-rule:evenodd;stroke:none;stroke-width:1">
    <tspan
       x="162.06462"
       y="114.31397"
       id="tspan108">Service</tspan>
  </text>
  <g
     style="fill:none;fill-rule:evenodd;stroke:none;stroke-width:1"
     transform="translate(9.1632089,100.31397)"
     id="Group-7">
    <text
       style="font-weight:normal;font-size:12px;font-family:OpenSans, 'Open Sans';fill:#030303"
       line-spacing="18"
       font-weight="normal"
       font-size="12"
       id="Traffic-Source">
      <tspan
         id="tspan114"
         y="15"
         x="30">Traffic Source</tspan>
    </text>
    <polygon
       style="fill:#ffffff;stroke:#8b8d8f"
       points="0,12.5 12.5,0 25,12.5 12.5,25 "
       id="polygon117" />
  </g>
  <text
     id="Node-Shapes"
     font-size="15"
     font-weight="500"
     line-spacing="10"
     style="font-weight:500;font-size:15px;font-family:OpenSans-Semibold, 'Open Sans';fill:#030303;fill-rule:evenodd;stroke:none;stroke-width:1"
     x="1"
     y="2">
    <tspan
       x="1"
       y="18"
       id="tspan121">Node Shapes</tspan>
  </text>
  <path
     transform="matrix(0.88669661,0,0,0.91033252,8.761059,7.274937)"
     d="m 163.62782,61.192884 -24.53759,0 0,-24.537593 24.53759,0 z"
     inkscape:randomized="0"
     inkscape:rounded="0"
     inkscape:flatsided="true"
     sodipodi:arg2="1.5707963"
     sodipodi:arg1="0.78539816"
     sodipodi:r2="12.268796"
     sodipodi:r1="17.350698"
     sodipodi:cy="48.924088"
     sodipodi:cx="151.35902"
     sodipodi:sides="4"
     id="path1261"
     style="fill:none;fill-opacity:1;fill-rule:evenodd;stroke:#8b8d8f;stroke-width:1.21389782;stroke-opacity:1"
     sodipodi:type="star" />
  <path
     sodipodi:type="star"
     id="path132"
     sodipodi:sides="3"
     sodipodi:cx="142.97058"
     sodipodi:cy="112.10398"
     sodipodi:r1="13.398211"
     sodipodi:r2="6.6991057"
     sodipodi:arg1="-1.5707963"
     sodipodi:arg2="-0.52359878"
     inkscape:flatsided="true"
     inkscape:rounded="0"
     inkscape:randomized="0"
     d="m 142.97058,98.70577 11.60319,20.09732 -23.20638,0 z"
     inkscape:transform-center-y="-3.3495544"
     style="fill:none;fill-opacity:1;stroke:#8b8d8f;stroke-width:0.88739789;stroke-opacity:1"
     inkscape:transform-center-x="6.8550593e-06" />
  <text
     y="2"
     x="135.43494"
     style="font-weight:500;font-size:15px;font-family:OpenSans-Semibold, 'Open Sans';fill:#030303;fill-rule:evenodd;stroke:none;stroke-width:1"
     line-spacing="10"
     font-weight="500"
     font-size="15"
     id="text2036">
    <tspan
       id="tspan2034"
       y="18"
       x="459.43494"
       style="-inkscape-font-specification:'Open Sans';font-family:'Open Sans';font-weight:normal;font-style:normal;font-stretch:normal;font-variant:normal">Node Background</tspan>
  </text>
  <flowRoot
     xml:space="preserve"
     id="flowRoot2038"
     style="font-style:normal;font-weight:normal;font-size:40px;line-height:1.25;font-family:sans-serif;letter-spacing:0px;word-spacing:0px;fill:#000000;fill-opacity:1;stroke:none"><flowRegion
       id="flowRegion2040"><rect
         id="rect2042"
         width="169.17163"
         height="184.26831"
         x="587.43848"
         y="-10.186911" /></flowRegion><flowPara
       id="flowPara2044" /></flowRoot>  <path
     style="fill:none;fill-rule:evenodd;stroke:#d1d1d1;stroke-width:1;stroke-linecap:square"
     inkscape:connector-curvature="0"
     id="path137"
     d="M 609,2 V 142" />
  <path
     style="fill:#004368;fill-rule:nonzero;stroke:none;stroke-width:0.96316379"
     inkscape:connector-curvature="0"
     d="M 670.90037,96.304074 656.89869,89.81106 v 12.98603 z m -44.00527,0.927573 h 31.00371 1.00012 V 95.3765 h -1.00012 -31.00371 -1.00012 v 1.855147 z"
     id="Line-36" />
  <path
     style="fill:none;fill-rule:evenodd;stroke:#004368;stroke-width:2.88949132;stroke-linecap:square"
     inkscape:connector-curvature="0"
     id="Line-2-7"
     d="M 651.89809,90.738634 V 101.86952" />
  <g
     style="fill:none;fill-rule:evenodd;stroke:none;stroke-width:1"
     id="g1839"
     transform="matrix(1.0193768,0,0,0.94852758,48.631255,3.701231)">
    <path
       style="color:#000000;font-style:normal;font-variant:normal;font-weight:normal;font-stretch:normal;font-size:medium;line-height:normal;font-family:sans-serif;font-variant-ligatures:normal;font-variant-position:normal;font-variant-caps:normal;font-variant-numeric:normal;font-variant-alternates:normal;font-feature-settings:normal;text-indent:0;text-align:start;text-decoration:none;text-decoration-line:none;text-decoration-style:solid;text-decoration-color:#000000;letter-spacing:normal;word-spacing:normal;text-transform:none;writing-mode:lr-tb;direction:ltr;text-orientation:mixed;dominant-baseline:auto;baseline-shift:baseline;text-anchor:start;white-space:normal;shape-padding:0;clip-rule:nonzero;display:inline;overflow:visible;visibility:visible;opacity:1;isolation:auto;mix-blend-mode:normal;color-interpolation:sRGB;color-interpolation-filters:linearRGB;solid-color:#000000;solid-opacity:1;vector-effect:none;fill:#cc0000;fill-opacity:1;fill-rule:nonzero;stroke:#cc0000;stroke-width:0.2;stroke-linecap:butt;stroke-linejoin:miter;stroke-miterlimit:4;stroke-dasharray:none;stroke-dashoffset:2.9000001;stroke-opacity:1;color-rendering:auto;image-rendering:auto;shape-rendering:auto;text-rendering:auto;enable-background:accumulate"
       d="m 566.22449,35.833333 v 2 H 599 v -2 z"
       id="path3585"
       inkscape:connector-curvature="0"
       sodipodi:nodetypes="ccccc" />
    <path
       style="fill:#cc0000;fill-opacity:1;fill-rule:evenodd;stroke:#cc0000;stroke-width:0.88000005pt;stroke-opacity:1"
       d="m 597.87328,36.65529 -3.61508,5.969848 14.61508,-5.969848 -14.92905,-5.498894 z"
       id="path1845"
       inkscape:connector-curvature="0"
       sodipodi:nodetypes="ccccc" />
  </g>
  <g
     style="fill:none;fill-rule:evenodd;stroke:none;stroke-width:1"
     id="g1869"
     transform="matrix(1.0193768,0,0,0.94852758,48.631255,24.294291)">
    <path
       style="color:#000000;font-style:normal;font-variant:normal;font-weight:normal;font-stretch:normal;font-size:medium;line-height:normal;font-family:sans-serif;font-variant-ligatures:normal;font-variant-position:normal;font-variant-caps:normal;font-variant-numeric:normal;font-variant-alternates:normal;font-feature-settings:normal;text-indent:0;text-align:start;text-decoration:none;text-decoration-line:none;text-decoration-style:solid;text-decoration-color:#000000;letter-spacing:normal;word-spacing:normal;text-transform:none;writing-mode:lr-tb;direction:ltr;text-orientation:mixed;dominant-baseline:auto;baseline-shift:baseline;text-anchor:start;white-space:normal;shape-padding:0;clip-rule:nonzero;display:inline;overflow:visible;visibility:visible;opacity:1;isolation:auto;mix-blend-mode:normal;color-interpolation:sRGB;color-interpolation-filters:linearRGB;solid-color:#000000;solid-opacity:1;vector-effect:none;fill:#ec7a08;fill-opacity:1;fill-rule:nonzero;stroke:#ec7a08;stroke-width:0.2;stroke-linecap:butt;stroke-linejoin:miter;stroke-miterlimit:4;stroke-dasharray:none;stroke-dashoffset:2.9000001;stroke-opacity:1;color-rendering:auto;image-rendering:auto;shape-rendering:auto;text-rendering:auto;enable-background:accumulate"
       d="m 566.22449,35.833333 v 2 H 599 v -2 z"
       id="path1865"
       inkscape:connector-curvature="0"
       sodipodi:nodetypes="ccccc" />
    <path
       style="fill:#ec7a08;fill-opacity:1;fill-rule:evenodd;stroke:#ec7a08;stroke-width:0.88000005pt;stroke-opacity:1"
       d="m 597.87328,36.65529 -3.61508,5.969848 14.61508,-5.969848 -14.92905,-5.498894 z"
       id="path1867"
       inkscape:connector-curvature="0"
       sodipodi:nodetypes="ccccc" />
  </g>
  <g
     style="fill:none;fill-rule:evenodd;stroke:none;stroke-width:1"
     id="g1902"
     transform="matrix(1.0193768,0,0,0.94852758,48.631255,42.828048)">
    <path
       style="color:#000000;font-style:normal;font-variant:normal;font-weight:normal;font-stretch:normal;font-size:medium;line-height:normal;font-family:sans-serif;font-variant-ligatures:normal;font-variant-position:normal;font-variant-caps:normal;font-variant-numeric:normal;font-variant-alternates:normal;font-feature-settings:normal;text-indent:0;text-align:start;text-decoration:none;text-decoration-line:none;text-decoration-style:solid;text-decoration-color:#000000;letter-spacing:normal;word-spacing:normal;text-transform:none;writing-mode:lr-tb;direction:ltr;text-orientation:mixed;dominant-baseline:auto;baseline-shift:baseline;text-anchor:start;white-space:normal;shape-padding:0;clip-rule:nonzero;display:inline;overflow:visible;visibility:visible;opacity:1;isolation:auto;mix-blend-mode:normal;color-interpolation:sRGB;color-interpolation-filters:linearRGB;solid-color:#000000;solid-opacity:1;vector-effect:none;fill:#3f9c35;fill-opacity:1;fill-rule:nonzero;stroke:#3f9c35;stroke-width:0.2;stroke-linecap:butt;stroke-linejoin:miter;stroke-miterlimit:4;stroke-dasharray:none;stroke-dashoffset:2.9000001;stroke-opacity:1;color-rendering:auto;image-rendering:auto;shape-rendering:auto;text-rendering:auto;enable-background:accumulate"
       d="m 566.22449,35.833333 v 2 H 599 v -2 z"
       id="path1898"
       inkscape:connector-curvature="0"
       sodipodi:nodetypes="ccccc" />
    <path
       style="fill:#3f9c35;fill-opacity:1;fill-rule:evenodd;stroke:#3f9c35;stroke-width:0.88000005pt;stroke-opacity:1"
       d="m 597.87328,36.65529 -3.61508,5.969848 14.61508,-5.969848 -14.92905,-5.498894 z"
       id="path1900"
       inkscape:connector-curvature="0"
       sodipodi:nodetypes="ccccc" />
  </g>
  <g
     style="fill:none;fill-rule:evenodd;stroke:none;stroke-width:1"
     id="g1908"
     transform="matrix(1.0193768,0,0,0.94852758,48.631255,79.957253)">
    <path
       style="color:#000000;font-style:normal;font-variant:normal;font-weight:normal;font-stretch:normal;font-size:medium;line-height:normal;font-family:sans-serif;font-variant-ligatures:normal;font-variant-position:normal;font-variant-caps:normal;font-variant-numeric:normal;font-variant-alternates:normal;font-feature-settings:normal;text-indent:0;text-align:start;text-decoration:none;text-decoration-line:none;text-decoration-style:solid;text-decoration-color:#000000;letter-spacing:normal;word-spacing:normal;text-transform:none;writing-mode:lr-tb;direction:ltr;text-orientation:mixed;dominant-baseline:auto;baseline-shift:baseline;text-anchor:start;white-space:normal;shape-padding:0;clip-rule:nonzero;display:inline;overflow:visible;visibility:visible;opacity:1;isolation:auto;mix-blend-mode:normal;color-interpolation:sRGB;color-interpolation-filters:linearRGB;solid-color:#000000;solid-opacity:1;vector-effect:none;fill:#8b8d8f;fill-opacity:1;fill-rule:nonzero;stroke:#8b8d8f;stroke-width:0.2;stroke-linecap:butt;stroke-linejoin:miter;stroke-miterlimit:4;stroke-dasharray:none;stroke-dashoffset:2.9000001;stroke-opacity:1;color-rendering:auto;image-rendering:auto;shape-rendering:auto;text-rendering:auto;enable-background:accumulate"
       d="m 566.22449,35.833333 v 2 H 599 v -2 z"
       id="path1904"
       inkscape:connector-curvature="0"
       sodipodi:nodetypes="ccccc" />
    <path
       style="fill:#8b8d8f;fill-opacity:1;fill-rule:evenodd;stroke:#8b8d8f;stroke-width:0.88000005pt;stroke-opacity:1"
       d="m 597.87328,36.65529 -3.61508,5.969848 14.61508,-5.969848 -14.92905,-5.498894 z"
       id="path1906"
       inkscape:connector-curvature="0"
       sodipodi:nodetypes="ccccc" />
  </g>
  <g
     id="g34"
     transform="translate(470.37851,39.478499)">
    <path
       inkscape:connector-curvature="0"
       id="path2"
       d="m 5,1.531 c 0,0.828 -0.672,1.5 -1.5,1.5 -0.828,0 -1.5,-0.672 -1.5,-1.5 0,-0.828 0.672,-1.5 1.5,-1.5 0.828,0 1.5,0.672 1.5,1.5 z" />
    <path
       inkscape:connector-curvature="0"
       id="path4"
       d="M 15,10.5 C 15,11.328 14.328,12 13.5,12 12.672,12 12,11.328 12,10.5 12,9.672 12.672,9 13.5,9 14.328,9 15,9.672 15,10.5 Z" />
    <path
       inkscape:connector-curvature="0"
       id="path6"
       d="M 3,9.5 C 3,10.328 2.328,11 1.5,11 0.672,11 0,10.328 0,9.5 0,8.672 0.672,8 1.5,8 2.328,8 3,8.672 3,9.5 Z" />
    <path
       inkscape:connector-curvature="0"
       id="path8"
       d="m 11.331,8.812 -1.028,-0.7 c 0.116,-0.35 0.181,-0.722 0.181,-1.109 0,-0.753 -0.237,-1.45 -0.647,-2.022 l 1.2,-1.225 c 0.284,0.156 0.613,0.247 0.963,0.247 1.103,0 2,-0.897 2,-2 C 14,0.9 13.103,0 12,0 c -1.103,0 -2,0.897 -2,2 0,0.394 0.113,0.759 0.309,1.069 L 9.146,4.256 C 8.555,3.793 7.808,3.515 6.999,3.515 6.536,3.515 6.093,3.606 5.686,3.771 L 5.495,3.512 C 5.311,3.262 4.979,3.19 4.761,3.356 4.539,3.519 4.508,3.856 4.689,4.106 L 4.82,4.284 C 4.023,4.922 3.514,5.903 3.514,7.003 3.514,7.309 3.555,7.606 3.63,7.89 L 3.592,7.906 C 3.33,8.034 3.204,8.344 3.311,8.594 3.418,8.844 3.72,8.944 3.98,8.819 L 4.014,8.803 c 0.484,0.8 1.278,1.388 2.219,1.6 l -0.059,0.575 c -0.672,0.153 -1.172,0.762 -1.172,1.494 0,0.847 0.672,1.531 1.5,1.531 0.828,0 1.5,-0.684 1.5,-1.531 0,-0.603 -0.341,-1.122 -0.834,-1.372 L 7.234,10.481 C 8.318,10.409 9.265,9.843 9.856,9.006 l 0.941,0.641 c 0.25,0.172 0.578,0.125 0.725,-0.106 C 11.669,9.31 11.584,8.982 11.331,8.813 Z M 12,0.937 c 0.587,0 1.062,0.475 1.062,1.062 0,0.587 -0.475,1.062 -1.062,1.062 -0.587,0 -1.062,-0.475 -1.062,-1.062 0,-0.587 0.475,-1.062 1.062,-1.062 z M 6.5,13.281 c -0.45,0 -0.813,-0.362 -0.813,-0.813 0,-0.451 0.362,-0.813 0.813,-0.813 0.451,0 0.813,0.362 0.813,0.813 0,0.451 -0.362,0.813 -0.813,0.813 z M 7,8.906 C 5.947,8.906 5.094,8.053 5.094,7 5.094,5.947 5.947,5.094 7,5.094 8.053,5.094 8.906,5.947 8.906,7 8.906,8.053 8.053,8.906 7,8.906 Z" />
  </g>
  <text
     style="font-weight:normal;font-size:12px;font-family:OpenSans, 'Open Sans';fill:#030303;fill-rule:evenodd;stroke:none;stroke-width:1"
     line-spacing="18"
     font-weight="normal"
     font-size="12"
     id="text447-3"
     x="466.69897"
     y="69.65863">
    <tspan
       id="tspan443-6"
       y="82.65863"
       x="499.69897">Restricted</tspan>
    <tspan
       id="tspan445-7"
       y="100.65865"
       x="499.69897">Namespace</tspan>
  </text>
  <circle
     style="fill:#8b8d8f;fill-rule:evenodd;stroke:#8b8d8f;stroke-width:1;fill-opacity:1"
     r="12.5"
     cy="87.870941"
     cx="477.56918"
     id="circle2046-5" />
  <g
     id="g1021"
     transform="translate(170.33492,-115.64325)">
    <text
       y="184.28604"
       x="616.24933"
       id="Failed-Request-7-36"
       font-size="12"
       font-weight="normal"
       line-spacing="18"
       style="font-weight:normal;font-size:12px;font-family:OpenSans, 'Open Sans';fill:#030303;fill-rule:evenodd;stroke:none;stroke-width:1">
      <tspan
         x="676.24927"
         y="217.28604"
         id="tspan85-5-7">Circuit Breaker</tspan>
    </text>
    <path
       id="path1166-5"
       d="m 656.63011,210.61086 h -2.64648 l 0.7939,-2.97706 c 0.093,-0.34922 -0.1705,-0.69221 -0.53183,-0.69221 h -3.11887 c -0.27586,0 -0.5091,0.20422 -0.54555,0.47765 l -0.73375,5.50389 c -0.044,0.32998 0.21302,0.62314 0.54555,0.62314 h 2.72215 l -1.05627,4.45967 c -0.0825,0.34818 0.18376,0.67729 0.5354,0.67729 0.19149,0 0.37555,-0.10033 0.47649,-0.27469 l 4.03558,-6.97153 c 0.21199,-0.36617 -0.0525,-0.82615 -0.47632,-0.82615 z"
       style="fill:#40199a;fill-opacity:1;fill-rule:evenodd;stroke:none;stroke-width:0.02293289"
       inkscape:connector-curvature="0" />
    <path
       inkscape:connector-curvature="0"
       style="fill:#40199a;fill-opacity:1;fill-rule:evenodd;stroke:none;stroke-width:0.02097152"
       d="m 655.18958,234.19629 c 0,0.92509 -0.75262,1.67772 -1.67772,1.67772 -0.9251,0 -1.67772,-0.75263 -1.67772,-1.67772 0,-0.9251 0.75262,-1.67773 1.67772,-1.67773 0.9251,0 1.67772,0.75263 1.67772,1.67773 z m -3.16125,-8.53124 0.28521,5.70425 c 0.0134,0.26787 0.2345,0.47817 0.5027,0.47817 h 1.39124 c 0.2682,0 0.48929,-0.21029 0.5027,-0.47817 l 0.28521,-5.70425 c 0.0143,-0.2875 -0.21484,-0.52846 -0.50269,-0.52846 h -1.96168 c -0.28785,0 -0.51706,0.24096 -0.50269,0.52846 z"
       id="path1214-3" />
    <path
       inkscape:connector-curvature="0"
       style="fill:#40199a;fill-opacity:1;fill-rule:evenodd;stroke:none;stroke-width:0.02359296"
       d="m 658.04171,245.55577 c 0,-1.04281 -0.84463,-1.88743 -1.88743,-1.88743 -1.04282,0 -1.88744,0.84462 -1.88744,1.88743 0,0.85879 0.5733,1.58309 1.35659,1.81194 -0.0142,0.37985 -0.0991,0.6724 -0.25952,0.87058 -0.36333,0.45299 -1.16314,0.52849 -2.01012,0.60634 -0.66532,0.0613 -1.35423,0.1274 -1.91811,0.39872 v -3.39739 c 0.76677,-0.24064 1.3212,-0.95551 1.3212,-1.80014 0,-1.04281 -0.84462,-1.88743 -1.88744,-1.88743 -1.0428,0 -1.88743,0.84462 -1.88743,1.88743 0,0.84463 0.55444,1.5595 1.32121,1.80014 v 4.70208 c -0.76677,0.24301 -1.32121,0.95788 -1.32121,1.80251 0,1.04281 0.84463,1.88743 1.88743,1.88743 1.04282,0 1.88744,-0.84462 1.88744,-1.88743 0,-0.80216 -0.50017,-1.48872 -1.20796,-1.76004 0.0731,-0.12268 0.18404,-0.23121 0.35154,-0.31614 0.3822,-0.19347 0.95316,-0.24537 1.5595,-0.30199 0.99562,-0.092 2.12336,-0.19819 2.78868,-1.02394 0.33031,-0.41052 0.49782,-0.939 0.50961,-1.60196 0.74554,-0.2548 1.28346,-0.96023 1.28346,-1.79071 z m -7.17227,-1.88743 c 0.20762,0 0.3775,0.16987 0.3775,0.37748 0,0.20762 -0.16988,0.37749 -0.3775,0.37749 -0.20761,0 -0.37748,-0.16987 -0.37748,-0.37749 0,-0.20761 0.16987,-0.37748 0.37748,-0.37748 z m 0,9.05969 c -0.20761,0 -0.37748,-0.16987 -0.37748,-0.37748 0,-0.20762 0.16987,-0.37749 0.37748,-0.37749 0.20762,0 0.3775,0.16987 0.3775,0.37749 0,0.20761 -0.16988,0.37748 -0.3775,0.37748 z m 5.28484,-7.54974 c 0.20761,0 0.37748,0.16987 0.37748,0.37748 0,0.20762 -0.16987,0.37749 -0.37748,0.37749 -0.20762,0 -0.3775,-0.16987 -0.3775,-0.37749 0,-0.20761 0.16988,-0.37748 0.3775,-0.37748 z"
       id="path1287-5" />
    <text
       style="font-weight:500;font-size:15px;font-family:OpenSans-Semibold, 'Open Sans';fill:#030303;fill-rule:evenodd;stroke:none;stroke-width:1"
       line-spacing="10"
       font-weight="500"
       font-size="15"
       id="Traffic-Animations-3-6"
       x="-121.24226"
       y="183.98524">
      <tspan
         id="tspan79-6-2"
         y="199.98524"
         x="634.75775">Node Badges</tspan>
    </text>
    <text
       y="201.97894"
       x="616.50574"
       id="Failed-Request-7-3-9"
       font-size="12"
       font-weight="normal"
       line-spacing="18"
       style="font-weight:normal;font-size:12px;font-family:OpenSans, 'Open Sans';fill:#030303;fill-rule:evenodd;stroke:none;stroke-width:1">
      <tspan
         x="676.50568"
         y="234.97893"
         id="tspan85-5-5-1">Missing Sidecar</tspan>
    </text>
    <text
       y="219.67181"
       x="616.50574"
       id="Failed-Request-7-6-2"
       font-size="12"
       font-weight="normal"
       line-spacing="18"
       style="font-weight:normal;font-size:12px;font-family:OpenSans, 'Open Sans';fill:#030303;fill-rule:evenodd;stroke:none;stroke-width:1">
      <tspan
         x="676.50568"
         y="252.67181"
         id="tspan85-5-2-7">Virtual Services</tspan>
    </text>
  </g>
  <g
     id="g1186"
     transform="matrix(1.7670012,0,0,1.7670012,-367.15982,-186.35052)">
    <circle
       r="6.157156"
       cy="155.19031"
       cx="478.05798"
       id="path1171"
       style="fill:#ffffff;fill-opacity:1;stroke:none;stroke-width:0.95836824;stroke-linecap:round;stroke-miterlimit:4;stroke-dasharray:none;stroke-dashoffset:0;stroke-opacity:1" />
    <path
       style="fill:#8b8d8f;fill-opacity:1;stroke:none"
       id="path1135"
       d="m 484.10647,151.68431 c -0.628,-1.072 -1.475,-1.919 -2.544,-2.544 -1.069,-0.625 -2.237,-0.937 -3.506,-0.937 -1.269,0 -2.438,0.312 -3.506,0.937 -1.069,0.622 -1.919,1.472 -2.541,2.541 -0.625,1.069 -0.937,2.241 -0.937,3.506 0,1.265 0.309,2.438 0.934,3.509 0.625,1.072 1.475,1.919 2.544,2.544 1.069,0.625 2.237,0.937 3.506,0.937 1.269,0 2.438,-0.312 3.506,-0.937 1.072,-0.625 1.919,-1.475 2.544,-2.544 0.625,-1.069 0.937,-2.237 0.937,-3.506 0,-1.269 -0.312,-2.438 -0.937,-3.506 z m -1.987,6.05 c 0,0.409 -0.159,0.797 -0.45,1.088 -0.288,0.291 -0.675,0.45 -1.088,0.45 h -5.047 c -0.412,0 -0.797,-0.159 -1.088,-0.45 -0.291,-0.288 -0.45,-0.675 -0.45,-1.088 v -2.859 c 0,-0.409 0.159,-0.797 0.45,-1.088 0.1,-0.1 0.209,-0.181 0.328,-0.25 v -0.091 c 0,-0.884 0.334,-1.688 0.966,-2.319 0.632,-0.631 1.434,-0.966 2.319,-0.966 0.885,0 1.688,0.334 2.316,0.966 0.631,0.631 0.966,1.434 0.966,2.319 v 0.091 c 0.119,0.069 0.228,0.15 0.328,0.25 0.291,0.291 0.45,0.675 0.45,1.088 z"
       inkscape:connector-curvature="0" />
    <path
       id="path1137"
       d="m 480.58447,154.39931 h -0.3 v -0.953 c 0,-0.609 -0.219,-1.131 -0.656,-1.569 -0.437,-0.438 -0.959,-0.656 -1.569,-0.656 -0.61,0 -1.131,0.219 -1.569,0.656 -0.438,0.437 -0.656,0.959 -0.656,1.569 v 0.953 h -0.3 c -0.131,0 -0.244,0.047 -0.338,0.137 -0.094,0.094 -0.137,0.206 -0.137,0.338 v 2.859 c 0,0.131 0.047,0.244 0.137,0.338 0.094,0.094 0.206,0.137 0.338,0.137 h 5.047 c 0.131,0 0.244,-0.047 0.338,-0.137 0.094,-0.094 0.137,-0.206 0.137,-0.338 v -2.859 c 0,-0.131 -0.047,-0.244 -0.137,-0.338 -0.091,-0.091 -0.203,-0.137 -0.334,-0.137 z m -3.794,0 v -0.953 c 0,-0.35 0.125,-0.65 0.372,-0.897 0.247,-0.247 0.547,-0.372 0.897,-0.372 0.35,0 0.65,0.125 0.897,0.372 0.247,0.247 0.372,0.547 0.372,0.897 v 0.953 h -2.537 z"
       inkscape:connector-curvature="0" />
  </g>
  <text
     y="51.38652"
     x="601.51953"
     style="font-weight:normal;font-size:11.55796528px;font-family:OpenSans, 'Open Sans';fill:#030303;fill-rule:evenodd;stroke:none;stroke-width:0.96316379"
     line-spacing="18"
     font-weight="normal"
     font-size="12"
     id="Idle-6"
     transform="scale(1.0383692,0.96304859)">
    <tspan
       id="tspan67-6"
       y="140.96077"
       x="660.27246"
       style="stroke-width:0.96316379">mTLS (badge)</tspan>
  </text>
  <path
     id="path8855"
     d="m 649.45152,130.98534 h -0.66211 v -2.10083 c 0,-2.44513 -1.88151,-4.43508 -4.1934,-4.43508 -2.31188,0 -4.19338,1.98995 -4.19338,4.43508 v 2.10083 h -0.66212 c -0.73108,0 -1.32423,0.62733 -1.32423,1.40055 v 5.6022 c 0,0.77323 0.59315,1.40056 1.32423,1.40056 h 9.71101 c 0.73109,0 1.32423,-0.62733 1.32423,-1.40056 v -5.6022 c 0,-0.77322 -0.59314,-1.40055 -1.32423,-1.40055 z m -2.86916,0 h -3.97269 v -2.10083 c 0,-1.15837 0.8911,-2.10083 1.98634,-2.10083 1.09526,0 1.98635,0.94246 1.98635,2.10083 z"
     inkscape:connector-curvature="0"
     style="fill:currentColor;stroke-width:0.028372" />
</svg>
