<?xml version="1.0" encoding="UTF-8" standalone="no"?>
<!-- Created with Inkscape (http://www.inkscape.org/) -->

<svg
   xmlns:dc="http://purl.org/dc/elements/1.1/"
   xmlns:cc="http://creativecommons.org/ns#"
   xmlns:rdf="http://www.w3.org/1999/02/22-rdf-syntax-ns#"
   xmlns:svg="http://www.w3.org/2000/svg"
   xmlns="http://www.w3.org/2000/svg"
   xmlns:sodipodi="http://sodipodi.sourceforge.net/DTD/sodipodi-0.dtd"
   xmlns:inkscape="http://www.inkscape.org/namespaces/inkscape"
   width="81.332977mm"
   height="3.0649331mm"
   viewBox="0 0 81.332978 3.0649331"
   version="1.1"
   id="svg8"
   inkscape:version="0.92.2 (5c3e80d, 2017-08-06)"
   sodipodi:docname="brand.svg">
  <defs
     id="defs2" />
  <sodipodi:namedview
     id="base"
     pagecolor="#ffffff"
     bordercolor="#666666"
     borderopacity="1.0"
     inkscape:pageopacity="0.0"
     inkscape:pageshadow="2"
     inkscape:zoom="2.8"
     inkscape:cx="143.44044"
     inkscape:cy="-45.682155"
     inkscape:document-units="mm"
     inkscape:current-layer="layer1"
     showgrid="false"
     inkscape:window-width="1920"
     inkscape:window-height="1136"
     inkscape:window-x="1920"
     inkscape:window-y="27"
     inkscape:window-maximized="1"
     fit-margin-top="0"
     fit-margin-left="0"
     fit-margin-right="0"
     fit-margin-bottom="0" />
  <metadata
     id="metadata5">
    <rdf:RDF>
      <cc:Work
         rdf:about="">
        <dc:format>image/svg+xml</dc:format>
        <dc:type
           rdf:resource="http://purl.org/dc/dcmitype/StillImage" />
        <dc:title></dc:title>
      </cc:Work>
    </rdf:RDF>
  </metadata>
  <g
     inkscape:label="Layer 1"
     inkscape:groupmode="layer"
     id="layer1"
     transform="translate(-4.8532246,-136.74777)">
    <g
       aria-label="KIALI SERVICE MESH OBSERVABILITY"
       style="font-style:normal;font-weight:normal;font-size:10.58333302px;line-height:1.25;font-family:sans-serif;letter-spacing:0px;word-spacing:0px;fill:#ffffff;fill-opacity:1;stroke:none;stroke-width:0.26458332"
       id="text817">
      <path
         d="m 6.7836245,139.7619 h 0.7535333 l -1.0413999,-1.88806 0.8847666,-1.07527 h -0.7747 l -1.1091332,1.40123 v -1.40123 H 4.8532246 v 2.96333 h 0.6434667 v -0.64346 l 0.5630333,-0.70274 z"
         style="letter-spacing:1.05833328px;fill:#ffffff;fill-opacity:1"
         id="path1780" />
      <path
         d="m 9.0333101,139.7619 h 0.6434667 v -2.96333 H 9.0333101 Z"
         style="letter-spacing:1.05833328px;fill:#ffffff;fill-opacity:1"
         id="path1782" />
      <path
         d="m 13.37962,139.7619 h 0.702734 l -1.172634,-2.96333 h -0.618066 l -1.1684,2.96333 h 0.702733 l 0.220133,-0.57573 h 1.113367 z m -0.436033,-1.1684 h -0.6858 l 0.254,-0.63923 c 0.02963,-0.072 0.07197,-0.17357 0.0889,-0.24977 0.02117,0.0762 0.05927,0.1778 0.0889,0.24977 z"
         style="letter-spacing:1.05833328px;fill:#ffffff;fill-opacity:1"
         id="path1784" />
      <path
         d="m 15.510972,139.7619 h 2.065866 v -0.6223 h -1.422399 v -2.34103 h -0.643467 z"
         style="letter-spacing:1.05833328px;fill:#ffffff;fill-opacity:1"
         id="path1786" />
      <path
         d="m 19.004794,139.7619 h 0.643466 v -2.96333 h -0.643466 z"
         style="letter-spacing:1.05833328px;fill:#ffffff;fill-opacity:1"
         id="path1788" />
      <path
         d="m 24.185798,139.8127 c 0.5461,0 0.935567,-0.29633 0.935567,-0.82126 0,-0.55457 -0.452967,-0.80857 -0.855133,-0.9652 -0.351367,-0.13547 -0.681567,-0.2794 -0.681567,-0.59267 0,-0.254 0.207433,-0.4191 0.554567,-0.4191 0.296333,0 0.491066,0.1397 0.563033,0.29633 l 0.275166,-0.0931 c -0.08043,-0.27093 -0.389466,-0.4699 -0.825499,-0.4699 -0.550334,0 -0.872067,0.31327 -0.872067,0.69003 0,0.49107 0.452967,0.71544 0.867833,0.87207 0.347133,0.13123 0.668867,0.32597 0.668867,0.69003 0,0.3556 -0.2413,0.5461 -0.626533,0.5461 -0.338667,0 -0.592667,-0.1778 -0.7112,-0.43603 l -0.2794,0.1016 c 0.118533,0.32173 0.486833,0.60113 0.986366,0.60113 z"
         style="font-style:normal;font-variant:normal;font-weight:300;font-stretch:normal;font-size:4.23333311px;font-family:Overpass;-inkscape-font-specification:'Overpass Light';letter-spacing:0px;word-spacing:0.79374999px;fill:#ffffff;fill-opacity:1"
         id="path1790" />
      <path
         d="m 25.882307,139.7619 h 1.782233 v -0.28363 h -1.4859 v -1.10913 h 0.9398 v -0.2794 h -0.9398 v -1.00754 h 1.392767 v -0.28363 h -1.6891 z"
         style="font-style:normal;font-variant:normal;font-weight:300;font-stretch:normal;font-size:4.23333311px;font-family:Overpass;-inkscape-font-specification:'Overpass Light';letter-spacing:0px;word-spacing:0.79374999px;fill:#ffffff;fill-opacity:1"
         id="path1792" />
      <path
         d="m 28.404118,139.7619 h 0.296333 v -1.32503 h 0.668867 l 0.635,1.32503 h 0.325966 l -0.656166,-1.33773 c 0.537633,-0.0847 0.732366,-0.45297 0.732366,-0.8128 0,-0.39793 -0.2159,-0.8128 -0.9144,-0.8128 h -1.087966 z m 0.296333,-1.59173 v -1.1049 h 0.8001 c 0.486833,0 0.6223,0.32597 0.6223,0.5588 0,0.2667 -0.156633,0.5461 -0.6223,0.5461 z"
         style="font-style:normal;font-variant:normal;font-weight:300;font-stretch:normal;font-size:4.23333311px;font-family:Overpass;-inkscape-font-specification:'Overpass Light';letter-spacing:0px;word-spacing:0.79374999px;fill:#ffffff;fill-opacity:1"
         id="path1794" />
      <path
         d="m 31.970038,139.7619 h 0.2159 l 1.011767,-2.96333 h -0.3175 l -0.706967,2.2225 c -0.0254,0.0847 -0.05503,0.17357 -0.08043,0.26247 -0.02963,-0.0889 -0.05503,-0.1778 -0.08467,-0.26247 l -0.740833,-2.2225 h -0.313267 z"
         style="font-style:normal;font-variant:normal;font-weight:300;font-stretch:normal;font-size:4.23333311px;font-family:Overpass;-inkscape-font-specification:'Overpass Light';letter-spacing:0px;word-spacing:0.79374999px;fill:#ffffff;fill-opacity:1"
         id="path1796" />
      <path
         d="m 33.811539,139.7619 h 0.296333 v -2.96333 h -0.296333 z"
         style="font-style:normal;font-variant:normal;font-weight:300;font-stretch:normal;font-size:4.23333311px;font-family:Overpass;-inkscape-font-specification:'Overpass Light';letter-spacing:0px;word-spacing:0.79374999px;fill:#ffffff;fill-opacity:1"
         id="path1798" />
      <path
         d="m 36.073395,139.8127 c 0.512233,0 0.812799,-0.27093 0.948266,-0.54186 l -0.262467,-0.1016 c -0.135466,0.22436 -0.330199,0.37676 -0.685799,0.37676 -0.6477,0 -0.918634,-0.61383 -0.918634,-1.26576 0,-0.58844 0.2413,-1.26577 0.918634,-1.26577 0.3429,0 0.512233,0.17357 0.643466,0.36407 l 0.262467,-0.1524 c -0.148167,-0.2413 -0.372534,-0.47837 -0.905933,-0.47837 -0.855134,0 -1.227667,0.7239 -1.227667,1.53247 0,0.7747 0.347133,1.53246 1.227667,1.53246 z"
         style="font-style:normal;font-variant:normal;font-weight:300;font-stretch:normal;font-size:4.23333311px;font-family:Overpass;-inkscape-font-specification:'Overpass Light';letter-spacing:0px;word-spacing:0.79374999px;fill:#ffffff;fill-opacity:1"
         id="path1800" />
      <path
         d="m 37.722412,139.7619 h 1.782233 v -0.28363 h -1.4859 v -1.10913 h 0.9398 v -0.2794 h -0.9398 v -1.00754 h 1.392767 v -0.28363 h -1.6891 z"
         style="font-style:normal;font-variant:normal;font-weight:300;font-stretch:normal;font-size:4.23333311px;font-family:Overpass;-inkscape-font-specification:'Overpass Light';letter-spacing:0px;word-spacing:0.79374999px;fill:#ffffff;fill-opacity:1"
         id="path1802" />
      <path
         d="m 44.519755,139.7619 v -2.96333 h -0.258233 l -0.931333,2.14207 c -0.0254,0.055 -0.04657,0.11006 -0.07197,0.1651 -0.0254,-0.055 -0.04657,-0.11007 -0.07197,-0.1651 l -0.918634,-2.14207 h -0.254 v 2.96333 h 0.296334 v -2.01506 -0.1651 c 0.02117,0.055 0.04657,0.11006 0.06773,0.1651 l 0.855133,2.06586 0.910167,-2.06586 c 0.0254,-0.0593 0.05503,-0.11854 0.08043,-0.1778 v 0.1778 2.01506 z"
         style="font-style:normal;font-variant:normal;font-weight:300;font-stretch:normal;font-size:4.23333311px;font-family:Overpass;-inkscape-font-specification:'Overpass Light';letter-spacing:0px;word-spacing:0.79374999px;fill:#ffffff;fill-opacity:1"
         id="path1804" />
      <path
         d="m 45.411861,139.7619 h 1.782234 v -0.28363 h -1.4859 v -1.10913 h 0.9398 v -0.2794 h -0.9398 v -1.00754 h 1.392766 v -0.28363 h -1.6891 z"
         style="font-style:normal;font-variant:normal;font-weight:300;font-stretch:normal;font-size:4.23333311px;font-family:Overpass;-inkscape-font-specification:'Overpass Light';letter-spacing:0px;word-spacing:0.79374999px;fill:#ffffff;fill-opacity:1"
         id="path1806" />
      <path
         d="m 48.750707,139.8127 c 0.5461,0 0.935567,-0.29633 0.935567,-0.82126 0,-0.55457 -0.452967,-0.80857 -0.855134,-0.9652 -0.351366,-0.13547 -0.681566,-0.2794 -0.681566,-0.59267 0,-0.254 0.207433,-0.4191 0.554566,-0.4191 0.296334,0 0.491067,0.1397 0.563034,0.29633 l 0.275166,-0.0931 c -0.08043,-0.27093 -0.389466,-0.4699 -0.8255,-0.4699 -0.550333,0 -0.872066,0.31327 -0.872066,0.69003 0,0.49107 0.452967,0.71544 0.867833,0.87207 0.347133,0.13123 0.668867,0.32597 0.668867,0.69003 0,0.3556 -0.2413,0.5461 -0.626534,0.5461 -0.338666,0 -0.592666,-0.1778 -0.711199,-0.43603 l -0.2794,0.1016 c 0.118533,0.32173 0.486833,0.60113 0.986366,0.60113 z"
         style="font-style:normal;font-variant:normal;font-weight:300;font-stretch:normal;font-size:4.23333311px;font-family:Overpass;-inkscape-font-specification:'Overpass Light';letter-spacing:0px;word-spacing:0.79374999px;fill:#ffffff;fill-opacity:1"
         id="path1808" />
      <path
         d="m 52.191349,139.7619 h 0.296334 v -2.96333 h -0.296334 v 1.2827 h -1.4478 v -1.2827 h -0.296333 v 2.96333 h 0.296333 v -1.40123 h 1.4478 z"
         style="font-style:normal;font-variant:normal;font-weight:300;font-stretch:normal;font-size:4.23333311px;font-family:Overpass;-inkscape-font-specification:'Overpass Light';letter-spacing:0px;word-spacing:0.79374999px;fill:#ffffff;fill-opacity:1"
         id="path1810" />
      <path
         d="m 56.22307,139.8127 c 0.9144,0 1.227666,-0.8001 1.227666,-1.53246 0,-0.73237 -0.313266,-1.53247 -1.227666,-1.53247 -0.9144,0 -1.227667,0.8001 -1.227667,1.53247 0,0.73236 0.313267,1.53246 1.227667,1.53246 z m 0,-0.2667 c -0.681567,0 -0.918633,-0.6223 -0.918633,-1.26576 0,-0.58844 0.237066,-1.26577 0.918633,-1.26577 0.681567,0 0.918633,0.6223 0.918633,1.26577 0,0.58843 -0.237066,1.26576 -0.918633,1.26576 z"
         style="font-style:normal;font-variant:normal;font-weight:300;font-stretch:normal;font-size:4.23333311px;font-family:Overpass;-inkscape-font-specification:'Overpass Light';letter-spacing:0px;word-spacing:0.79374999px;fill:#ffffff;fill-opacity:1"
         id="path1812" />
      <path
         d="m 58.194546,136.79857 v 2.96333 h 1.049866 c 0.728134,0 0.944034,-0.42756 0.944034,-0.82973 0,-0.4064 -0.249767,-0.65193 -0.5715,-0.73237 0.2794,-0.10583 0.465666,-0.32596 0.465666,-0.62653 0,-0.38523 -0.211666,-0.7747 -0.905933,-0.7747 z m 0.910166,1.2954 h -0.613833 v -1.0287 h 0.7112 c 0.4953,0 0.605367,0.25823 0.605367,0.49953 0,0.32174 -0.237067,0.52917 -0.702734,0.52917 z m 0.1905,1.40123 h -0.804333 v -1.143 h 0.664633 c 0.605367,0 0.757767,0.2921 0.757767,0.60537 0,0.27093 -0.131233,0.53763 -0.618067,0.53763 z"
         style="font-style:normal;font-variant:normal;font-weight:300;font-stretch:normal;font-size:4.23333311px;font-family:Overpass;-inkscape-font-specification:'Overpass Light';letter-spacing:0px;word-spacing:0.79374999px;fill:#ffffff;fill-opacity:1"
         id="path1814" />
      <path
         d="m 61.748361,139.8127 c 0.5461,0 0.935567,-0.29633 0.935567,-0.82126 0,-0.55457 -0.452967,-0.80857 -0.855134,-0.9652 -0.351366,-0.13547 -0.681566,-0.2794 -0.681566,-0.59267 0,-0.254 0.207433,-0.4191 0.554566,-0.4191 0.296334,0 0.491067,0.1397 0.563034,0.29633 l 0.275166,-0.0931 c -0.08043,-0.27093 -0.389466,-0.4699 -0.8255,-0.4699 -0.550333,0 -0.872066,0.31327 -0.872066,0.69003 0,0.49107 0.452966,0.71544 0.867833,0.87207 0.347133,0.13123 0.668867,0.32597 0.668867,0.69003 0,0.3556 -0.2413,0.5461 -0.626534,0.5461 -0.338666,0 -0.592666,-0.1778 -0.7112,-0.43603 l -0.279399,0.1016 c 0.118533,0.32173 0.486833,0.60113 0.986366,0.60113 z"
         style="font-style:normal;font-variant:normal;font-weight:300;font-stretch:normal;font-size:4.23333311px;font-family:Overpass;-inkscape-font-specification:'Overpass Light';letter-spacing:0px;word-spacing:0.79374999px;fill:#ffffff;fill-opacity:1"
         id="path1816" />
      <path
         d="m 63.44487,139.7619 h 1.782233 v -0.28363 h -1.4859 v -1.10913 h 0.9398 v -0.2794 h -0.9398 v -1.00754 h 1.392767 v -0.28363 h -1.6891 z"
         style="font-style:normal;font-variant:normal;font-weight:300;font-stretch:normal;font-size:4.23333311px;font-family:Overpass;-inkscape-font-specification:'Overpass Light';letter-spacing:0px;word-spacing:0.79374999px;fill:#ffffff;fill-opacity:1"
         id="path1818" />
      <path
         d="m 65.966679,139.7619 h 0.296333 v -1.32503 h 0.668867 l 0.635,1.32503 h 0.325966 l -0.656166,-1.33773 c 0.537633,-0.0847 0.732366,-0.45297 0.732366,-0.8128 0,-0.39793 -0.2159,-0.8128 -0.9144,-0.8128 h -1.087966 z m 0.296333,-1.59173 v -1.1049 h 0.8001 c 0.486833,0 0.6223,0.32597 0.6223,0.5588 0,0.2667 -0.156633,0.5461 -0.6223,0.5461 z"
         style="font-style:normal;font-variant:normal;font-weight:300;font-stretch:normal;font-size:4.23333311px;font-family:Overpass;-inkscape-font-specification:'Overpass Light';letter-spacing:0px;word-spacing:0.79374999px;fill:#ffffff;fill-opacity:1"
         id="path1820" />
      <path
         d="m 69.532601,139.7619 h 0.2159 l 1.011767,-2.96333 h -0.3175 l -0.706967,2.2225 c -0.0254,0.0847 -0.05503,0.17357 -0.08043,0.26247 -0.02963,-0.0889 -0.05503,-0.1778 -0.08467,-0.26247 l -0.740833,-2.2225 h -0.313267 z"
         style="font-style:normal;font-variant:normal;font-weight:300;font-stretch:normal;font-size:4.23333311px;font-family:Overpass;-inkscape-font-specification:'Overpass Light';letter-spacing:0px;word-spacing:0.79374999px;fill:#ffffff;fill-opacity:1"
         id="path1822" />
      <path
         d="m 72.879846,139.7619 h 0.300567 l -1.037167,-2.96333 h -0.2286 l -1.028699,2.96333 h 0.309033 l 0.258233,-0.76623 h 1.1557 z m -0.359833,-1.0287 h -0.9779 l 0.4064,-1.18533 c 0.0254,-0.072 0.0635,-0.21167 0.08043,-0.2667 0.0127,0.055 0.05927,0.19473 0.08467,0.2667 z"
         style="font-style:normal;font-variant:normal;font-weight:300;font-stretch:normal;font-size:4.23333311px;font-family:Overpass;-inkscape-font-specification:'Overpass Light';letter-spacing:0px;word-spacing:0.79374999px;fill:#ffffff;fill-opacity:1"
         id="path1824" />
      <path
         d="m 73.796692,136.79857 v 2.96333 h 1.049867 c 0.728133,0 0.944033,-0.42756 0.944033,-0.82973 0,-0.4064 -0.249767,-0.65193 -0.5715,-0.73237 0.2794,-0.10583 0.465666,-0.32596 0.465666,-0.62653 0,-0.38523 -0.211666,-0.7747 -0.905933,-0.7747 z m 0.910167,1.2954 h -0.613834 v -1.0287 h 0.7112 c 0.4953,0 0.605367,0.25823 0.605367,0.49953 0,0.32174 -0.237067,0.52917 -0.702733,0.52917 z m 0.1905,1.40123 h -0.804334 v -1.143 h 0.664634 c 0.605366,0 0.757766,0.2921 0.757766,0.60537 0,0.27093 -0.131233,0.53763 -0.618066,0.53763 z"
         style="font-style:normal;font-variant:normal;font-weight:300;font-stretch:normal;font-size:4.23333311px;font-family:Overpass;-inkscape-font-specification:'Overpass Light';letter-spacing:0px;word-spacing:0.79374999px;fill:#ffffff;fill-opacity:1"
         id="path1826" />
      <path
         d="m 76.533478,139.7619 h 0.296333 v -2.96333 h -0.296333 z"
         style="font-style:normal;font-variant:normal;font-weight:300;font-stretch:normal;font-size:4.23333311px;font-family:Overpass;-inkscape-font-specification:'Overpass Light';letter-spacing:0px;word-spacing:0.79374999px;fill:#ffffff;fill-opacity:1"
         id="path1828" />
      <path
         d="m 77.715836,139.7619 h 1.765299 v -0.28363 h -1.468966 v -2.6797 h -0.296333 z"
         style="font-style:normal;font-variant:normal;font-weight:300;font-stretch:normal;font-size:4.23333311px;font-family:Overpass;-inkscape-font-specification:'Overpass Light';letter-spacing:0px;word-spacing:0.79374999px;fill:#ffffff;fill-opacity:1"
         id="path1830" />
      <path
         d="m 80.072281,139.7619 h 0.296333 v -2.96333 h -0.296333 z"
         style="font-style:normal;font-variant:normal;font-weight:300;font-stretch:normal;font-size:4.23333311px;font-family:Overpass;-inkscape-font-specification:'Overpass Light';letter-spacing:0px;word-spacing:0.79374999px;fill:#ffffff;fill-opacity:1"
         id="path1832" />
      <path
         d="m 82.173264,137.0822 h 0.817034 v -0.28363 h -1.926167 v 0.28363 h 0.8128 v 2.6797 h 0.296333 z"
         style="font-style:normal;font-variant:normal;font-weight:300;font-stretch:normal;font-size:4.23333311px;font-family:Overpass;-inkscape-font-specification:'Overpass Light';letter-spacing:0px;word-spacing:0.79374999px;fill:#ffffff;fill-opacity:1"
         id="path1834" />
      <path
         d="m 84.400927,139.7619 h 0.296333 v -1.17686 l 0.960967,-1.78647 h -0.3048 l -0.808567,1.524 -0.7874,-1.524 h -0.325967 l 0.969434,1.79917 z"
         style="font-style:normal;font-variant:normal;font-weight:300;font-stretch:normal;font-size:4.23333311px;font-family:Overpass;-inkscape-font-specification:'Overpass Light';letter-spacing:0px;word-spacing:0.79374999px;fill:#ffffff;fill-opacity:1"
         id="path1836" />
    </g>
  </g>
</svg>
