<?xml version="1.0" encoding="UTF-8" standalone="no"?>
<!-- Generator: Adobe Illustrator 16.0.4, SVG Export Plug-In . SVG Version: 6.00 Build 0)  -->

<svg
   xmlns:dc="http://purl.org/dc/elements/1.1/"
   xmlns:cc="http://creativecommons.org/ns#"
   xmlns:rdf="http://www.w3.org/1999/02/22-rdf-syntax-ns#"
   xmlns:svg="http://www.w3.org/2000/svg"
   xmlns="http://www.w3.org/2000/svg"
   xmlns:sodipodi="http://sodipodi.sourceforge.net/DTD/sodipodi-0.dtd"
   xmlns:inkscape="http://www.inkscape.org/namespaces/inkscape"
   version="1.1"
   id="Layer_1"
   x="0px"
   y="0px"
   width="120"
   height="35"
   viewBox="0 0 120 35"
   enable-background="new 0 0 37 35"
   xml:space="preserve"
   sodipodi:docname="logo-login.svg"
   inkscape:version="0.92.3 (2405546, 2018-03-11)"><metadata
   id="metadata4833"><rdf:RDF><cc:Work
       rdf:about=""><dc:format>image/svg+xml</dc:format><dc:type
         rdf:resource="http://purl.org/dc/dcmitype/StillImage" /><dc:title></dc:title></cc:Work></rdf:RDF></metadata><defs
   id="defs4831" /><sodipodi:namedview
   pagecolor="#ffffff"
   bordercolor="#666666"
   borderopacity="1"
   objecttolerance="10"
   gridtolerance="10"
   guidetolerance="10"
   inkscape:pageopacity="0"
   inkscape:pageshadow="2"
   inkscape:window-width="2560"
   inkscape:window-height="1043"
   id="namedview4829"
   showgrid="false"
   inkscape:zoom="6.7428571"
   inkscape:cx="18.5"
   inkscape:cy="17.5"
   inkscape:window-x="1920"
   inkscape:window-y="0"
   inkscape:window-maximized="1"
   inkscape:current-layer="Layer_1" />
<linearGradient
   id="SVGID_1_"
   gradientUnits="userSpaceOnUse"
   x1="231.89549"
   y1="-269.55469"
   x2="231.89549"
   y2="-301.71991"
   gradientTransform="matrix(1,0,0,-1,-213.5,-268.5)">
	<stop
   offset="0"
   style="stop-color:#60EFFF"
   id="stop4821" />
	<stop
   offset="1"
   style="stop-color:#1F89C7"
   id="stop4823" />
</linearGradient>

<g
   id="g4007"
   transform="matrix(2.9522076,0,0,2.782949,18.277069,0.38748267)"><path
     class="st1"
     d="m 14.1,2.4 c 0,-0.4 0.2,-0.6 0.6,-0.6 0.4,0 0.6,0.2 0.6,0.6 v 2.8 l 1.4,-1.5 c 0.1,-0.1 0.3,-0.2 0.5,-0.2 0.3,0 0.6,0.2 0.6,0.6 0,0.2 -0.1,0.3 -0.2,0.4 l -0.9,1 1.3,1.7 c 0.1,0.1 0.1,0.3 0.1,0.4 0,0.3 -0.3,0.6 -0.6,0.6 C 17.2,8.2 17,8 16.9,7.9 L 15.7,6.2 15.3,6.6 v 0.9 c 0,0.4 -0.2,0.6 -0.6,0.6 -0.4,0 -0.6,-0.2 -0.6,-0.6 z"
     id="path3991"
     inkscape:connector-curvature="0"
     style="fill:#d7f7ff" /><path
     class="st1"
     d="m 19,1.7 c 0.4,0 0.6,0.3 0.6,0.6 C 19.6,2.7 19.4,3 19,3 18.6,3 18.4,2.7 18.4,2.4 18.3,2 18.6,1.7 19,1.7 c 0,0 0,0 0,0 z m -0.6,2.4 c 0,-0.3 0.1,-0.6 0.6,-0.6 0.5,0 0.6,0.3 0.6,0.6 v 3.4 c 0,0.3 -0.1,0.6 -0.6,0.6 -0.5,0 -0.6,-0.3 -0.6,-0.6 z"
     id="path3993"
     inkscape:connector-curvature="0"
     style="fill:#d7f7ff" /><path
     class="st1"
     d="m 24.3,6.8 c 0,0.5 0.1,0.6 0.1,0.8 0,0.3 -0.3,0.5 -0.6,0.5 -0.5,0 -0.7,-0.3 -0.7,-0.7 -0.5,0.5 -1,0.7 -1.7,0.7 C 20.7,8.1 20,7.6 20,6.8 20,5.8 20.8,5.5 21.7,5.4 L 22.5,5.3 C 22.8,5.3 23,5.2 23,4.8 23,4.4 22.6,4.3 22.2,4.3 21.3,4.3 21.3,5 20.8,5 20.5,5 20.3,4.8 20.3,4.5 c 0,-0.5 0.7,-1.1 2,-1.1 1.2,0 2,0.4 2,1.3 z M 23.1,5.9 C 23,6 22.7,6.1 22.6,6.1 l -0.5,0.1 c -0.5,0.1 -0.8,0.2 -0.8,0.6 0,0.3 0.3,0.5 0.7,0.5 0.7,0 1.1,-0.4 1.1,-0.9 z"
     id="path3995"
     inkscape:connector-curvature="0"
     style="fill:#d7f7ff" /><path
     class="st1"
     d="m 24.9,2.4 c 0,-0.4 0.2,-0.6 0.6,-0.6 0.4,0 0.6,0.2 0.6,0.6 v 5.1 c 0,0.4 -0.2,0.6 -0.6,0.6 -0.4,0 -0.6,-0.2 -0.6,-0.6 z"
     id="path3997"
     inkscape:connector-curvature="0"
     style="fill:#d7f7ff" /><path
     class="st1"
     d="m 27.4,1.7 c 0.4,0 0.6,0.3 0.6,0.6 0,0.4 -0.3,0.6 -0.6,0.6 -0.4,0 -0.6,-0.3 -0.6,-0.6 0,-0.3 0.3,-0.6 0.6,-0.6 0,0 0,0 0,0 z m -0.6,2.4 c 0,-0.3 0.1,-0.6 0.6,-0.6 0.5,0 0.6,0.3 0.6,0.6 v 3.4 c 0,0.3 -0.1,0.6 -0.6,0.6 -0.5,0 -0.6,-0.3 -0.6,-0.6 z"
     id="path3999"
     inkscape:connector-curvature="0"
     style="fill:#d7f7ff" /><path
     class="st1"
     d="M 7.8,0 C 5.4,0 3.5,1.9 3.5,4.3 3.5,6.7 5.4,8.6 7.8,8.6 10.2,8.6 12,6.6 12,4.3 12,2 10.1,0 7.8,0 Z m 0,7.9 c -2,0 -3.6,-1.6 -3.6,-3.6 0,-2 1.6,-3.6 3.6,-3.6 2,0 3.6,1.6 3.6,3.6 0,0 0,0 0,0 0,2 -1.6,3.6 -3.6,3.6 z"
     id="path4001"
     inkscape:connector-curvature="0"
     style="fill:#d7f7ff" /><path
     class="st2"
     d="M 6.3,1 C 4.5,1.8 3.6,4 4.5,5.8 4.9,6.6 5.5,7.3 6.3,7.6 8.1,6 8.3,3.2 6.7,1.3 6.6,1.2 6.4,1.1 6.3,1 Z"
     id="path4003"
     inkscape:connector-curvature="0"
     style="fill:#0093dd" /><path
     class="st2"
     d="m 3.5,4.3 c 0,-1 0.3,-1.9 1,-2.7 C 4.1,1.4 3.7,1.3 3.2,1.3 c -1.6,0 -2.9,1.3 -2.9,3 0,1.7 1.3,3 2.9,3 C 3.6,7.3 4,7.2 4.4,7 3.8,6.2 3.5,5.3 3.5,4.3 Z"
     id="path4005"
     inkscape:connector-curvature="0"
     style="fill:#0093dd" /></g><path
   id="path1790"
   class="st0"
   d="m 2.0505425,34.38663 c 1.012799,0 1.823043,-0.509193 1.823043,-1.463932 0,-1.018368 -0.877761,-1.463934 -1.620483,-1.718521 -0.675201,-0.254606 -1.28287899,-0.509175 -1.28287899,-1.082034 0,-0.445546 0.40511899,-0.763762 1.08031899,-0.763762 0.540158,0 0.945282,0.254569 1.080321,0.509175 l 0.405124,-0.190959 c -0.135048,-0.445528 -0.742722,-0.827428 -1.552966,-0.827428 -1.08031999,0 -1.68799899,0.572859 -1.68799899,1.272974 0,0.891075 0.87775999,1.272974 1.68799899,1.591227 0.675201,0.254606 1.28288,0.57284 1.28288,1.272974 0,0.636506 -0.472636,0.95474 -1.215359,0.95474 -0.6752,0 -1.14784099,-0.318234 -1.35040099,-0.76378 l -0.540162,0.127442 c 0.202564,0.57284 0.94528199,1.082033 1.89056299,1.082033 z"
   inkscape:connector-curvature="0"
   style="fill:#ffffff;stroke-width:0.65555948"
   inkscape:transform-center-x="15.018715"
   inkscape:transform-center-y="-0.58992488" /><path
   id="path1792"
   class="st0"
   d="m 5.2915035,34.259318 h 3.443526 v -0.509193 h -2.835846 v -1.973108 h 1.823047 v -0.509193 h -1.823047 v -1.845796 h 2.633286 v -0.509212 h -3.240966 z"
   inkscape:connector-curvature="0"
   style="fill:#ffffff;stroke-width:0.65555948"
   inkscape:transform-center-x="13.696729"
   inkscape:transform-center-y="-0.59836695" /><path
   id="path1794"
   class="st0"
   d="M 10.152952,34.259318 H 10.69311 V 31.90433 h 1.282885 l 1.215358,2.418654 h 0.607684 l -1.28288,-2.418654 c 1.012799,-0.127443 1.417919,-0.827447 1.417919,-1.463934 0,-0.700152 -0.40512,-1.463933 -1.755521,-1.463933 h -2.093124 v 5.282855 z m 0.540158,-2.864201 v -1.973089 h 1.552961 c 0.945282,0 1.215364,0.572822 1.215364,1.018368 0,0.509175 -0.270082,0.954721 -1.215364,0.954721 z"
   inkscape:connector-curvature="0"
   style="fill:#ffffff;stroke-width:0.65555948"
   inkscape:transform-center-x="12.374742"
   inkscape:transform-center-y="-0.58152448" /><path
   id="path1796"
   class="st0"
   d="m 16.972482,34.259318 h 0.405119 l 1.958081,-5.346502 h -0.607679 l -1.350402,4.009882 c -0.06753,0.127441 -0.135048,0.318253 -0.135048,0.445546 -0.06753,-0.19094 -0.135048,-0.318234 -0.135048,-0.445546 l -1.417908,-4.009882 h -0.675201 z"
   inkscape:connector-curvature="0"
   style="fill:#ffffff;stroke-width:0.65555948"
   inkscape:transform-center-x="11.008093"
   inkscape:transform-center-y="-0.59836695" /><path
   id="path1798"
   class="st0"
   d="m 20.483524,34.259318 h 0.540163 v -5.346502 h -0.540163 z"
   inkscape:connector-curvature="0"
   style="fill:#ffffff;stroke-width:0.65555948"
   inkscape:transform-center-x="10.061264"
   inkscape:transform-center-y="-0.59836695" /><path
   id="path1800"
   class="st0"
   d="m 24.80481,34.38663 c 1.012799,0 1.552957,-0.509193 1.823043,-0.954739 l -0.472641,-0.19094 c -0.270082,0.381899 -0.607679,0.700133 -1.282885,0.700133 -1.215359,0 -1.755521,-1.082033 -1.755521,-2.291361 0,-1.082014 0.472646,-2.291342 1.755521,-2.291342 0.675206,0 1.012803,0.318216 1.215363,0.636469 l 0.472641,-0.254606 c -0.337603,-0.44551 -0.742722,-0.891075 -1.755521,-0.891075 -1.620483,0 -2.363205,1.336621 -2.363205,2.736908 0,1.400267 0.675201,2.800553 2.363205,2.800553 z"
   inkscape:connector-curvature="0"
   style="fill:#ffffff;stroke-width:0.65555948"
   inkscape:transform-center-x="9.0608412"
   inkscape:transform-center-y="-0.58994466" /><path
   id="path1802"
   class="st0"
   d="m 27.978254,34.259318 h 3.443526 v -0.509193 h -2.903363 v -1.973108 h 1.823038 v -0.509193 h -1.823038 v -1.845796 h 2.700798 v -0.509212 h -3.240961 z"
   inkscape:connector-curvature="0"
   style="fill:#ffffff;stroke-width:0.65555948"
   inkscape:transform-center-x="7.6941925"
   inkscape:transform-center-y="-0.59836695" /><path
   id="path1804"
   class="st0"
   d="m 40.942109,34.259318 v -5.346502 h -0.472642 l -1.75552,3.882588 c -0.06752,0.127442 -0.06752,0.19094 -0.135047,0.318252 -0.06752,-0.127441 -0.06752,-0.190958 -0.135048,-0.318252 L 36.68833,28.912816 h -0.472643 v 5.346502 h 0.54016 v -3.627963 -0.254624 c 0.06752,0.127442 0.06752,0.190978 0.135047,0.318271 l 1.620482,3.755275 1.755525,-3.755275 c 0.06752,-0.127442 0.135048,-0.190959 0.135048,-0.318271 v 0.318271 3.627982 h 0.54016 z"
   inkscape:connector-curvature="0"
   style="fill:#ffffff;stroke-width:0.65555948"
   inkscape:transform-center-x="5.3449888"
   inkscape:transform-center-y="-0.57310481" /><path
   id="path1806"
   class="st0"
   d="m 42.697632,34.259318 h 3.443527 v -0.509193 h -2.835845 v -1.973108 h 1.82304 v -0.509193 h -1.82304 v -1.845796 h 2.633282 v -0.509212 h -3.240964 z"
   inkscape:connector-curvature="0"
   style="fill:#ffffff;stroke-width:0.65555948"
   inkscape:transform-center-x="3.7996906"
   inkscape:transform-center-y="-0.59836695" /><path
   id="path1808"
   class="st0"
   d="m 49.044518,34.38663 c 1.012805,0 1.823044,-0.509193 1.823044,-1.463932 0,-1.018368 -0.877761,-1.463934 -1.620483,-1.718521 -0.675203,-0.254606 -1.282878,-0.509175 -1.282878,-1.082034 0,-0.445546 0.405119,-0.763762 1.080317,-0.763762 0.540164,0 0.945283,0.254569 1.080321,0.509175 l 0.540168,-0.190959 c -0.135048,-0.509175 -0.742723,-0.827428 -1.552965,-0.827428 -1.080323,0 -1.688005,0.572859 -1.688005,1.272974 0,0.891075 0.877759,1.272974 1.688005,1.591227 0.675194,0.254606 1.282879,0.57284 1.282879,1.272974 0,0.636506 -0.472637,0.95474 -1.215364,0.95474 -0.675199,0 -1.147838,-0.318234 -1.3504,-0.76378 l -0.675199,0.127442 c 0.270079,0.57284 0.945281,1.082033 1.89056,1.082033 z"
   inkscape:connector-curvature="0"
   style="fill:#ffffff;stroke-width:0.65555948"
   inkscape:transform-center-x="2.5848921"
   inkscape:transform-center-y="-0.58992488" /><path
   id="path1810"
   class="st0"
   d="m 55.661489,34.259318 h 0.540162 v -5.346502 h -0.540162 v 2.291361 h -2.768325 v -2.291361 h -0.540163 v 5.346502 h 0.540163 V 31.71337 h 2.768325 z"
   inkscape:connector-curvature="0"
   style="fill:#ffffff;stroke-width:0.65555948"
   inkscape:transform-center-x="1.191447"
   inkscape:transform-center-y="-0.59836695" /><path
   id="path1812"
   class="st0"
   d="m 63.358769,34.38663 c 1.755531,0 2.36321,-1.463932 2.36321,-2.736907 0,-1.336639 -0.607679,-2.736907 -2.36321,-2.736907 -1.755516,0 -2.363195,1.463915 -2.363195,2.736907 0,1.272975 0.607679,2.736907 2.363195,2.736907 z m 0,-0.509193 c -1.28287,0 -1.755516,-1.14568 -1.755516,-2.29136 0,-1.082034 0.472646,-2.291343 1.755516,-2.291343 1.282895,0 1.755531,1.145662 1.755531,2.291343 0,1.082015 -0.472636,2.29136 -1.755531,2.29136 z"
   inkscape:connector-curvature="0"
   style="fill:#ffffff;stroke-width:0.65555948"
   inkscape:transform-center-x="-1.2113541"
   inkscape:transform-center-y="-0.58152473" /><path
   id="path1814"
   class="st0"
   d="m 67.139898,28.912816 v 5.346502 h 2.025607 c 1.417923,0 1.823043,-0.76378 1.823043,-1.527561 0,-0.763781 -0.472641,-1.14568 -1.080316,-1.33664 0.540158,-0.19094 0.877756,-0.572821 0.877756,-1.14568 0,-0.700115 -0.40512,-1.400268 -1.755531,-1.400268 h -1.890559 z m 1.755531,2.355008 h -1.215364 v -1.845796 h 1.350392 c 0.945282,0 1.147852,0.445528 1.147852,0.891056 0.06751,0.572859 -0.405125,0.95474 -1.28288,0.95474 z m 0.337597,2.545948 H 67.680065 V 31.71337 h 1.282885 c 1.147832,0 1.417918,0.509194 1.417918,1.082034 0.06751,0.509193 -0.202559,1.018368 -1.147842,1.018368 z"
   inkscape:connector-curvature="0"
   style="fill:#ffffff;stroke-width:0.65555948"
   inkscape:transform-center-x="-2.7209204"
   inkscape:transform-center-y="-0.60678687" /><path
   id="path1816"
   class="st0"
   d="m 73.959427,34.38663 c 1.012804,0 1.823043,-0.509193 1.823043,-1.463932 0,-1.018368 -0.877756,-1.463934 -1.620483,-1.718521 -0.675196,-0.254606 -1.282875,-0.509175 -1.282875,-1.082034 0,-0.445546 0.405119,-0.763762 1.080315,-0.763762 0.540168,0 0.945287,0.254569 1.080325,0.509175 l 0.540158,-0.190959 c -0.135028,-0.509175 -0.742717,-0.827428 -1.552961,-0.827428 -1.080325,0 -1.688,0.572859 -1.688,1.272974 0,0.891075 0.877766,1.272974 1.688,1.591227 0.675205,0.254606 1.28289,0.57284 1.28289,1.272974 0,0.636506 -0.472646,0.95474 -1.215364,0.95474 -0.675205,0 -1.147851,-0.318234 -1.350411,-0.76378 l -0.675196,0.127442 c 0.20256,0.57284 0.945287,1.082033 1.890559,1.082033 z"
   inkscape:connector-curvature="0"
   style="fill:#ffffff;stroke-width:0.65555948"
   inkscape:transform-center-x="-4.0071776"
   inkscape:transform-center-y="-0.58992488" /><path
   id="path1818"
   class="st0"
   d="m 77.200398,34.259318 h 3.443519 v -0.509193 h -2.83584 v -1.973108 h 1.82304 v -0.509193 h -1.82304 v -1.845796 h 2.63328 v -0.509212 h -3.240959 z"
   inkscape:connector-curvature="0"
   style="fill:#ffffff;stroke-width:0.65555948"
   inkscape:transform-center-x="-5.3291646"
   inkscape:transform-center-y="-0.59836695" /><path
   id="path1820"
   class="st0"
   d="m 81.994317,34.259318 h 0.54016 V 31.90433 h 1.28288 l 1.21536,2.418654 h 0.60769 l -1.28288,-2.418654 c 1.0128,-0.127443 1.41792,-0.827447 1.41792,-1.463934 0,-0.700152 -0.40512,-1.463933 -1.75552,-1.463933 h -2.09313 z m 0.60768,-2.864201 v -1.973089 h 1.55297 c 0.94528,0 1.21536,0.572822 1.21536,1.018368 0,0.509175 -0.27008,0.954721 -1.21536,0.954721 z"
   inkscape:connector-curvature="0"
   style="fill:#ffffff;stroke-width:0.65555948"
   inkscape:transform-center-x="-6.6332863"
   inkscape:transform-center-y="-0.58152448" /><path
   id="path1822"
   class="st0"
   d="m 88.813847,34.259318 h 0.40512 l 1.95809,-5.346502 h -0.60769 l -1.3504,4.009882 c -0.0675,0.127441 -0.13503,0.318253 -0.13503,0.445546 -0.0675,-0.19094 -0.13505,-0.318234 -0.13505,-0.445546 l -1.41792,-4.009882 h -0.60768 z"
   inkscape:connector-curvature="0"
   style="fill:#ffffff;stroke-width:0.65555948"
   inkscape:transform-center-x="-8.0088686"
   inkscape:transform-center-y="-0.59836695" /><path
   id="path1824"
   class="st0"
   d="m 95.228257,34.259318 h 0.60768 l -1.95808,-5.346502 h -0.40512 l -1.95808,5.346502 h 0.60768 l 0.47264,-1.400267 h 2.22816 z m -0.6752,-1.845814 h -1.89056 l 0.81024,-2.164067 c 0.0675,-0.127442 0.13505,-0.381881 0.13505,-0.509193 0,0.127442 0.13504,0.381899 0.13504,0.509193 z"
   inkscape:connector-curvature="0"
   style="fill:#ffffff;stroke-width:0.65555948"
   inkscape:transform-center-x="-9.2326006"
   inkscape:transform-center-y="-0.59836695" /><path
   id="path1826"
   class="st0"
   d="m 96.983777,28.912816 v 5.346502 h 2.025602 c 1.417921,0 1.823051,-0.76378 1.823051,-1.527561 0,-0.763781 -0.47265,-1.14568 -1.080321,-1.33664 0.540161,-0.19094 0.877761,-0.572821 0.877761,-1.14568 0,-0.700115 -0.40513,-1.400268 -1.755521,-1.400268 h -1.890572 z m 1.75554,2.355008 h -1.14786 v -1.845796 h 1.350412 c 0.94528,0 1.147841,0.445528 1.147841,0.891056 0,0.572859 -0.472641,0.95474 -1.350393,0.95474 z m 0.405102,2.545948 H 97.591457 V 31.71337 h 1.282892 c 1.147831,0 1.417921,0.509194 1.417921,1.082034 0,0.509193 -0.27009,1.018368 -1.147851,1.018368 z"
   inkscape:connector-curvature="0"
   style="fill:#ffffff;stroke-width:0.65555948"
   inkscape:transform-center-x="-10.617112"
   inkscape:transform-center-y="-0.60678687" /><path
   id="path1828"
   class="st0"
   d="m 102.25034,34.259318 h 0.54017 v -5.346502 h -0.54017 z"
   inkscape:connector-curvature="0"
   style="fill:#ffffff;stroke-width:0.65555948"
   inkscape:transform-center-x="-11.572872"
   inkscape:transform-center-y="-0.59836695" /><path
   id="path1830"
   class="st0"
   d="m 104.47852,34.259318 h 3.37599 v -0.509193 h -2.83584 v -4.837309 h -0.54015 z"
   inkscape:connector-curvature="0"
   style="fill:#ffffff;stroke-width:0.65555948"
   inkscape:transform-center-x="-12.537568"
   inkscape:transform-center-y="-0.59836695" /><path
   id="path1832"
   class="st0"
   d="m 109.00235,34.259318 h 0.54017 v -5.346502 h -0.54017 z"
   inkscape:connector-curvature="0"
   style="fill:#ffffff;stroke-width:0.65555948"
   inkscape:transform-center-x="-13.359343"
   inkscape:transform-center-y="-0.59836695" /><path
   id="path1834"
   class="st0"
   d="m 113.05357,29.422028 h 1.55296 v -0.509212 h -3.71361 v 0.509212 h 1.55296 v 4.83729 h 0.54017 z"
   inkscape:connector-curvature="0"
   style="fill:#ffffff;stroke-width:0.65555948"
   inkscape:transform-center-x="-14.279377"
   inkscape:transform-center-y="-0.59836695" /><path
   id="path1836"
   class="st0"
   d="m 117.30732,34.259318 h 0.54017 v -2.100401 l 1.82304,-3.246101 h -0.60769 l -1.55295,2.736907 -1.48545,-2.736907 h -0.60766 l 1.82303,3.246101 z"
   inkscape:connector-curvature="0"
   style="fill:#ffffff;stroke-width:0.65555948"
   inkscape:transform-center-x="-15.54777"
   inkscape:transform-center-y="-0.59836695" /></svg>