<svg xmlns="http://www.w3.org/2000/svg" width="80mm" height="7mm" viewBox="0 0 80 7"><path class="st0" d="M21.14 138.905c.545 0 .982-.274.982-.789 0-.549-.473-.79-.874-.926-.364-.138-.691-.275-.691-.584 0-.24.218-.411.582-.411.291 0 .51.137.583.274l.218-.103c-.073-.24-.4-.446-.837-.446-.583 0-.91.309-.91.686 0 .48.473.687.91.858.364.137.691.309.691.686 0 .343-.254.515-.655.515-.364 0-.619-.172-.728-.412l-.291.069c.11.309.51.583 1.02.583zM22.886 138.837h1.857v-.275h-1.53v-1.064h.984v-.274h-.983v-.995h1.42v-.275h-1.748zM25.507 138.837h.291v-1.27h.692l.655 1.304h.327l-.691-1.304c.546-.069.764-.446.764-.79 0-.377-.218-.788-.946-.788H25.47v2.848zm.291-1.544v-1.064h.837c.51 0 .655.309.655.549 0 .274-.145.515-.655.515zM29.183 138.837h.218l1.056-2.883h-.328l-.728 2.162a.609.609 0 0 0-.072.24c-.037-.103-.073-.171-.073-.24l-.764-2.162h-.364zM31.076 138.837h.291v-2.883h-.291zM33.405 138.905c.546 0 .837-.274.983-.514l-.255-.103c-.145.205-.327.377-.691.377-.656 0-.947-.583-.947-1.235 0-.583.255-1.235.947-1.235.364 0 .546.171.655.343l.255-.138c-.182-.24-.4-.48-.947-.48-.873 0-1.274.72-1.274 1.475 0 .755.364 1.51 1.274 1.51zM35.116 138.837h1.856v-.275h-1.565v-1.064h.983v-.274h-.983v-.995h1.456v-.275h-1.747zM42.104 138.837v-2.883h-.254l-.947 2.093c-.036.07-.036.103-.073.172-.036-.069-.036-.103-.072-.172l-.947-2.093h-.255v2.883h.292v-2.093c.036.068.036.103.072.171l.874 2.024.946-2.024c.037-.069.073-.103.073-.171v2.127h.291zM43.05 138.837h1.857v-.275h-1.529v-1.064h.983v-.274h-.983v-.995h1.42v-.275H43.05zM46.472 138.905c.546 0 .983-.274.983-.789 0-.549-.473-.79-.874-.926-.364-.138-.691-.275-.691-.584 0-.24.218-.411.582-.411.291 0 .51.137.582.274l.292-.103c-.073-.274-.4-.446-.837-.446-.583 0-.91.309-.91.686 0 .48.473.687.91.858.363.137.691.309.691.686 0 .343-.255.515-.655.515-.364 0-.619-.172-.728-.412l-.364.069c.146.309.51.583 1.02.583zM50.04 138.837h.29v-2.883h-.29v1.236h-1.493v-1.236h-.291v2.883h.29v-1.373h1.493zM54.188 138.905c.947 0 1.274-.789 1.274-1.475 0-.72-.327-1.476-1.274-1.476-.946 0-1.273.79-1.273 1.476 0 .686.327 1.475 1.273 1.475zm0-.274c-.691 0-.946-.618-.946-1.236 0-.583.255-1.235.946-1.235.692 0 .947.618.947 1.235 0 .584-.255 1.236-.947 1.236zM56.227 135.954v2.883h1.092c.764 0 .982-.412.982-.824s-.254-.618-.582-.72c.291-.103.473-.31.473-.618 0-.377-.218-.755-.946-.755h-1.02zm.946 1.27h-.655v-.995h.728c.51 0 .619.24.619.48.036.31-.219.515-.692.515zm.182 1.372h-.837v-1.132h.691c.62 0 .765.275.765.583.036.275-.11.55-.619.55zM59.903 138.905c.546 0 .983-.274.983-.789 0-.549-.473-.79-.874-.926-.364-.138-.691-.275-.691-.584 0-.24.218-.411.582-.411.291 0 .51.137.582.274l.291-.103c-.072-.274-.4-.446-.837-.446-.582 0-.91.309-.91.686 0 .48.474.687.91.858.364.137.692.309.692.686 0 .343-.255.515-.655.515-.364 0-.619-.172-.728-.412l-.364.069c.109.309.51.583 1.019.583zM61.65 138.837h1.856v-.275h-1.528v-1.064h.982v-.274h-.982v-.995h1.42v-.275H61.65zM64.234 138.837h.291v-1.27h.692l.655 1.304h.328l-.692-1.304c.546-.069.765-.446.765-.79 0-.377-.219-.788-.947-.788h-1.128zm.328-1.544v-1.064h.837c.51 0 .655.309.655.549 0 .274-.145.515-.655.515zM67.91 138.837h.219l1.055-2.883h-.327l-.728 2.162a.61.61 0 0 0-.073.24c-.036-.103-.073-.171-.073-.24l-.764-2.162h-.328zM71.368 138.837h.328l-1.056-2.883h-.218l-1.056 2.883h.328l.255-.755h1.2zm-.364-.995h-1.019l.437-1.167a.77.77 0 0 0 .073-.275c0 .07.073.206.073.275zM72.315 135.954v2.883h1.092c.764 0 .982-.412.982-.824s-.254-.618-.582-.72c.291-.103.473-.31.473-.618 0-.377-.218-.755-.946-.755h-1.02Zm.946 1.27h-.619v-.995h.728c.51 0 .619.24.619.48 0 .31-.255.515-.728.515zm.218 1.372h-.837v-1.132h.692c.619 0 .764.275.764.583 0 .275-.145.55-.619.55zM75.154 138.837h.29v-2.883h-.29zM76.355 138.837h1.82v-.275h-1.529v-2.608h-.291zM78.793 138.837h.292v-2.883h-.292zM80.977 136.229h.838v-.275h-2.002v.275h.837v2.608h.291zM83.27 138.837h.292v-1.133l.982-1.75h-.327l-.837 1.476-.801-1.476h-.328l.983 1.75z" style="fill:#fff;stroke-width:.35339135" transform="translate(-4.853 -132.813)"/><path class="st1" d="M14.1 2.4c0-.4.2-.6.6-.6.4 0 .6.2.6.6v2.8l1.4-1.5c.1-.1.3-.2.5-.2.3 0 .6.2.6.6 0 .2-.1.3-.2.4l-.9 1L18 7.2c.1.1.1.3.1.4 0 .3-.3.6-.6.6s-.5-.2-.6-.3l-1.2-1.7-.4.4v.9c0 .4-.2.6-.6.6-.4 0-.6-.2-.6-.6zM19 1.7c.4 0 .6.3.6.6 0 .4-.2.7-.6.7-.4 0-.6-.3-.6-.6-.1-.4.2-.7.6-.7zm-.6 2.4c0-.3.1-.6.6-.6s.6.3.6.6v3.4c0 .3-.1.6-.6.6s-.6-.3-.6-.6zM24.3 6.8c0 .5.1.6.1.8 0 .3-.3.5-.6.5-.5 0-.7-.3-.7-.7-.5.5-1 .7-1.7.7S20 7.6 20 6.8c0-1 .8-1.3 1.7-1.4l.8-.1c.3 0 .5-.1.5-.5s-.4-.5-.8-.5c-.9 0-.9.7-1.4.7-.3 0-.5-.2-.5-.5 0-.5.7-1.1 2-1.1 1.2 0 2 .4 2 1.3zm-1.2-.9c-.1.1-.4.2-.5.2l-.5.1c-.5.1-.8.2-.8.6 0 .3.3.5.7.5.7 0 1.1-.4 1.1-.9zM24.9 2.4c0-.4.2-.6.6-.6.4 0 .6.2.6.6v5.1c0 .4-.2.6-.6.6-.4 0-.6-.2-.6-.6zM27.4 1.7c.4 0 .6.3.6.6 0 .4-.3.6-.6.6-.4 0-.6-.3-.6-.6s.3-.6.6-.6zm-.6 2.4c0-.3.1-.6.6-.6s.6.3.6.6v3.4c0 .3-.1.6-.6.6s-.6-.3-.6-.6zM7.8 0C5.4 0 3.5 1.9 3.5 4.3s1.9 4.3 4.3 4.3 4.2-2 4.2-4.3S10.1 0 7.8 0Zm0 7.9c-2 0-3.6-1.6-3.6-3.6S5.8.7 7.8.7s3.6 1.6 3.6 3.6-1.6 3.6-3.6 3.6z" style="fill:#d7f7ff" transform="matrix(.49424 0 0 .4659 -.06 2.051)"/><path class="st2" d="M6.3 1c-1.8.8-2.7 3-1.8 4.8.4.8 1 1.5 1.8 1.8 1.8-1.6 2-4.4.4-6.3-.1-.1-.3-.2-.4-.3Z" style="fill:#0093dd" transform="matrix(.49424 0 0 .4659 -.06 2.051)"/><path class="st2" d="M3.5 4.3c0-1 .3-1.9 1-2.7-.4-.2-.8-.3-1.3-.3-1.6 0-2.9 1.3-2.9 3s1.3 3 2.9 3c.4 0 .8-.1 1.2-.3-.6-.8-.9-1.7-.9-2.7Z" style="fill:#0093dd" transform="matrix(.49424 0 0 .4659 -.06 2.051)"/></svg>