<?xml version="1.0" encoding="UTF-8" standalone="no"?>
<svg
   xmlns:dc="http://purl.org/dc/elements/1.1/"
   xmlns:cc="http://creativecommons.org/ns#"
   xmlns:rdf="http://www.w3.org/1999/02/22-rdf-syntax-ns#"
   xmlns:svg="http://www.w3.org/2000/svg"
   xmlns="http://www.w3.org/2000/svg"
   xmlns:sodipodi="http://sodipodi.sourceforge.net/DTD/sodipodi-0.dtd"
   xmlns:inkscape="http://www.inkscape.org/namespaces/inkscape"
   role="img"
   viewBox="0 0 24 24"
   version="1.1"
   id="svg1113"
   sodipodi:docname="mesh-logo-jaeger.svg"
   inkscape:version="1.0.2 (e86c870879, 2021-01-15)">
  <metadata
     id="metadata1119">
    <rdf:RDF>
      <cc:Work
         rdf:about="">
        <dc:format>image/svg+xml</dc:format>
        <dc:type
           rdf:resource="http://purl.org/dc/dcmitype/StillImage" />
        <dc:title>Jaeger</dc:title>
      </cc:Work>
    </rdf:RDF>
  </metadata>
  <defs
     id="defs1117" />
  <sodipodi:namedview
     pagecolor="#ffffff"
     bordercolor="#666666"
     borderopacity="1"
     objecttolerance="10"
     gridtolerance="10"
     guidetolerance="10"
     inkscape:pageopacity="0"
     inkscape:pageshadow="2"
     inkscape:window-width="1920"
     inkscape:window-height="983"
     id="namedview1115"
     showgrid="false"
     inkscape:zoom="34.166667"
     inkscape:cx="6.2341463"
     inkscape:cy="12"
     inkscape:window-x="0"
     inkscape:window-y="27"
     inkscape:window-maximized="1"
     inkscape:current-layer="svg1113" />
  <title
     id="title1109">Jaeger</title>
  <path
     d="m 13.408018,17.188686 c 0,0.0362 -0.06415,0.06555 -0.14325,0.06555 -0.07905,0 -0.1432,-0.02935 -0.1432,-0.0655 0,-0.03625 0.06415,-0.06555 0.1432,-0.06555 0.0791,0 0.14325,0.0293 0.14325,0.0655 z m -0.369,0.0777 c 0,0.0375 -0.063,0.068 -0.14075,0.068 -0.07775,0 -0.1408,-0.0305 -0.1408,-0.068 0,-0.0375 0.063,-0.068 0.1408,-0.068 0.07775,0 0.1408,0.0305 0.1408,0.068 z m -0.37135,0.0704 c 0,0.03485 -0.08695,0.0631 -0.1942,0.0631 -0.10725,0 -0.1942,-0.02825 -0.1942,-0.0631 0,-0.03485 0.087,-0.06315 0.1942,-0.06315 0.10725,0 0.1942,0.0283 0.1942,0.06315 z m -0.568,0.0558 c 0,0.04425 -0.07935,0.0801 -0.1772,0.0801 -0.09785,0 -0.1772,-0.03585 -0.1772,-0.0801 0,-0.04425 0.07935,-0.0801 0.1772,-0.0801 0.09785,0 0.1772,0.03585 0.1772,0.0801 z m -0.59715,0.01945 c 0,0.04825 -0.11845,0.08735 -0.26455,0.08735 -0.14615,0 -0.2646,-0.0391 -0.2646,-0.08735 0,-0.0483 0.1185,-0.0874 0.2646,-0.0874 0.1461,0 0.26455,0.0391 0.26455,0.0874 z m 0.5535,-0.43935 c 0.3058,-0.0146 0.3859,-0.0607 0.3956,-0.16265 0,0 0.0607,-0.07525 -0.14565,-0.1165 -0.2063,-0.0413 -0.4976,-0.0413 -0.4466,-0.20635 0.051,-0.1675 0.5777,-0.1966 0.89325,-0.1966 0.31555,0 0.67235,-0.0194 0.62625,0.1505 -0.0437,0.1699 -0.2743,0.17235 -0.25485,0.2864 0.0194,0.1141 0.20875,0.0801 0.17475,0.25975 -0.034,0.1796 -0.8714,0.24515 -1.4637,0.29615 -0.58985,0.051 -0.96605,-0.0098 -0.8714,-0.16995 0.09465,-0.1602 0.7865,-0.1262 1.0923,-0.14075 z m -4.9846499,0.53775 c 0.0033,0.0225 -0.064,0.051 -0.1502,0.0635 -0.0862,0.01255 -0.1588,0.0044 -0.16205,-0.0181 -0.0033,-0.0226 0.064,-0.051 0.1502,-0.06355 0.08625,-0.0125 0.1588,-0.0044 0.16205,0.01815 z m 0.0459,0.113 c 0.00385,0.0265 -0.0737,0.05975 -0.1732,0.0742 -0.0995,0.0145 -0.18325,0.0047 -0.1871,-0.02185 -0.0039,-0.0265 0.07365,-0.05975 0.17315,-0.07425 0.0995,-0.01445 0.1833,-0.0046 0.18715,0.0219 z m 0.0824,0.102 c 0.00385,0.0265 -0.07365,0.0597 -0.17315,0.0742 -0.0995,0.01445 -0.1833,0.0047 -0.18715,-0.02185 -0.00385,-0.02655 0.07365,-0.0598 0.17315,-0.07425 0.0995,-0.0145 0.1833,-0.0047 0.18715,0.02185 z m 0.36935,0.057 c 0.0043,0.0319 -0.07505,0.069 -0.17735,0.083 -0.1023,0.0139 -0.1887,-6.5e-4 -0.19305,-0.0325 -0.00435,-0.0319 0.075,-0.069 0.1773,-0.083 0.1023,-0.0139 0.18875,6.5e-4 0.1931,0.0325 z m 0.59015,0.06545 c 0.0033,0.0414 -0.1197,0.085 -0.2747,0.09735 -0.155,0.01235 -0.28335,-0.01125 -0.28665,-0.05265 -0.0033,-0.04145 0.1197,-0.085 0.2747,-0.09735 0.155,-0.01235 0.28335,0.0112 0.28665,0.05265 z m 0.5963,5.5e-4 c 0.0091,0.0419 -0.1003,0.1013 -0.2444,0.13265 -0.1441,0.03135 -0.2683,0.0228 -0.2774,-0.0191 -0.0091,-0.04195 0.1003,-0.10135 0.2444,-0.1327 0.1441,-0.03135 0.2683,-0.02275 0.2774,0.01915 z m 0.62315,-1.01655 c 0.1772,-0.03885 0.9927999,-0.0194 1.0145999,0.1238 0.0267,0.14565 -1.3349999,0.27185 -1.6432999,0.3155 -0.30825,0.04375 -0.3204,0.1311 -0.3204,0.1311 0,0.0073 -0.0267,0.0777 0.17475,0.07525 0.2816,-0.0049 0.4782,0.0534 0.3617,0.18935 -0.1165,0.13595 -1.40545,0.0995 -1.67,0 -0.2646,-0.0995 -0.1602,-0.199 -0.0243,-0.25 0.13595,-0.04855 0.5219,-0.0947 0.9685,-0.17965 0.44665,-0.08495 0.9637,-0.3641 1.13845,-0.40535 z m 3.3958499,-4.86685 a 0.32285,0.32285 0 1 1 -0.6457,0 0.32285,0.32285 0 0 1 0.6457,0 z m -3.1166999,0.75495 a 0.32285,0.32285 0 1 1 -0.6457,0 0.32285,0.32285 0 0 1 0.6457,0 z m -1.49525,3.2915 c -0.1772,0 -0.301,-0.07045 -0.37865,-0.2088 -0.03155,-0.0534 -0.051,-0.11895 -0.06555,-0.1869 -0.03155,-0.1675 -0.02185,-0.3641 0.01455,-0.5486 0.04125,-0.2063 0.1141,-0.39805 0.19175,-0.51945 0.0704,-0.11165 0.13595,-0.1845 0.1942,-0.233 a 25.305,25.305 0 0 0 0.25975,0.66025 c 0.1189,0.2937 0.22815,0.5534 0.30825,0.7379 -0.00485,0.0097 -0.01215,0.017 -0.0194,0.0267 -0.1165,0.15535 -0.27915,0.27185 -0.5049,0.27185 z m 7.5077499,-1.0972 c 0,0.0073 0.0024,0.0194 0.0098,0.0364 0.0267,0.14565 0.1165,0.5389 0.17715,0.7646 -0.9321,0.1044 -2.25255,0.16995 -3.71625,0.16995 -1.23795,0 -2.3739499,-0.04615 -3.2574999,-0.1238 a 43.23,43.23 0 0 1 -0.3374,-0.8035 c -0.2985,-0.72815 -0.6651,-1.69665 -0.77915,-2.28895 -0.1044,-0.54615 -0.2306,-1.2088 0.05825,-1.80595 a 14.2841,14.2841 0 0 1 -0.1651,-0.01455 c -0.6845,-0.0728 -0.77675,-0.20635 -0.81315,-0.26215 -0.03885,-0.05585 -0.04615,-0.12135 -0.01945,-0.1869 0.0607,-0.15295 0.267,-0.2913 0.5073,-0.4053998 a 2.514,2.514 0 0 0 0.068,0.1407998 c -0.2185,0.1044 -0.3884,0.216 -0.42965,0.32285 -0.0097,0.02185 -0.00485,0.03155 0.00245,0.0437 0.034,0.0485 0.23055,0.199 1.3423,0.23545 a 0.3158,0.3158 0 0 1 -0.25,-0.2525 0.317,0.317 0 0 1 0.0291,-0.19655 c -0.10195,0.0534 -0.2039,0.1165 -0.301,0.182 0,0 -0.8277,-1.0873998 -0.23545,-1.4466498 0.068,-0.0413 0.1335,-0.0607 0.19905,-0.0607 0.4952,0 0.8617,1.0801498 0.8617,1.0801498 0,0 -0.0728,0.0267 -0.1796,0.07525 0.13105,0.01215 0.3908,0.07285 0.9151,0.284 0.534,0.21605 0.7475999,0.2306 0.8058999,0.2306 a 0.3125,0.3125 0 0 1 0.3374,0.03885 l 0.017,0.017 a 11.4425,11.4425 0 0 0 0.22815,-0.01945 c 0.02425,-0.0024 0.0558,-0.0097 0.0971,-0.0194 a 0.31385,0.31385 0 0 1 0.1432,-0.2913 0.30965,0.30965 0 0 1 0.3665,0.02185 0.217,0.217 0 0 0 0.0437,-0.017 c 0.13595,-0.06795 0.61655,-0.5800998 0.97825,-1.0169998 a 0.308,0.308 0 0 1 0.30585,-0.10685 c 0.09705,-0.32765 0.48545,-1.48795 1.0777,-1.48795 0.6894,0 0.28885,1.36415 0.2209,1.46125 0,0 -0.1602,-0.0121 -0.37865,-0.0121 -0.24275,0 -0.5583,0.0145 -0.8156,0.0825 0.0073,0.00485 0.017,0.01215 0.0267,0.01945 0.1335,0.1092 0.1505,0.30585 0.04125,0.43935 -0.05825,0.06795 -0.1335,0.1602 -0.22085,0.2596998 0.1796,-0.0728 0.3665,-0.1528998 0.5534,-0.2329998 0.31315,-0.1384 0.60445,-0.2695 0.8617,-0.3957 h 0.0049 l 0.0024,-0.00485 c 0.2209,-0.1068 0.41995,-0.20875 0.5874,-0.3034 0.585,-0.3277 0.65785,-0.4709 0.6651,-0.5073 0.0049,-0.0243 0,-0.03155 -0.0024,-0.034 -0.0048,-0.0097 -0.04615,-0.0485 -0.2306,-0.0485 -0.2015,0 -0.48305,0.0461 -0.77675,0.1092 a 1.9245,1.9245 0 0 0 0.01455,-0.16265 c 0.28645,-0.05825 0.5607,-0.10195 0.7646,-0.10195 0.1845,0 0.29615,0.034 0.3544,0.1068 0.0267,0.03155 0.0534,0.0874 0.034,0.1675 -0.02185,0.09465 -0.1214,0.2597 -0.74035,0.60685 a 4.33115,4.33115 0 0 1 -0.1869,0.10195 c -0.0461,0.0267 -0.0971,0.051 -0.14805,0.07765 0.2791,0.2355 0.4879,0.5874 0.61895,1.0971498 0.2646,1.0195 0.4685,2.21375 0.60925,3.1604 -0.2306,0.02915 -0.37135,0.13835 -0.4005,0.31555 -0.03155,0.1918 0.068,0.29615 0.17235,0.4078 0.11165,0.11895 0.2403,0.2525 0.28155,0.55345 z m -2.42,-6.1654998 c 0,0.0122 0.0024,0.00975 0.0024,0.00975 0,0 0.0121,-0.02185 0.0315,-0.05825 0.0219,-0.0364 0.051,-0.0874 0.085,-0.14805 0.0364,-0.0607 0.07765,-0.12865 0.12865,-0.18935 0.02425,-0.02915 0.0534,-0.05825 0.0825,-0.0801 0.0316,-0.02185 0.0607,-0.0364 0.09225,-0.04125 0.0097,0 0.017,-0.00245 0.0243,-0.00245 0.0072,0.00245 0.017,0 0.02425,0.00245 0.0073,0.0024 0.017,0.0024 0.0243,0.00485 l 0.0194,0.00485 0.0048,0.0024 c 0,0.00245 0.0025,0.00245 0.0025,0.00485 0.0048,0.0073 0.0072,0.02185 0.0097,0.03885 0,0.034 -0.0024,0.07525 -0.0097,0.11165 -0.0049,0.03645 -0.0146,0.07285 -0.02185,0.1068 -0.017,0.068 -0.03155,0.1238 -0.0413,0.1651 -0.0121,0.04125 -0.017,0.0655 -0.017,0.0655 0,0 0.017,-0.017 0.0437,-0.051 0.0267,-0.0315 0.0607,-0.0825 0.0971,-0.1456 0.017,-0.03155 0.03645,-0.068 0.051,-0.10925 0.01455,-0.04125 0.0291,-0.08735 0.034,-0.14075 0.0024,-0.0267 0.0024,-0.05825 -0.0098,-0.09225 -0.0024,-0.0097 -0.0073,-0.017 -0.0121,-0.0267 l -0.0073,-0.01215 -0.0097,-0.01215 c -0.0097,-0.0145 -0.04855,-0.0388 -0.051,-0.0388 l -0.0049,-0.00245 h -0.0024 l -0.0073,-0.0024 h -0.0025 l -0.0097,-0.00485 -0.02185,-0.0073 c -0.0121,-0.00485 -0.0291,-0.0073 -0.0437,-0.0097 -0.0145,-0.00245 -0.0315,-0.00245 -0.0461,-0.00245 -0.01455,0.00245 -0.03155,0.00245 -0.0461,0.00485 a 0.3422,0.3422 0 0 0 -0.1602,0.0777 c -0.0437,0.0364 -0.07525,0.07765 -0.102,0.11895 -0.05095,0.0825 -0.08005,0.165 -0.0995,0.23545 -0.017,0.0728 -0.0267,0.1335 -0.0291,0.17475 -0.0024,0.0194 -0.0024,0.0364 -0.0024,0.0485 z m -2.1434,1.7889998 c -0.0437,0.0267 -0.0558,0.0825 -0.0315,0.1262 0.0073,0.0098 0.0461,0.06555 0.1286,0.0971 a 0.3535,0.3535 0 0 0 0.12625,0.02185 c 0.0728,0 0.1529,-0.0194 0.23545,-0.0558 0.1796,-0.0801 0.61895,-0.52435 1.1214,-1.1287498 0.03155,-0.0388 0.0267,-0.0971 -0.0121,-0.12865 -0.02185,-0.017 -0.0437,-0.02185 -0.0583,-0.02185 a 0.0897,0.0897 0 0 0 -0.07035,0.034 c -0.21605,0.25975 -0.82775,0.9612498 -1.0462,1.0728998 l -0.0097,0.0048 c -0.0267,0.0097 -0.051,0.0194 -0.07525,0.0267 l -0.11165,0.03155 -0.08985,-0.0728 c -0.01455,-0.0146 -0.0364,-0.02185 -0.05825,-0.02185 a 0.0875,0.0875 0 0 0 -0.0485,0.0145 z m -0.52185,2.6142 c 0.0291,0.1675 0.2937,0.26215 0.59225,0.2136 0.29855,-0.0485 0.5195,-0.22575 0.49035,-0.39325 -0.02915,-0.1675 -0.29375,-0.26215 -0.5923,-0.2136 -0.29855,0.051 -0.517,0.2282 -0.4903,0.39325 z M 8.2086181,9.9746362 a 1.0005,1.0005 0 0 0 0.03645,0.0461 c 0,0 -0.00245,-0.0072 -0.00245,-0.017 -0.00245,-0.0097 -0.00245,-0.02425 -0.0073,-0.04365 -0.00485,-0.03885 -0.0194,-0.09225 -0.0388,-0.15535 a 1.2044,1.2044 0 0 0 -0.0874,-0.20875 0.9434,0.9434 0 0 0 -0.0704,-0.11165 c -0.0267,-0.03645 -0.05825,-0.07285 -0.10195,-0.1068 -0.02425,-0.0146 -0.0485,-0.0316 -0.0825,-0.0413 -0.0073,-0.0024 -0.017,-0.0024 -0.02675,-0.00485 h -0.0364 c -0.00485,0 -0.01455,0.00245 -0.017,0.00245 l -0.0145,0.00485 -0.00975,0.0024 -0.00245,0.00245 -0.00485,0.0024 a 0.16855,0.16855 0 0 0 -0.0801,0.068 0.22365,0.22365 0 0 0 -0.0267,0.08735 c -0.00485,0.0534 0.0073,0.0971 0.017,0.136 0.01215,0.0388 0.0267,0.0752 0.04125,0.10435 a 0.7465,0.7465 0 0 0 0.085,0.1359 c 0.0121,0.01455 0.0218,0.0267 0.0291,0.034 l 0.01215,0.01215 c 0,0 -0.00485,-0.02185 -0.01215,-0.0583 -0.0073,-0.0364 -0.0194,-0.0898 -0.0291,-0.1505 a 1.1452,1.1452 0 0 1 -0.01215,-0.09705 c -0.00245,-0.034 -0.00245,-0.068 0.00485,-0.0947 0.0024,-0.0121 0.0073,-0.02185 0.01215,-0.0267 0.00485,-0.0024 0.00725,-0.00485 0.0145,-0.00725 h 0.0049 l 0.0073,-0.00245 c 0.0024,0 0,0.00245 0,0.00245 h 0.0024 a 0.10225,0.10225 0 0 1 0.03155,0.017 c 0.0243,0.0194 0.051,0.0461 0.07525,0.0752 0.0267,0.0316 0.051,0.0607 0.07285,0.09225 0.04365,0.0631 0.08735,0.1238 0.1238,0.1748 a 2.5995,2.5995 0 0 0 0.0922,0.1262 z m 0.1772,0.5388498 0.017,0.0024 c 0.0655,0.0073 0.2767,0.0461 0.79615,0.25485 0.42725,0.17235 0.75005,0.25975 0.9563999,0.25975 0.15535,0 0.1966,-0.04855 0.21115,-0.0655 0.02185,-0.02675 0.0243,-0.05345 0.02185,-0.068 -0.0024,-0.01455 -0.0072,-0.04125 -0.034,-0.0631 -0.0218,-0.017 -0.04365,-0.02185 -0.0582,-0.02185 -0.0146,0 -0.02915,0.0024 -0.0413,0.0097 l -0.0437,0.02185 h -0.05825 c -0.1238,0 -0.3810999,-0.04125 -0.8834999,-0.24515 -0.602,-0.24275 -0.8229,-0.2695 -0.88845,-0.2695 -0.01455,0 -0.0194,0 -0.0291,0.0025 -0.0316,0.0073 -0.051,0.02665 -0.0583,0.0388 -0.00725,0.0097 -0.0194,0.0364 -0.0145,0.068 0.00725,0.04365 0.0461,0.0752 0.08975,0.0752 z m 0.02185,1.84725 c 0,0.5631 0.45635,1.0219 1.0195,1.0195 0.56315,0 1.0194999,-0.4564 1.0194999,-1.0195 0,-0.56315 -0.4563499,-1.0195 -1.0194999,-1.0195 -0.56315,0 -1.0195,0.45635 -1.0195,1.0195 z m 2.7622999,1.68215 c -0.1335,0.051 -0.25,0.12375 -0.35195,0.1869 0.0243,0.1092 0.0995,0.3544 0.31555,0.29125 0.1772,-0.0534 0.07525,-0.3665 0.0364,-0.47815 z m 0.3107,0.3908 c 0.0583,0.02185 0.2889,0.04125 0.267,-0.2379 -0.0073,-0.0971 -0.0145,-0.16505 -0.0194,-0.2112 -0.02185,-0.0024 -0.04125,-0.0024 -0.06065,-0.0024 -0.068,0 -0.1311,-0.0024 -0.1845,-0.0024 -0.05585,0 -0.085,0.0024 -0.0971,0.0048 a 4.6523,4.6523 0 0 0 -0.07765,0.0146 c 0.0194,0.1262 0.0728,0.39805 0.1723,0.4345 z m 0.8933,-0.6894 c 0.216,-0.0971 0.216,-0.26215 0.2039,-0.3471 -0.0146,-0.0898 -0.1481,-0.27915 -0.6894,-0.284 0,0 -0.1675,0.3908 -0.6214,0.46365 -0.4539,0.07525 -0.6481,-0.01215 -0.72575,-0.10925 0,0 -0.43695,0.12865 -0.47335,0.40535 -0.0364,0.27675 0.33015,0.37385 0.5049,0.27675 0.17475,-0.0971 0.4369,-0.3083 0.7865,-0.3544 0.18685,-0.0243 0.79855,0.0461 1.0146,-0.051 z m 1.2355,-2.11665 c 0,-0.5631 -0.45635,-1.0195 -1.0195,-1.0195 -0.56315,0 -1.0195,0.4564 -1.0195,1.0195 0,0.56315 0.45635,1.0195 1.0195,1.0195 0.56315,0 1.0195,-0.45875 1.0195,-1.0195 z m -6.0513499,3.4711 c -0.02185,0.1335 -0.0364,0.30585 -0.01215,0.4782 -0.3301,-0.0704 -0.517,-0.1529 -0.517,-0.23785 0,-0.085 0.19175,-0.1675 0.52915,-0.24035 z m 9.2432999,0.01945 c 0.28645,0.068 0.4442,0.1432 0.4418,0.2209 0,0.1238 -0.3835,0.23785 -1.03165,0.32765 0.1165,-0.0315 0.2476,-0.1165 0.3981,-0.2573 0.07525,-0.07035 0.1335,-0.15535 0.17475,-0.25 a 0.2961,0.2961 0 0 0 0.017,-0.04125 z m -0.17475,-0.0364 a 0.52265,0.52265 0 0 1 -0.13835,0.19415 c -0.1942,0.1845 -0.3107,0.22335 -0.37625,0.22335 -0.12865,0 -0.2233,-0.17965 -0.27915,-0.5316 -0.0024,-0.0243 -0.0073,-0.04855 -0.0097,-0.0728 -0.04615,-0.34955 -0.20635,-0.5195 -0.32285,-0.64085 -0.10195,-0.1068 -0.1505,-0.16505 -0.13105,-0.2743 0.0267,-0.15775 0.21845,-0.19175 0.3738,-0.19175 0.0728,0 0.12865,0.0073 0.12865,0.0073 h 0.0097 c 0.2864,0.0048 0.585,0.26455 0.72575,0.62625 0.0777,0.199 0.10925,0.4515 0.01945,0.66025 z M 8.3542681,9.1808862 c -0.0534,-0.0728 -0.1068,-0.1335 -0.16265,-0.1796 -0.00485,-0.19905 -0.00485,-0.3787 0.0049,-0.44905 0.0194,-0.1311 0.34465,-0.5122 0.6481,-0.8035 0.25485,-0.24515 0.74275,-0.6675 1.1505,-0.75 0.06315,-0.01215 0.1359999,-0.01945 0.2209499,-0.01945 0.77675,0 2.34965,0.58255 2.4273,0.66025 l 0.0048,0.00485 c 0.01945,-0.18935 0.03885,-0.4539 0.0049,-0.52915 0,0 0.148,0.0461 0.17475,0.13835 0,0 0.3665,-0.369 0.3301,-0.8277 0,0 0.0825,0 0.09225,0.148 0,0 0.2646,-0.6262 0.45875,-0.5704 0.1942,0.05585 -0.0631,0.9297 -0.20145,1.09475 0,0 0.2209,-0.0534 0.2476,-0.2015 0,0 0.0267,0.1287 -0.0097,0.2015 0,0 0.4976,-0.40535 0.47815,-0.5607 0,0 0.06555,0.15775 0.04615,0.2767 0,0 0.41265,-0.3301 0.41265,-0.4685 0,0 0.0631,0.80105 -0.7355,1.09475 0,0 0.2112,-0.0267 0.31315,-0.0461 0,0 -0.0874,0.11405 -0.2209,0.2767 -0.0801,-0.051 -0.1748,-0.07525 -0.2816,-0.07525 -0.3204,0 -0.6141,0.24275 -0.8738,0.72095 0.0388,-0.20875 -0.0146,-0.3787 -0.09225,-0.3957 -0.0024,-0.0024 -0.0073,-0.0024 -0.01215,-0.0024 -0.0801,0 -0.1942,0.13835 -0.2403,0.3447 -0.04615,0.21845 0.0073,0.4029 0.0874,0.4199 0.0291,0.0073 0.0655,-0.0097 0.10195,-0.0437 -0.07525,0.17965 -0.1335,0.3471 -0.17235,0.46605 -1.988,0.8956998 -3.2526499,0.87635 -3.8279999,0.7865 -0.04125,-0.10685 -0.1165,-0.2889 -0.22085,-0.47095 -0.02915,-0.0485 -0.0583,-0.09705 -0.0874,-0.14075 1.38845,0.3738 3.2380499,-0.3253 3.9783999,-0.6481 -0.03885,-0.10925 -0.0437,-0.25 -0.0097,-0.403 0.03155,-0.148 0.0971,-0.27425 0.1772,-0.3592 -0.01455,-0.05825 -0.0267,-0.0995 -0.0364,-0.12135 -0.16995,-0.09225 -1.5778,-0.61655 -2.31325,-0.61655 -0.07285,0 -0.136,0.00725 -0.18935,0.017 -0.6504999,0.1335 -1.6384999,1.2646 -1.6748499,1.42485 -0.01215,0.07765 -0.0073,0.3398 0.0024,0.6068 z"
     id="path1111"
     style="stroke-width:0.5" />
</svg>
