<?xml version="1.0" encoding="UTF-8" standalone="no"?>
<svg
   xmlns:dc="http://purl.org/dc/elements/1.1/"
   xmlns:cc="http://creativecommons.org/ns#"
   xmlns:rdf="http://www.w3.org/1999/02/22-rdf-syntax-ns#"
   xmlns:svg="http://www.w3.org/2000/svg"
   xmlns="http://www.w3.org/2000/svg"
   xmlns:sodipodi="http://sodipodi.sourceforge.net/DTD/sodipodi-0.dtd"
   xmlns:inkscape="http://www.inkscape.org/namespaces/inkscape"
   height="257"
   preserveAspectRatio="xMidYMid"
   viewBox="0 0 256 257"
   width="256"
   version="1.1"
   id="svg4"
   sodipodi:docname="logo-prometheus-color.svg"
   inkscape:version="1.0.2 (e86c870879, 2021-01-15)">
  <metadata
     id="metadata10">
    <rdf:RDF>
      <cc:Work
         rdf:about="">
        <dc:format>image/svg+xml</dc:format>
        <dc:type
           rdf:resource="http://purl.org/dc/dcmitype/StillImage" />
      </cc:Work>
    </rdf:RDF>
  </metadata>
  <defs
     id="defs8" />
  <sodipodi:namedview
     pagecolor="#ffffff"
     bordercolor="#666666"
     borderopacity="1"
     objecttolerance="10"
     gridtolerance="10"
     guidetolerance="10"
     inkscape:pageopacity="0"
     inkscape:pageshadow="2"
     inkscape:window-width="1920"
     inkscape:window-height="983"
     id="namedview6"
     showgrid="false"
     inkscape:zoom="3.1906615"
     inkscape:cx="66.257317"
     inkscape:cy="115.96341"
     inkscape:window-x="0"
     inkscape:window-y="27"
     inkscape:window-maximized="1"
     inkscape:current-layer="svg4" />
  <path
     d="M 128.00056,64.66587 C 92.655519,64.66587 64,93.318001 64,128.66417 c 0,35.34505 28.655519,63.99944 64.00056,63.99944 35.34505,0 63.99944,-28.65439 63.99944,-63.99944 0,-35.346169 -28.65552,-63.9983 -63.99944,-63.9983 z m 0,119.78011 c -10.05631,0 -18.20956,-6.71776 -18.20956,-15.00202 h 36.41912 c 0,8.28314 -8.15325,15.00202 -18.20956,15.00202 z m 30.07633,-19.97031 H 97.920852 v -10.90789 h 60.157168 v 10.90789 z m -0.21572,-16.52222 H 98.092524 c -0.198777,-0.22927 -0.402072,-0.45515 -0.594073,-0.68781 -6.157571,-7.47673 -7.60774,-11.37999 -9.01612,-15.35779 -0.02372,-0.13101 7.466563,1.53037 12.778199,2.72528 0,0 2.73319,0.63247 6.72906,1.36095 -3.83663,-4.49733 -6.11466,-10.21443 -6.11466,-16.05803 0,-12.82902 9.83947,-24.039594 6.28972,-33.100891 3.45488,0.281224 7.15033,7.291503 7.39993,18.252481 3.67286,-5.0756 5.20998,-14.344705 5.20998,-20.027922 0,-5.884253 3.87729,-12.719473 7.7557,-12.953262 -3.45714,5.697899 0.89562,10.58262 4.765,22.700114 1.4513,4.551543 1.26607,12.21124 2.38645,17.06885 0.37158,-10.08906 2.10636,-24.809861 8.50676,-29.892229 -2.82354,6.400396 0.41788,14.409078 2.63492,18.259259 3.57686,6.21178 5.74534,10.91805 5.74534,19.81897 0,5.96783 -2.20349,11.58667 -5.9204,15.97897 4.22628,-0.79286 7.14468,-1.50777 7.14468,-1.50777 l 13.72466,-2.67784 c 10e-4,-0.001 -1.99342,8.20067 -9.6565,16.09867 z"
     fill="#da4e31"
     id="path2"
     style="stroke-width:0.5" />
</svg>
