<svg xmlns="http://www.w3.org/2000/svg" viewBox="0 0 15.07 19.7"><defs><style>.cls-1{fill:#72767b;}</style></defs><title>Asset 2</title><g id="Layer_2" data-name="Layer 2"><g id="Layer_1-2" data-name="Layer 1"><path class="cls-1" d="M13,8V5.55A5.49,5.49,0,0,0,7.63,0a5.47,5.47,0,0,0-5.4,5.27l0,2.59A4.14,4.14,0,0,0,0,11.49v4a4.3,4.3,0,0,0,4.39,4.2h6.3a4.29,4.29,0,0,0,4.38-4.2v-4A4.14,4.14,0,0,0,13,8ZM4.82,7.29V5.55A2.85,2.85,0,0,1,7.63,2.66a2.85,2.85,0,0,1,2.8,2.89V7.29Zm5.87,2.54.24,0A1.74,1.74,0,0,1,12.35,11a1.76,1.76,0,0,1,.1.52v4a1.72,1.72,0,0,1-1.76,1.66H4.39A1.72,1.72,0,0,1,2.63,15.5v-4A1.72,1.72,0,0,1,4.39,9.83Z"/></g></g></svg>
