<?xml version="1.0" encoding="iso-8859-1"?>
<!-- Generator: Adobe Illustrator 21.0.2, SVG Export Plug-In . SVG Version: 6.00 Build 0)  -->
<svg xmlns="http://www.w3.org/2000/svg" xmlns:xlink="http://www.w3.org/1999/xlink" version="1.1" id="Layer_1" x="0px" y="0px" viewBox="0 0 40 40" style="enable-background:new 0 0 40 40;" xml:space="preserve">
<g>
	<path style="fill:#98CCFD;" d="M17.676,38.5l-1.125-4.501l-0.284-0.076c-2.458-0.658-4.696-1.946-6.473-3.724l-0.208-0.208   l-4.445,1.271l-2.324-4.025l3.335-3.225l-0.076-0.284C5.741,22.475,5.571,21.22,5.571,20s0.17-2.475,0.504-3.729l0.076-0.284   l-3.335-3.225l2.324-4.025l4.445,1.271l0.208-0.208c1.778-1.779,4.016-3.066,6.473-3.724l0.284-0.076L17.676,1.5h4.647l1.125,4.501   l0.284,0.076c2.457,0.657,4.695,1.945,6.473,3.724l0.208,0.208l4.445-1.271l2.324,4.025l-3.335,3.225l0.076,0.284   c0.335,1.253,0.505,2.507,0.505,3.728c0,1.22-0.17,2.475-0.504,3.729l-0.076,0.284l3.335,3.224l-2.324,4.026l-4.445-1.272   l-0.208,0.208c-1.777,1.779-4.016,3.066-6.473,3.724l-0.284,0.076L22.324,38.5H17.676z"/>
	<path style="fill:#4788C7;" d="M21.933,2l0.959,3.837l0.143,0.571l0.569,0.152c2.372,0.635,4.532,1.878,6.248,3.594l0.416,0.417   l0.566-0.162l3.787-1.083l1.934,3.349l-2.843,2.749l-0.423,0.409l0.152,0.568c0.324,1.211,0.488,2.422,0.488,3.599   c0,1.177-0.164,2.388-0.488,3.599l-0.152,0.568l0.423,0.409l2.843,2.749l-1.934,3.349l-3.787-1.083l-0.566-0.162l-0.416,0.417   c-1.715,1.716-3.876,2.959-6.248,3.594l-0.569,0.152l-0.143,0.571L21.934,38h-3.867l-0.959-3.837l-0.143-0.571l-0.569-0.152   c-2.372-0.635-4.533-1.878-6.248-3.594l-0.416-0.417l-0.566,0.162l-3.787,1.083l-1.934-3.349l2.843-2.749l0.423-0.409l-0.152-0.568   C6.235,22.388,6.071,21.177,6.071,20s0.164-2.388,0.488-3.599l0.152-0.568l-0.423-0.409l-2.843-2.749l1.934-3.349l3.787,1.083   l0.566,0.162l0.416-0.417c1.715-1.716,3.876-2.959,6.248-3.594l0.569-0.152l0.143-0.571L18.066,2H21.933 M22.714,1h-5.429   l-1.149,4.594c-2.569,0.688-4.871,2.027-6.696,3.853L4.903,8.149l-2.714,4.701l3.405,3.292C5.264,17.375,5.071,18.664,5.071,20   s0.192,2.625,0.522,3.857l-3.405,3.292l2.714,4.701l4.538-1.298c1.825,1.826,4.128,3.165,6.697,3.853L17.286,39h5.429l1.148-4.594   c2.569-0.688,4.872-2.027,6.697-3.853l4.538,1.298l2.714-4.701l-3.405-3.292c0.329-1.232,0.522-2.521,0.522-3.857   s-0.192-2.625-0.522-3.857l3.405-3.292l-2.714-4.701l-4.538,1.298c-1.825-1.826-4.127-3.165-6.696-3.853L22.714,1L22.714,1z"/>
</g>
<path style="fill:#FFFFFF;" d="M19,15.192C19.547,15.074,20.286,15,21.024,15c1.153,0,2.133,0.163,2.768,0.768  c0.591,0.517,0.857,1.344,0.857,2.186c0,1.079-0.324,1.846-0.841,2.393c-0.62,0.665-1.61,0.96-2.423,0.96  c-0.132,0-0.251,0-0.384-0.015V25h-2V15.192z M21,19.727c0.103,0.015,0.207,0.015,0.325,0.015c0.975,0,1.404-0.695,1.404-1.625  c0-0.872-0.355-1.551-1.256-1.551c-0.176,0-0.354,0.029-0.473,0.074V19.727z"/>
<path style="fill:#FFFFFF;" d="M26,15h2v10h-2V15z"/>
<path style="fill:#FFFFFF;" d="M15.952,25H18l-2.113-10h-2.532L11,25h2.048l0.436-2h2.047L15.952,25z M14.532,16.839h0.048  c0.097,0.653,0.242,1.662,0.355,2.27L15.256,21h-1.475l0.365-1.89C14.258,18.531,14.419,17.507,14.532,16.839z"/>
</svg>
