<?xml version="1.0" encoding="UTF-8" standalone="no"?>
<!-- Created with Inkscape (http://www.inkscape.org/) -->

<svg
   xmlns:dc="http://purl.org/dc/elements/1.1/"
   xmlns:cc="http://creativecommons.org/ns#"
   xmlns:rdf="http://www.w3.org/1999/02/22-rdf-syntax-ns#"
   xmlns:svg="http://www.w3.org/2000/svg"
   xmlns="http://www.w3.org/2000/svg"
   xmlns:sodipodi="http://sodipodi.sourceforge.net/DTD/sodipodi-0.dtd"
   xmlns:inkscape="http://www.inkscape.org/namespaces/inkscape"
   width="27px"
   height="27px"
   viewBox="0 0 27 27"
   version="1.1"
   id="SVGRoot"
   inkscape:version="0.92.4 (unknown)"
   sodipodi:docname="external-namespace.svg">
  <defs
     id="defs4626" />
  <sodipodi:namedview
     id="base"
     pagecolor="#ffffff"
     bordercolor="#666666"
     borderopacity="1.0"
     inkscape:pageopacity="0.0"
     inkscape:pageshadow="2"
     inkscape:zoom="26.817679"
     inkscape:cx="13.5"
     inkscape:cy="13.5"
     inkscape:document-units="px"
     inkscape:current-layer="layer1"
     showgrid="false"
     inkscape:window-width="1920"
     inkscape:window-height="1016"
     inkscape:window-x="0"
     inkscape:window-y="27"
     inkscape:window-maximized="1"
     inkscape:grid-bbox="true" />
  <metadata
     id="metadata4629">
    <rdf:RDF>
      <cc:Work
         rdf:about="">
        <dc:format>image/svg+xml</dc:format>
        <dc:type
           rdf:resource="http://purl.org/dc/dcmitype/StillImage" />
        <dc:title></dc:title>
      </cc:Work>
    </rdf:RDF>
  </metadata>
  <g
     inkscape:label="Layer 1"
     inkscape:groupmode="layer"
     id="layer1">
    <circle
       style="fill:#ffffff;fill-rule:evenodd;stroke:#8b8d8f;stroke-width:1"
       r="12.5"
       cy="13.576019"
       cx="13.498557"
       id="circle2046" />
    <g
       id="g34"
       transform="translate(5.9985596,6.5745211)">
      <path
         inkscape:connector-curvature="0"
         id="path2"
         d="m 5,1.531 c 0,0.828 -0.672,1.5 -1.5,1.5 -0.828,0 -1.5,-0.672 -1.5,-1.5 0,-0.828 0.672,-1.5 1.5,-1.5 0.828,0 1.5,0.672 1.5,1.5 z" />
      <path
         inkscape:connector-curvature="0"
         id="path4"
         d="M 15,10.5 C 15,11.328 14.328,12 13.5,12 12.672,12 12,11.328 12,10.5 12,9.672 12.672,9 13.5,9 14.328,9 15,9.672 15,10.5 Z" />
      <path
         inkscape:connector-curvature="0"
         id="path6"
         d="M 3,9.5 C 3,10.328 2.328,11 1.5,11 0.672,11 0,10.328 0,9.5 0,8.672 0.672,8 1.5,8 2.328,8 3,8.672 3,9.5 Z" />
      <path
         inkscape:connector-curvature="0"
         id="path8"
         d="m 11.331,8.812 -1.028,-0.7 c 0.116,-0.35 0.181,-0.722 0.181,-1.109 0,-0.753 -0.237,-1.45 -0.647,-2.022 l 1.2,-1.225 c 0.284,0.156 0.613,0.247 0.963,0.247 1.103,0 2,-0.897 2,-2 C 14,0.9 13.103,0 12,0 c -1.103,0 -2,0.897 -2,2 0,0.394 0.113,0.759 0.309,1.069 L 9.146,4.256 C 8.555,3.793 7.808,3.515 6.999,3.515 6.536,3.515 6.093,3.606 5.686,3.771 L 5.495,3.512 C 5.311,3.262 4.979,3.19 4.761,3.356 4.539,3.519 4.508,3.856 4.689,4.106 L 4.82,4.284 C 4.023,4.922 3.514,5.903 3.514,7.003 3.514,7.309 3.555,7.606 3.63,7.89 L 3.592,7.906 C 3.33,8.034 3.204,8.344 3.311,8.594 3.418,8.844 3.72,8.944 3.98,8.819 L 4.014,8.803 c 0.484,0.8 1.278,1.388 2.219,1.6 l -0.059,0.575 c -0.672,0.153 -1.172,0.762 -1.172,1.494 0,0.847 0.672,1.531 1.5,1.531 0.828,0 1.5,-0.684 1.5,-1.531 0,-0.603 -0.341,-1.122 -0.834,-1.372 L 7.234,10.481 C 8.318,10.409 9.265,9.843 9.856,9.006 l 0.941,0.641 c 0.25,0.172 0.578,0.125 0.725,-0.106 C 11.669,9.31 11.584,8.982 11.331,8.813 Z M 12,0.937 c 0.587,0 1.062,0.475 1.062,1.062 0,0.587 -0.475,1.062 -1.062,1.062 -0.587,0 -1.062,-0.475 -1.062,-1.062 0,-0.587 0.475,-1.062 1.062,-1.062 z M 6.5,13.281 c -0.45,0 -0.813,-0.362 -0.813,-0.813 0,-0.451 0.362,-0.813 0.813,-0.813 0.451,0 0.813,0.362 0.813,0.813 0,0.451 -0.362,0.813 -0.813,0.813 z M 7,8.906 C 5.947,8.906 5.094,8.053 5.094,7 5.094,5.947 5.947,5.094 7,5.094 8.053,5.094 8.906,5.947 8.906,7 8.906,8.053 8.053,8.906 7,8.906 Z" />
    </g>
  </g>
</svg>
