<?xml version="1.0" encoding="UTF-8" standalone="no"?>
<!-- Created with Inkscape (http://www.inkscape.org/) -->

<svg
   xmlns:dc="http://purl.org/dc/elements/1.1/"
   xmlns:cc="http://creativecommons.org/ns#"
   xmlns:rdf="http://www.w3.org/1999/02/22-rdf-syntax-ns#"
   xmlns:svg="http://www.w3.org/2000/svg"
   xmlns="http://www.w3.org/2000/svg"
   xmlns:sodipodi="http://sodipodi.sourceforge.net/DTD/sodipodi-0.dtd"
   xmlns:inkscape="http://www.inkscape.org/namespaces/inkscape"
   width="27px"
   height="27px"
   viewBox="0 0 27 27"
   version="1.1"
   id="SVGRoot"
   inkscape:version="0.92.4 (unknown)"
   sodipodi:docname="restricted-namespace.svg">
  <defs
     id="defs4607" />
  <sodipodi:namedview
     id="base"
     pagecolor="#ffffff"
     bordercolor="#666666"
     borderopacity="1.0"
     inkscape:pageopacity="0.0"
     inkscape:pageshadow="2"
     inkscape:zoom="26.817679"
     inkscape:cx="13.5"
     inkscape:cy="13.5"
     inkscape:document-units="px"
     inkscape:current-layer="layer1"
     showgrid="false"
     inkscape:window-width="1920"
     inkscape:window-height="1016"
     inkscape:window-x="0"
     inkscape:window-y="27"
     inkscape:window-maximized="1"
     inkscape:grid-bbox="true" />
  <metadata
     id="metadata4610">
    <rdf:RDF>
      <cc:Work
         rdf:about="">
        <dc:format>image/svg+xml</dc:format>
        <dc:type
           rdf:resource="http://purl.org/dc/dcmitype/StillImage" />
        <dc:title></dc:title>
      </cc:Work>
    </rdf:RDF>
  </metadata>
  <g
     inkscape:label="Layer 1"
     inkscape:groupmode="layer"
     id="layer1">
    <g
       id="symbol8619"
       transform="translate(-430.21073,-74.799835)">
      <circle
         style="fill:#ffffff;fill-rule:evenodd;stroke:#8b8d8f;stroke-width:1"
         r="12.5"
         cy="88.375854"
         cx="443.70929"
         id="circle2046-3" />
    </g>
    <path
       id="path251"
       d="m 21.003437,10.936933 c 0,2.934579 -2.37895,5.313495 -5.31352,5.313495 -0.33874,0 -0.66993,-0.03205 -0.99107,-0.09266 l -0.72492,0.815568 a 0.72454114,0.72454133 0 0 1 -0.54156,0.243176 h -1.12378 v 1.207623 c 0,0.400177 -0.3244,0.724571 -0.724571,0.724571 h -1.207629 v 1.20763 c 0,0.40018 -0.32439,0.72457 -0.7245702,0.72457 h -3.38132 c -0.40018,0 -0.72458,-0.32439 -0.72458,-0.72457 v -2.356642 c 0,-0.192165 0.0764,-0.376484 0.21221,-0.51237 L 10.643006,12.60245 c -0.172779,-0.523926 -0.266619,-1.083748 -0.266619,-1.66555 0,-2.9345771 2.37892,-5.3134941 5.3135,-5.3135281 2.94324,-2.9e-5 5.31355,2.370286 5.31355,5.3135571 z m -5.31352,-1.4491728 c 0,0.8003488 0.6488,1.4491438 1.44914,1.4491438 0.80035,0 1.44914,-0.648795 1.44914,-1.4491438 0,-0.8003503 -0.64879,-1.4491453 -1.44914,-1.4491453 -0.80034,0 -1.44914,0.648795 -1.44914,1.4491453 z"
       inkscape:connector-curvature="0"
       style="fill:currentColor;stroke-width:0.03019047" />
  </g>
</svg>
