<svg xmlns="http://www.w3.org/2000/svg" width="54" height="20" aria-label="Java"><linearGradient id="b" x2="0" y2="100%"><stop offset="0" stop-color="#bbb" stop-opacity=".1"/><stop offset="1" stop-opacity=".1"/></linearGradient><clipPath id="a"><rect width="54" height="20" rx="3" fill="#fff"/></clipPath><g clip-path="url(#a)"><path fill="#5382A1" d="M0 0h54v20H0z"/><path fill="url(#b)" d="M0 0h54v20H0z"/></g><g fill="#fff" text-anchor="middle" font-family="Verdana,Geneva,DejaVu Sans,sans-serif" text-rendering="geometricPrecision" font-size="110"><g stroke="#fff" stroke-width=".2"><path d="M8.602 13.599s-.528.307.376.41c1.095.126 1.654.108 2.86-.12 0 0 .318.198.76.37-2.704 1.16-6.12-.067-3.996-.66m-.33-1.513s-.592.439.312.532c1.17.12 2.093.13 3.69-.177 0 0 .222.224.57.347-3.27.956-6.912.075-4.572-.702m2.786-2.565c.666.767-.175 1.457-.175 1.457s1.692-.873.915-1.967c-.726-1.02-1.283-1.527 1.73-3.274 0 0-4.73 1.18-2.47 3.784"/><path d="M14.635 14.718s.39.322-.43.57c-1.562.474-6.498.616-7.87.02-.492-.215.432-.513.723-.575.303-.066.477-.054.477-.054-.549-.386-3.544.759-1.522 1.086 5.514.895 10.052-.402 8.622-1.047m-5.779-4.199s-2.51.597-.89.813c.686.092 2.05.071 3.322-.035 1.04-.088 2.083-.274 2.083-.274s-.367.156-.632.337c-2.55.671-7.475.36-6.057-.327 1.199-.58 2.174-.514 2.174-.514m4.504 2.518c2.592-1.347 1.394-2.641.557-2.467-.205.043-.296.08-.296.08s.076-.12.221-.171c1.655-.582 2.928 1.716-.534 2.626 0 0 .04-.036.052-.068M11.798 2.915s1.435 1.436-1.362 3.644c-2.243 1.771-.511 2.781 0 3.935-1.31-1.181-2.27-2.221-1.626-3.189.946-1.42 3.567-2.11 2.988-4.39"/><path d="M9.11 16.687c2.489.159 6.31-.089 6.4-1.266 0 0-.174.446-2.056.8-2.124.4-4.743.354-6.296.098 0 0 .318.263 1.953.368"/></g><text aria-hidden="true" x="350" y="150" fill="#010101" fill-opacity=".3" transform="scale(.1)" textLength="250">Java</text><text x="350" y="140" transform="scale(.1)" textLength="250">Java</text></g></svg>