<svg xmlns="http://www.w3.org/2000/svg" width="100" height="20" aria-label="MicroProfile"><linearGradient id="b" x2="0" y2="100%"><stop offset="0" stop-color="#bbb" stop-opacity=".1"/><stop offset="1" stop-opacity=".1"/></linearGradient><clipPath id="a"><rect width="100" height="20" rx="3" fill="#fff"/></clipPath><g clip-path="url(#a)"><path fill="#FCB817" d="M0 0h100v20H0z"/><path fill="url(#b)" d="M0 0h100v20H0z"/></g><g fill="#fff" text-anchor="middle" font-family="Verdana,Geneva,DejaVu Sans,sans-serif" text-rendering="geometricPrecision" font-size="110"><path d="M10.72 3.76c1.6.16 1.6.16 2.88 1.44.173 1.72.056 3.386 0 5.12l1.92-.64c.787-2.248.787-2.248 1.28-4.48H20l1.28 5.76 2.56.64c.72 2.4.72 2.4 0 3.84h-3.2c-1.28-4.32-1.28-4.32-1.28-5.76l-1.92.64-.6 1.92-.68 1.92c-1.36.56-1.36.56-2.56.64l-1.92-4.48c-1.32.312-1.32.312-2.56 1.28-.474 2.256-.474 2.256-.64 4.48-.64.64-.64.64-2.24.72-1.6-.08-1.6-.08-2.24-.72a63.99 63.99 0 0 1 0-3.2l3.2-1.28.095-1.355.145-1.765.135-1.755c.376-2.161.957-2.747 3.145-2.965Zm7.36 2.72.64 1.28Z"/><text aria-hidden="true" x="615" y="150" fill="#010101" fill-opacity=".3" transform="scale(.1)" textLength="660">MicroProfile</text><text x="615" y="140" transform="scale(.1)" textLength="660">MicroProfile</text></g></svg>