<svg xmlns="http://www.w3.org/2000/svg" width="80" height="20" aria-label="Tomcat"><linearGradient id="b" x2="0" y2="100%"><stop offset="0" stop-color="#bbb" stop-opacity=".1"/><stop offset="1" stop-opacity=".1"/></linearGradient><clipPath id="a"><rect width="80" height="20" rx="3" fill="#fff"/></clipPath><g clip-path="url(#a)"><path fill="#F8DC75" d="M0 0h80v20H0z"/><path fill="url(#b)" d="M0 0h80v20H0z"/></g><g fill="#fff" text-anchor="middle" font-family="Verdana,Geneva,DejaVu Sans,sans-serif" text-rendering="geometricPrecision" font-size="110"><path d="M14.128 3.595c-.302.51-.435 1.691-.402 2.53l-.004.003c.03.757.132 1.453.298 2.092-2.477.614-5.173 2.236-6.682 3.803-.705-.952-.985-1.734-1.068-2.326-.105-.749.073-1.435.516-1.986.694-.861 1.679-.922 2.692-.752-.02.16.001.313.065.408.268.395 1.708.535 2.568.151-.634-.89-1.92-1.323-2.275-1.15a.61.61 0 0 0-.268.288c-.35-.062-.698-.11-.952-.107-.894.006-1.577.318-2.088.954-.502.624-.706 1.398-.587 2.24.112.797.506 1.644 1.168 2.523-.11.118-.216.235-.319.35C5.178 14.417 4 16.351 4 16.673v.165h2.126l-.036-.197c-.12-.634.12-1.428.61-2.02.309-.372.82-.797 1.622-.993.712.696 1.621 1.435 2.632 2.148h1.581v-.167a.542.542 0 0 0-.261-.461c-.25-.163-.636-.186-.99-.065-.337-.376-.526-.878-.567-1.502 3.43.304 6.71 1.688 10.412 3.623h2.037l.026-.134c.038-.19-.066-.445-.277-.68-.365-.409-1.079-.602-1.676-.588-.411-.49-2.673-2.873-2.805-3.012a7.7 7.7 0 0 0 2.138-2.277h1.11v-.239h-.97a7.848 7.848 0 0 0 .178-.335h.792V9.7h-.676a8.383 8.383 0 0 0 .753-3.7l.003.002c-.002-.374-.118-1.956-.332-2.39-.581.22-1.638.935-1.877 1.666a11.646 11.646 0 0 0-3.57.045c-.19-.787-1.139-1.389-1.855-1.728zm.131.462c.169.918.475 1.495 1.136 1.778a9.07 9.07 0 0 1 1.959-.31l.573 1.257.368-1.268a8.68 8.68 0 0 1 1.988.279c.61-.443.846-1.12.975-1.71.161.687.142 2.173.144 2.173a7.906 7.906 0 0 1-.127 1.59l-.659.28.58.088a7.352 7.352 0 0 1-.158.572l-.562.164.448.16c-.075.203-.16.4-.251.59h-.928v.24h.806a7.03 7.03 0 0 1-.19.335h-.616v.239h.466a6.907 6.907 0 0 1-2.337 2.198 6.305 6.305 0 0 1-2.463-2.198h.357v-.239h-.509a7.356 7.356 0 0 1-.189-.335h.698V9.7h-.82a8.096 8.096 0 0 1-.369-.874l.418-.118-.527-.21a9.377 9.377 0 0 1-.144-.517l.812-.055-.928-.492c-.226-1.25-.18-2.464.05-3.377zm2.357 2.376c-.712 0-.992.727-1.004.758l.202.075c.01-.026.241-.618.802-.618.123 0 .21.05.272.156.146.251.122.746 0 1.264h-.982v.215h.928a4.543 4.543 0 0 1-.397.98l-.051.09 1.23.773-.693.456.119.18.773-.51.835.545.114-.183-.774-.478 1.215-.789c-.255-.377-.336-.698-.229-1.064h1.02l.002-.215h-.94c.172-.408.416-.774 1.281-.774v-.216c-.799 0-1.277.317-1.506.99H17.11c.12-.538.141-1.066-.037-1.372a.504.504 0 0 0-.456-.264zm.44 1.85h1.7c-.075.243-.045.61.143.926h-2.19c.133-.267.257-.592.347-.926zm-2.946.257c.124.412.275.798.45 1.16h-.729v.24h.848c.06.114.123.226.187.335h-1.034v.239h1.182c.728 1.132 1.712 1.999 2.828 2.654a7.56 7.56 0 0 0 .364-.224l.29.312-.488.75.832-.379.485.522-.815.62 1.122-.29 1.524 1.64.128-.011c.806-.069 1.264.368 1.384.504.09.1.143.19.172.26h-1.629c-3.736-1.949-7.017-3.323-10.501-3.623a6.783 6.783 0 0 1 .259-1.647l-.32-.086a7.144 7.144 0 0 0-.27 1.707 16.61 16.61 0 0 0-1.097-.037c-.313 0-.598.03-.858.08a11.817 11.817 0 0 1-.872-.968c.437-.456.952-.898 1.514-1.314l.774.534-.253-.902c.238-.16.483-.315.731-.464l1.148.584-.539-.93c.159-.084.319-.168.479-.248l1.605 1.077-.528-1.561a12.256 12.256 0 0 1 1.627-.534zm2.793.884h1.776l-.867.572zm-9.58 3.116c.218.27.461.542.727.817a3.283 3.283 0 0 0-1.605 1.053c-.503.608-.77 1.41-.709 2.097h-1.34c.27-.582 1.342-2.266 2.926-3.967z" stroke="#fff" stroke-width=".25"/><text aria-hidden="true" x="500" y="150" fill="#010101" fill-opacity=".3" transform="scale(.1)" textLength="450">Tomcat</text><text x="500" y="140" transform="scale(.1)" textLength="450">Tomcat</text></g></svg>