<svg xmlns="http://www.w3.org/2000/svg" width="65" height="20" aria-label="Vert.x"><linearGradient id="b" x2="0" y2="100%"><stop offset="0" stop-color="#bbb" stop-opacity=".1"/><stop offset="1" stop-opacity=".1"/></linearGradient><clipPath id="a"><rect width="65" height="20" rx="3" fill="#fff"/></clipPath><g clip-path="url(#a)"><path fill="#782A90" d="M0 0h65v20H0z"/><path fill="url(#b)" d="M0 0h65v20H0z"/></g><g fill="#fff" text-anchor="middle" font-family="Verdana,Geneva,DejaVu Sans,sans-serif" text-rendering="geometricPrecision" font-size="110"><path d="M7.414 2.706c-1.074 0-1.998.755-2.014 1.757v.861h1.509l2.317 5.338 2.416-5.275h3.047L16 7.78l1.535-2.392H19.8v-.92c0-.998-.936-1.76-2.013-1.76zM19.8 6.101l-5.324 8.136h-1.612a2.096 2.096 0 0 0-.302-1.044l2.166-3.425-1.647-2.616-2.297 5.052-.022-.001a2.066 2.066 0 0 0-2.06 2.06l.002.037h-.158L5.4 7.2v8.132c0 .999.936 1.76 2.014 1.76h10.373c1.087 0 2.013-.765 2.013-1.76v-1.096h-2.152l-.957-1.724 1.335-2.027 1.774 2.798zM10.76 13a1.261 1.261 0 0 1 1.266 1.262 1.264 1.264 0 1 1-2.527 0c0-.696.562-1.26 1.261-1.262Z"/><text aria-hidden="true" x="425" y="150" fill="#010101" fill-opacity=".3" transform="scale(.1)" textLength="350">Vert.x</text><text x="425" y="140" transform="scale(.1)" textLength="350">Vert.x</text></g></svg>