<svg xmlns="http://www.w3.org/2000/svg" width="60" height="20" aria-label="GRPC"><linearGradient id="b" x2="0" y2="100%"><stop offset="0" stop-color="#bbb" stop-opacity=".1"/><stop offset="1" stop-opacity=".1"/></linearGradient><clipPath id="a"><rect width="60" height="20" rx="3" fill="#fff"/></clipPath><g clip-path="url(#a)"><path fill="#2da6b0" d="M0 0h60v20H0z"/><path fill="url(#b)" d="M0 0h60v20H0z"/></g><g fill="#fff" text-anchor="middle" font-family="Verdana,Geneva,DejaVu Sans,sans-serif" text-rendering="geometricPrecision" font-size="110"><path d="M8.309 10.617v2.866c0 .596.101 1.114.304 1.555s.47.806.802 1.098.703.511 1.116.66.829.224 1.248.224.835-.075 1.248-.224.785-.369 1.116-.66.599-.658.801-1.098.305-.96.305-1.555V8.708l-3.71-.006-.004 1.915h1.644v2.866c0 .501-.139.87-.414 1.108s-.605.356-.984.356-.707-.12-.985-.356-.414-.607-.414-1.108V5.837c0-.501.139-.87.414-1.108s.606-.356.985-.356.706.12.984.356.414.607.414 1.108v.732h2.07v-.732c0-.582-.101-1.097-.304-1.545s-.47-.816-.802-1.108-.704-.511-1.116-.66-.829-.224-1.248-.224-.836.075-1.248.224-.785.369-1.116.66-.6.661-.802 1.108-.304.963-.304 1.546v2.865H6.19V6.57h.65L5.226 4.287 3.611 6.57h.672v3.09a.955.955 0 0 0 .955.957h3.071z" fill-rule="evenodd"/><text aria-hidden="true" x="375" y="150" fill="#010101" fill-opacity=".3" transform="scale(.1)" textLength="330">GRPC</text><text x="375" y="140" transform="scale(.1)" textLength="330">GRPC</text></g></svg>