<svg xmlns="http://www.w3.org/2000/svg" viewBox="60 -10 85 80"><g data-name="Layer 2"><path d="M75.761 0v56.825h40.246a16.579 16.579 0 0 0 16.578-16.579V0zm44.293 35.82h2.121v2.121h-2.121zm-.667-9.131h3.446v3.447h-3.446zm-.53-9h4.507V22.2h-4.507zm-7.276 26.6h2.119v2.121h-2.121zm-.663-9.239h3.447v3.45h-3.447zm-.53-8.891h4.512v4.507h-4.507zm.53-4.492v-3.446h3.447v3.446zM94.644 44.289h2.121v2.121h-2.121zm-.663-9.131h3.447V38.6h-3.447zm.663-5.685v-2.121h2.121v2.121zm-.663-11.252h3.447v3.446h-3.447zm-7.806 26.068H88.3v2.121h-2.125zm0-8.469H88.3v2.121h-2.125zm-.662-9.131h3.446v3.447h-3.446zm-.531-9h4.508V22.2h-4.508zM83 7.241h42.342v8.469h-16.935v33.874h-8.468V15.71H83z" fill="#6d41ff" data-name="Layer 1"/></g></svg>