<svg xmlns="http://www.w3.org/2000/svg" width="73" height="20" aria-label="GraphQL"><linearGradient id="b" x2="0" y2="100%"><stop offset="0" stop-color="#bbb" stop-opacity=".1"/><stop offset="1" stop-opacity=".1"/></linearGradient><clipPath id="a"><rect width="73" height="20" rx="3" fill="#fff"/></clipPath><g clip-path="url(#a)"><path fill="#E10098" d="M0 0h73v20H0z"/><path fill="url(#b)" d="M0 0h73v20H0z"/></g><g fill="#fff" text-anchor="middle" font-family="Verdana,Geneva,DejaVu Sans,sans-serif" text-rendering="geometricPrecision" font-size="110"><path d="M11.701 1.95a1.39 1.39 0 1 0 0 2.78 1.39 1.39 0 1 0 0-2.78zm5.551 3.205a1.39 1.39 0 1 0 0 2.78 1.39 1.39 0 1 0 0-2.78zm0 6.41a1.39 1.39 0 1 0 0 2.78 1.39 1.39 0 1 0 0-2.78zm-5.55 3.206a1.39 1.39 0 1 0 0 2.779 1.39 1.39 0 1 0 0-2.78zm-5.553-3.205a1.39 1.39 0 1 0 0 2.78 1.39 1.39 0 1 0 0-2.78zm0-6.41a1.39 1.39 0 1 0 0 2.78 1.39 1.39 0 1 0 0-2.78zm5.552-2.197L5.82 6.355v6.791l5.882 3.396 5.88-3.396V6.355zm0 1.041 4.98 8.626H6.72zm-.901.241-4.32 7.483V6.736zm1.803 0 4.32 2.495v4.988zM7.38 13.286h8.64l-4.32 2.493z"/><text aria-hidden="true" x="460" y="150" fill="#010101" fill-opacity=".3" transform="scale(.1)" textLength="460">GraphQL</text><text x="460" y="140" transform="scale(.1)" textLength="460">GraphQL</text></g></svg>