<svg xmlns="http://www.w3.org/2000/svg" width="69" height="20" aria-label="Node.js"><linearGradient id="b" x2="0" y2="100%"><stop offset="0" stop-color="#bbb" stop-opacity=".1"/><stop offset="1" stop-opacity=".1"/></linearGradient><clipPath id="a"><rect width="69" height="20" rx="3" fill="#fff"/></clipPath><g clip-path="url(#a)"><path fill="#393" d="M0 0h69v20H0z"/><path fill="url(#b)" d="M0 0h69v20H0z"/></g><g fill="#fff" text-anchor="middle" font-family="Verdana,Geneva,DejaVu Sans,sans-serif" text-rendering="geometricPrecision" font-size="110"><path d="M12.199 16.9a1.1 1.1 0 0 1-.553-.148L9.884 15.71c-.263-.147-.134-.2-.048-.23.351-.122.422-.15.797-.363.039-.022.09-.013.13.01l1.354.804a.174.174 0 0 0 .163 0l5.277-3.046a.166.166 0 0 0 .08-.142v-6.09a.17.17 0 0 0-.081-.146L12.28 3.464a.167.167 0 0 0-.163 0L6.845 6.508a.17.17 0 0 0-.083.145v6.09a.162.162 0 0 0 .083.14l1.445.836c.785.392 1.265-.07 1.265-.534V7.172c0-.085.069-.152.154-.152h.669c.083 0 .153.068.153.152v6.013c0 1.047-.57 1.647-1.563 1.647-.304 0-.545 0-1.215-.33l-1.385-.797a1.114 1.114 0 0 1-.553-.962v-6.09c0-.396.212-.765.553-.962l5.277-3.05a1.155 1.155 0 0 1 1.109 0l5.276 3.05c.342.197.555.566.555.962v6.09a1.116 1.116 0 0 1-.555.962l-5.276 3.047c-.168.098-.36.148-.555.148zm4.26-6.004c0-1.14-.77-1.444-2.392-1.658-1.638-.217-1.805-.329-1.805-.712 0-.317.14-.74 1.355-.74 1.084 0 1.483.233 1.648.964a.152.152 0 0 0 .148.12h.685a.156.156 0 0 0 .111-.049.154.154 0 0 0 .04-.118c-.106-1.258-.942-1.845-2.632-1.845-1.505 0-2.403.635-2.403 1.7 0 1.155.893 1.474 2.337 1.617 1.728.169 1.862.421 1.862.761 0 .59-.473.841-1.585.841-1.396 0-1.704-.35-1.807-1.045a.153.153 0 0 0-.152-.129h-.682a.151.151 0 0 0-.152.152c0 .889.483 1.949 2.793 1.949 1.673 0 2.631-.658 2.631-1.808z"/><text aria-hidden="true" x="435" y="150" fill="#010101" fill-opacity=".3" transform="scale(.1)" textLength="410">Node.js</text><text x="435" y="140" transform="scale(.1)" textLength="410">Node.js</text></g></svg>