<svg xmlns="http://www.w3.org/2000/svg" width="75" height="20" aria-label="Quarkus"><linearGradient id="b" x2="0" y2="100%"><stop offset="0" stop-color="#bbb" stop-opacity=".1"/><stop offset="1" stop-opacity=".1"/></linearGradient><clipPath id="a"><rect width="75" height="20" rx="3" fill="#fff"/></clipPath><g clip-path="url(#a)"><path fill="#4695EB" d="M0 0h75v20H0z"/><path fill="url(#b)" d="M0 0h75v20H0z"/></g><g fill="#fff" text-anchor="middle" font-family="Verdana,Geneva,DejaVu Sans,sans-serif" text-rendering="geometricPrecision" font-size="110"><path d="M6.589 2.7A2.396 2.396 0 0 0 4.2 5.089v9.623A2.396 2.396 0 0 0 6.589 17.1h6.59L11.4 12.78l-1.29 2.728H6.588a.807.807 0 0 1-.796-.797V5.088c0-.432.365-.796.796-.796h9.624c.432 0 .796.365.796.796v9.624a.807.807 0 0 1-.796.796h-2.088l.654 1.592h1.433a2.396 2.396 0 0 0 2.389-2.389V5.088A2.396 2.396 0 0 0 16.211 2.7zm2.594 2.53v2.315l2.005-1.158zm4.434 0-2.005 1.158 2.004 1.157zM11.4 6.51 9.183 7.79 11.4 9.07l2.217-1.28zM9.062 8v2.559l2.217 1.28v-2.56zm4.676 0L11.52 9.278v2.56l2.217-1.28zm-4.888.122L6.846 9.28l2.004 1.156zm5.1 0v2.314l2.004-1.157zm-4.888 2.682v2.315l2.005-1.158zm4.676 0-2.005 1.158 2.004 1.157z"/><text aria-hidden="true" x="460" y="150" fill="#010101" fill-opacity=".3" transform="scale(.1)" textLength="460">Quarkus</text><text x="460" y="140" transform="scale(.1)" textLength="460">Quarkus</text></g></svg>