<svg xmlns="http://www.w3.org/2000/svg" width="80" height="20" aria-label="Rest API"><linearGradient id="b" x2="0" y2="100%"><stop offset="0" stop-color="#bbb" stop-opacity=".1"/><stop offset="1" stop-opacity=".1"/></linearGradient><clipPath id="a"><rect width="80" height="20" rx="3" fill="#fff"/></clipPath><g clip-path="url(#a)"><path fill="#4788c7" d="M0 0h80v20H0z"/><path fill="url(#b)" d="M0 0h80v20H0z"/></g><g fill="#fff" text-anchor="middle" font-family="Verdana,Geneva,DejaVu Sans,sans-serif" text-rendering="geometricPrecision" font-size="110"><g stroke="#fff" stroke-width=".4"><path d="m18.623 11.298-.511-.295a6.47 6.47 0 0 0 .129-1.273 6.54 6.54 0 0 0-.127-1.275l.509-.294c.158-.09.27-.238.317-.414s.023-.36-.068-.517L17.48 4.82a.677.677 0 0 0-.414-.318.677.677 0 0 0-.517.068l-.51.294a6.522 6.522 0 0 0-2.206-1.277v-.586a.682.682 0 0 0-.681-.681h-2.784a.682.682 0 0 0-.682.682v.585a6.522 6.522 0 0 0-2.204 1.279L6.97 4.57a.677.677 0 0 0-.518-.068.677.677 0 0 0-.413.317L4.647 7.23a.682.682 0 0 0 .25.93l.51.296a6.464 6.464 0 0 0-.002 2.548l-.509.294a.682.682 0 0 0-.25.93L6.04 14.64a.682.682 0 0 0 .93.25l.51-.295a6.522 6.522 0 0 0 2.207 1.277v.585c0 .376.306.682.681.682h2.784a.682.682 0 0 0 .682-.681v-.586a6.522 6.522 0 0 0 2.204-1.279l.512.296a.682.682 0 0 0 .931-.25l1.392-2.41a.682.682 0 0 0-.25-.931zm-.127.713-1.392 2.411a.247.247 0 0 1-.337.09l-.65-.374a.217.217 0 0 0-.256.028 6.075 6.075 0 0 1-2.31 1.34.217.217 0 0 0-.153.208v.743c0 .136-.11.247-.247.247h-2.783a.247.247 0 0 1-.247-.247v-.743a.218.218 0 0 0-.153-.208 6.076 6.076 0 0 1-2.313-1.338.217.217 0 0 0-.256-.029l-.647.373a.247.247 0 0 1-.337-.09l-1.392-2.41a.247.247 0 0 1 .09-.337l.647-.373a.217.217 0 0 0 .103-.237 6.08 6.08 0 0 1-.15-1.335c0-.438.051-.887.152-1.335a.217.217 0 0 0-.103-.236l-.648-.375a.245.245 0 0 1-.115-.15.245.245 0 0 1 .024-.186l1.392-2.411a.245.245 0 0 1 .15-.115.245.245 0 0 1 .187.025l.65.374a.217.217 0 0 0 .256-.028 6.075 6.075 0 0 1 2.31-1.34.217.217 0 0 0 .153-.208v-.744c0-.135.11-.246.247-.246h2.784c.135 0 .246.11.246.247v.743a.218.218 0 0 0 .153.208 6.076 6.076 0 0 1 2.313 1.338.217.217 0 0 0 .256.029l.647-.373a.245.245 0 0 1 .187-.025.245.245 0 0 1 .15.115l1.392 2.41a.245.245 0 0 1 .024.188.245.245 0 0 1-.115.15l-.645.372a.217.217 0 0 0-.104.237c.1.44.15.89.15 1.336 0 .437-.051.886-.152 1.334a.218.218 0 0 0 .103.236l.648.375a.247.247 0 0 1 .09.336z"/><path d="M11.76 5.336c-2.423 0-4.394 1.97-4.394 4.393s1.97 4.394 4.393 4.394 4.394-1.97 4.394-4.393-1.97-4.394-4.393-4.394zm0 8.352c-2.183 0-3.959-1.776-3.959-3.959s1.776-3.958 3.958-3.958 3.959 1.776 3.959 3.958-1.776 3.959-3.959 3.959z"/></g><text aria-hidden="true" x="490" y="150" fill="#010101" fill-opacity=".3" transform="scale(.1)" textLength="500">Rest API</text><text x="490" y="140" transform="scale(.1)" textLength="500">Rest API</text></g></svg>