<svg xmlns="http://www.w3.org/2000/svg" width="27" height="27"><circle style="fill:#fff;fill-rule:evenodd;stroke:#8b8d8f;stroke-width:1" r="12.5" cy="88.376" cx="443.709" transform="translate(-430.21 -74.8)"/><path d="M21.003 10.937a5.314 5.314 0 0 1-6.304 5.22l-.725.816a.725.725 0 0 1-.542.244H12.31v1.207c0 .4-.325.725-.725.725h-1.208v1.207c0 .4-.324.725-.724.725H6.27a.725.725 0 0 1-.724-.725V18c0-.192.076-.377.212-.513l4.885-4.885a5.314 5.314 0 0 1 5.047-6.98 5.302 5.302 0 0 1 5.313 5.315zm-5.313-1.45a1.45 1.45 0 1 0 2.898 0 1.45 1.45 0 0 0-2.898 0z" style="fill:currentColor;stroke-width:.03019047"/></svg>