<svg xmlns="http://www.w3.org/2000/svg" width="90" height="20" aria-label="Spring Boot"><linearGradient id="b" x2="0" y2="100%"><stop offset="0" stop-color="#bbb" stop-opacity=".1"/><stop offset="1" stop-opacity=".1"/></linearGradient><clipPath id="a"><rect width="90" height="20" rx="3" fill="#fff"/></clipPath><g clip-path="url(#a)"><path fill="#6DB33F" d="M0 0h90v20H0z"/><path fill="url(#b)" d="M0 0h90v20H0z"/></g><g fill="#fff" text-anchor="middle" font-family="Verdana,Geneva,DejaVu Sans,sans-serif" text-rendering="geometricPrecision" font-size="110"><path d="m19.3 8.909-3.074-5.32c-.267-.462-.921-.841-1.456-.841H8.627c-.533 0-1.19.38-1.456.84L4.1 8.909c-.267.462-.267 1.218 0 1.68l3.071 5.323c.267.462.921.841 1.456.841h6.146c.533 0 1.187-.38 1.456-.84l3.072-5.324c.266-.462.266-1.218 0-1.68zM11.034 5.69a.635.635 0 0 1 1.267 0v3.783a.634.634 0 0 1-1.266 0zm.634 8.08a4.3 4.3 0 0 1-4.295-4.297 4.315 4.315 0 0 1 1.734-3.447.563.563 0 0 1 .789.117.563.563 0 0 1-.116.788 3.17 3.17 0 0 0 3.778 5.088 3.169 3.169 0 0 0 1.278-2.546 3.183 3.183 0 0 0-1.29-2.55.566.566 0 0 1-.12-.79.566.566 0 0 1 .79-.119 4.31 4.31 0 0 1 1.746 3.46 4.298 4.298 0 0 1-4.295 4.295z"/><text aria-hidden="true" x="540" y="150" fill="#010101" fill-opacity=".3" transform="scale(.1)" textLength="600">Spring Boot</text><text x="540" y="140" transform="scale(.1)" textLength="600">Spring Boot</text></g></svg>