<svg viewBox="70 -10 100 80" fill="none" xmlns="http://www.w3.org/2000/svg"><path d="M79.2382 17.6923H77.6962C76.771 17.6923 76 18.4616 76 19.3847C76 20.3077 76.771 21.0769 77.6962 21.0769H79.2382C80.1634 21.0769 80.9344 20.3077 80.9344 19.3847C80.9344 18.4616 80.1634 17.6923 79.2382 17.6923ZM110.232 42.0001H108.69C107.765 42.0001 106.994 42.7693 106.994 43.6923C106.994 44.6154 107.765 45.3846 108.69 45.3846H110.232C111.157 45.3846 111.928 44.6154 111.928 43.6923C111.774 42.7693 111.157 42.0001 110.232 42.0001ZM108.844 26C108.844 25.077 108.073 24.3078 107.148 24.3078H101.597C100.672 24.3078 99.9007 25.077 99.9007 26C99.9007 26.9231 100.672 27.6923 101.597 27.6923H107.148C108.073 27.6923 108.844 26.9231 108.844 26ZM161.889 15.5385L160.192 6.00004C159.421 2.15388 156.646 0 152.945 0H87.2565C84.3267 0 82.3222 2.46154 82.7848 5.38462L84.6351 15.5385C84.6351 15.6924 84.6351 15.6924 84.6351 15.8462C84.7893 17.077 84.1725 17.5385 83.7099 17.6923C83.0931 18 82.6306 18.4615 82.6306 19.2308C82.6306 20.1538 83.4016 20.9231 84.3267 20.9231H157.417C160.501 21.077 162.505 18.6154 161.889 15.5385ZM139.684 53.8462C138.913 50.1538 136.908 48.7693 134.441 48.7693H117.325H117.017C116.092 48.7693 115.321 49.5385 115.321 50.4616C115.321 51.3847 115.937 52 116.863 52.1539C117.479 52.3077 117.942 52.9231 118.405 54.7693L120.255 64.6154C120.718 67.5385 123.647 70 126.731 70H137.063C140.147 70 142.151 67.5385 141.689 64.6154L139.684 53.8462ZM116.708 45.5385H135.521C135.675 45.5385 135.829 45.5385 135.983 45.5385C137.679 45.2308 137.834 43.6923 137.525 42.3077L135.058 29.2308C134.441 25.8462 132.437 24.4616 129.815 24.4616H112.853H112.545C111.62 24.4616 110.849 25.2308 110.849 26.1538C110.849 27.0769 111.466 27.6924 112.391 27.8462C113.008 28.0001 113.624 28.7693 113.933 30.6154L115.783 40.6154C115.937 41.5385 115.321 42 114.704 42.3077C114.087 42.4615 113.624 43.0769 113.624 43.8462C113.624 44.7692 114.395 45.5385 115.321 45.5385H116.708Z" fill="url(#a)"/><defs><linearGradient id="a" x1="195.047" y1="9.446" x2="95.165" y2="40.321" gradientUnits="userSpaceOnUse"><stop stop-color="#FFF100"/><stop offset="1" stop-color="#F05A28"/></linearGradient></defs></svg>