<svg xmlns="http://www.w3.org/2000/svg" width="92" height="20" aria-label="Thorntail"><linearGradient id="b" x2="0" y2="100%"><stop offset="0" stop-color="#bbb" stop-opacity=".1"/><stop offset="1" stop-opacity=".1"/></linearGradient><clipPath id="a"><rect width="92" height="20" rx="3" fill="#fff"/></clipPath><g clip-path="url(#a)"><path fill="#90D103" d="M0 0h92v20H0z"/><path fill="url(#b)" d="M0 0h92v20H0z"/></g><g fill="#fff" text-anchor="middle" font-family="Verdana,Geneva,DejaVu Sans,sans-serif" text-rendering="geometricPrecision" font-size="110"><path d="M4.25 2.95c2.529.448 4.337 2.208 6.15 3.9a29.38 29.38 0 0 0-1.737-2.423C8.45 4.15 8.45 4.15 8.3 3.85c2.463.616 4.69 3.775 5.97 5.835l.18.315.006-.548c.058-2.38.058-2.38.638-3.112.848-.796 1.72-1.353 2.849-1.65.29-.068.29-.068.407-.39l.45.45a379.636 379.636 0 0 1-1.153.731l-.328.21a9.972 9.972 0 0 1-1.669.859c-.194.34-.194.34-.3.75l-.155.41c-.32 1.079-.36 2.63.155 3.64.373.377.76.723 1.168 1.062.423.367.47.5.548 1.057-.08.7-.312.973-.746 1.504-.494.62-.556 1.15-.52 1.927-.949-.731-1.564-1.576-2.25-2.55-.85-1.178-1.713-2.233-2.85-3.15l-.398-.33A155.313 155.313 0 0 0 9.05 9.85l-.38-.315C6.987 8.154 5.103 7.139 3.2 6.1c.666-.333 1.56-.02 2.25.15.591.222 1.153.505 1.718.787.663.328 1.34.601 2.032.863-1.286-1.677-2.538-3.06-4.231-4.33-.419-.32-.419-.32-.719-.62Zm18.056 6.722c.914.008 1.965.063 2.794.478v.3l-1.35.3.066.666.037.374c.015.308.015.308.197.46.055.834.058 1.136-.45 1.8-.112.34-.112.34-.169.703l-.07.394a32.885 32.885 0 0 0-.211 1.753l.9.6-.15.6c-.654-.057-1.11-.107-1.706-.394-.723-.274-1.295-.181-2.044-.056l.3.3c-.056.319-.056.319-.15.6-.758-.062-1.155-.211-1.807-.624-.473-.203-.93-.132-1.436-.107-.56-.03-.835-.264-1.257-.619l.15-.3.478.225c.464.195.814.321 1.322.225l.31-.31.29-.29c.36.032.578.14.9.3 1.155.097 1.93.112 2.85-.6.398.057.398.057.75.15l.017-.272c.08-1.115.214-2.22.358-3.328l.06-.461.057-.439.052-.394a9.002 9.002 0 0 1 .206-.956l-.421.005-.545.004-.543.006c-.441-.015-.441-.015-.591-.165-.019-.375-.019-.375 0-.75.238-.238.477-.175.806-.178ZM19.7 1.6h.3l.067.286c.344 1.313.968 2.08 1.883 3.063A99.073 99.073 0 0 1 23 6.1l.34.375c.83 1.026.827 1.939.71 3.225h-.15l-.018-.374c-.145-1.55-.702-2.296-1.876-3.281l-.518-.425c-1.61-1.321-1.61-1.321-1.788-2.22a13.968 13.968 0 0 1 0-1.8Zm-1.65.9h.15l.112.469c.164.582.432.995.788 1.481-.474-.206-.599-.298-.9-.75l-.15.6c-.3-.45-.3-.45-.253-.984.103-.516.103-.516.253-.816Zm.6-.3a9.014 9.014 0 0 1 .61 1.06l.155.314.135.276.15.3c-.576-.218-.796-.492-1.05-1.05-.028-.497-.028-.497 0-.9Z" fill="#FFF"/><text aria-hidden="true" x="580" y="150" fill="#010101" fill-opacity=".3" transform="scale(.1)" textLength="550">Thorntail</text><text x="580" y="140" transform="scale(.1)" textLength="550">Thorntail</text></g></svg>