<svg width="712" height="712" viewBox="0 0 712 712" fill="none" xmlns="http://www.w3.org/2000/svg">
<path d="M355.982 149.89C255.737 149.89 174.181 231.445 174.181 331.691V534.9C174.181 549.91 186.362 562.092 201.372 562.092C216.382 562.092 228.563 549.91 228.563 534.9V331.691C228.563 261.428 285.72 204.272 355.982 204.272C426.244 204.272 483.4 261.428 483.4 331.691L483.31 507.709H324.222L448.324 346.99C456.263 336.93 457.822 322.953 452.239 311.225C446.819 299.823 435.797 292.735 423.453 292.735H262.244V347.117H379.511L255.41 507.854C247.47 517.915 245.911 531.891 251.495 543.62C256.915 555.022 267.936 562.11 280.281 562.11H483.346C513.383 562.11 537.819 537.674 537.819 507.637V331.691C537.801 231.445 456.245 149.89 355.982 149.89Z" fill="#466BB0"/>
</svg>
