<?xml version="1.0" encoding="UTF-8" standalone="no"?>
<!-- Uploaded to: SVG Repo, www.svgrepo.com, Generator: SVG Repo Mixer Tools -->

<svg
   width="28"
   height="28"
   viewBox="0 0 0.78 0.78"
   fill="none"
   version="1.1"
   xmlns="http://www.w3.org/2000/svg">
  <path
     d="m 0.71054018,0.35251788 c 0.005158,0.009283 0.007737,0.0139051 0.008748,0.0188153 8.9599e-4,0.004353 8.9599e-4,0.008831 0,0.0131831 -0.001011,0.00491 -0.00359,0.009552 -0.008748,0.0188153 L 0.57608915,0.64534425 c -0.005447,0.009799 -0.00817,0.0146892 -0.0120277,0.0182583 -0.003425,0.003157 -0.007489,0.00555 -0.011904,0.006994 -0.004993,0.001652 -0.0106038,0.001652 -0.0218047,0.001652 H 0.26488176 c -0.0112026,0 -0.0168141,0 -0.0218068,-0.001652 -0.004415,-0.001458 -0.00848,-0.003858 -0.011904,-0.006994 -0.003879,-0.003569 -0.006582,-0.008459 -0.0120277,-0.0182583 l -0.134455,-0.2420038 c -0.0051536,-0.009283 -0.0077304,-0.0139051 -0.0087392,-0.0188153 -8.9414e-4,-0.004353 -8.9414e-4,-0.008831 0,-0.0131831 0.0010099,-0.00491 0.0035856,-0.009552 0.0087392,-0.0188153 l 0.1344515,-0.24202251 c 0.005447,-0.009796 0.00817,-0.0146933 0.0120277,-0.0182603 0.003425,-0.003155 0.007489,-0.005544 0.011904,-0.007004 0.004993,-0.001651 0.0106038,-0.001651 0.0218068,-0.001651 h 0.26546681 c 0.0112025,0 0.0168141,0 0.0218047,0.001652 0.004415,0.001461 0.00848,0.003847 0.011904,0.007004 0.003879,0.003567 0.006582,0.008465 0.0120277,0.0182603 z"
     stroke="#8b8d8f"
     stroke-width="2"
     stroke-linecap="round"
     stroke-linejoin="round"
     id="path1"
     style="stroke-width:0.0290092;stroke-dasharray:none" />
</svg>
