<svg xmlns="http://www.w3.org/2000/svg" width="27" height="27"><circle style="fill:#fff;fill-rule:evenodd;stroke:#8b8d8f;stroke-width:1" r="12.5" cy="13.576" cx="13.499"/><path d="M10.999 8.106a1.5 1.5 0 1 1-3.002-.002A1.5 1.5 0 0 1 11 8.106zM20.999 17.075a1.5 1.5 0 1 1-3.002-.002 1.5 1.5 0 0 1 3.002.002ZM8.999 16.075a1.5 1.5 0 1 1-3.002-.002A1.5 1.5 0 0 1 9 16.075ZM17.33 15.387l-1.028-.7c.116-.35.18-.722.18-1.11 0-.752-.236-1.45-.646-2.021l1.2-1.225a2.002 2.002 0 1 0 .963-3.756 2.002 2.002 0 0 0-1.691 3.069l-1.163 1.187a3.474 3.474 0 0 0-3.46-.485l-.191-.26c-.184-.25-.516-.321-.734-.155-.222.163-.253.5-.072.75l.13.178a3.473 3.473 0 0 0-1.19 3.606l-.037.016c-.262.128-.388.438-.281.688.107.25.409.35.669.225l.034-.016a3.491 3.491 0 0 0 2.219 1.6l-.06.575a1.522 1.522 0 0 0-1.171 1.494c0 .847.672 1.53 1.5 1.53s1.5-.683 1.5-1.53c0-.603-.341-1.122-.834-1.372l.066-.62a3.49 3.49 0 0 0 2.622-1.474l.94.64c.25.173.579.126.726-.105.147-.231.062-.56-.191-.728Zm.669-7.875a1.061 1.061 0 1 1 0 2.122 1.061 1.061 0 0 1 0-2.122zm-5.5 12.344a.811.811 0 0 1-.813-.813.81.81 0 0 1 .813-.813.81.81 0 0 1 .813.813.81.81 0 0 1-.813.813zm.5-4.375a1.906 1.906 0 1 1-.001-3.812 1.906 1.906 0 0 1 0 3.812Z"/></svg>