<svg xmlns="http://www.w3.org/2000/svg" width="120" height="60"><path d="M49.83 28.164h2.258c.7 0 1.26-.094 1.674-.28s.733-.455.954-.804.37-.78.448-1.29.117-1.104.117-1.777-.04-1.266-.117-1.777-.24-.948-.487-1.31-.6-.63-1.032-.804-1.025-.262-1.752-.262H49.83zm-3.97-12.05h6.385c4.672 0 7.008 2.717 7.008 8.152 0 1.612-.253 2.997-.76 4.154s-1.395 2.087-2.667 2.79l4.282 12.676h-4.205l-3.76-12.063H49.83v12.063h-3.97zm16.584 0H68.4c1.1 0 2.05.143 2.88.43s1.583.793 2.258 1.52a5.95 5.95 0 0 1 1.402 2.555c.26.975.39 2.295.39 3.96 0 1.222-.098 2.097-.24 2.968s-.603 2.387-2.414 3.415c-1.132.643-2.757.874-4.236.874h-2.024v12.05h-3.97zm3.97 12.05h1.908c.805 0 1.427-.103 1.87-.31s.766-.486.973-.84.33-.784.37-1.287.058-1.064.058-1.682c0-.572-.02-1.115-.058-1.63s-.156-.96-.35-1.34-.5-.675-.915-.892-1.012-.326-1.79-.326h-2.063zm24.487 9.52c0 .858-.162 1.677-.487 2.457s-.772 1.463-1.343 2.048a6.64 6.64 0 0 1-2.005 1.404 5.86 5.86 0 0 1-2.472.527 8.876 8.876 0 0 1-2.297-.312 5.57 5.57 0 0 1-2.102-1.073c-.623-.507-1.135-1.177-1.538-2.01s-.603-1.885-.603-3.16v-15.3c0-.9.156-1.755.467-2.535s.753-1.456 1.324-2.028 1.252-1.02 2.044-1.346 1.668-.488 2.628-.488c.908 0 1.752.163 2.53.488s1.453.78 2.024 1.365 1.02 1.287 1.343 2.106.487 1.7.487 2.672v1.56h-3.97v-1.326c0-.78-.22-1.456-.662-2.028a2.14 2.14 0 0 0-1.791-.858c-.986 0-1.642.306-1.966.917s-.487 1.385-.487 2.32v14.198c0 .806.175 1.482.526 2.028s.98.82 1.888.82c.26 0 .54-.046.837-.137s.57-.24.818-.45.448-.494.603-.858.234-.82.234-1.365v-1.365h3.97zm7.78-7.72c0-1.014-.82-1.836-1.83-1.836h-9.917v3.67h8.086v4.095h-1.246l3.098 4.377 3.098-4.377h-1.288zm-69.64 1.87v5.497c0 1.144.195 2.14.584 2.984s.902 1.547 1.538 2.106 1.35.982 2.14 1.268a7 7 0 0 0 2.394.429 7 7 0 0 0 2.394-.429c.792-.286 1.505-.71 2.14-1.268s1.148-1.26 1.538-2.106.584-1.84.584-2.984v-9.16l-7.115-.01-.01 3.673h3.153v5.498c0 .962-.266 1.67-.798 2.126a2.81 2.81 0 0 1-1.888.683 2.81 2.81 0 0 1-1.888-.683c-.532-.455-.798-1.164-.798-2.126V22.667c0-.962.266-1.67.798-2.126a2.81 2.81 0 0 1 1.888-.683 2.81 2.81 0 0 1 1.888.683c.532.455.798 1.164.798 2.126v1.404h3.97v-1.404c0-1.118-.195-2.106-.584-2.964s-.902-1.567-1.538-2.126-1.35-.982-2.14-1.268a7 7 0 0 0-2.394-.429 7 7 0 0 0-2.394.429c-.792.286-1.505.71-2.14 1.268s-1.148 1.268-1.538 2.126-.584 1.846-.584 2.964v5.497H24.98V24.07h1.246l-3.098-4.377-3.098 4.377h1.288V30c0 1.014.82 1.836 1.83 1.836h5.893z" fill="#2da6b0" fill-rule="evenodd"/></svg>