<svg xmlns="http://www.w3.org/2000/svg" xmlns:xlink="http://www.w3.org/1999/xlink" viewBox="0 0 57 66" fill="#fff" fill-rule="evenodd" stroke="#000" stroke-linecap="round" stroke-linejoin="round" width="300" height="300" font-family="Roboto" font-size="14" text-anchor="middle"><use xlink:href="#a" x=".5" y=".5"/><symbol id="a" overflow="visible"><g stroke="none"><path d="M40.765 18.053s4.024 1.628 6.61 22.6c0 0-3.733 1.437-1.437 3.928s2.59 7.186 2.59 7.186-13.605 2.01-37.27.287c0 0-9.485-19.353-5.752-26.06l6.228.192s9.005 4.503 8.622-.287c0 0 1.658-.165 1.91-.316s2.19 3.573 7.398-2.642c0 0 8.102-3.095 10.97-4.857zM9.882 21.596s-2.45-7.043-5.55-5.575.226 6.733 1.1 7.86c0 0 2.676-1.745 4.45-2.28z" fill="#60d0e4" fill-rule="nonzero"/><path d="M30.393 57.485c-.306-.496-1.017-.486-1.716-.587-.457-.067-1.496-.18-1.524-.752-.038-.625.882-.856 1.505-.987 1.49-.315 2.977-.26 4.772-.26.77 0 1.796.048 1.88.564.07.433-.295.742-.588.94-.26.176-.785.343-.8.73-.026.685 1.234.56.94 1.504-.108.35-.714.55-1.175.686-1.463.42-3.182.563-4.866.706-1.524.13-3.473.42-5.265.165-.513-.076-1.2-.27-1.222-.634-.052-.585.914-.77 1.434-.847 1.436-.21 2.784-.117 4.35-.188 1.09-.05 2.187-.038 2.28-1.034zm-15.396.212c1.058-.05 2.545.016 3.596.282.275.07.798.183.8.47.002.307-.69.438-1.08.54-2.235.58-4.525.762-7.004 1.057-.45.055-.92.085-1.41.212-.287.074-.99.283-.964.635.03.434 1.154.316 1.622.353.602.046 1.364.12 1.4.564.08.757-1.416.8-2.163.846-2.057.154-3.825.077-5.735-.165-.372-.047-.838-.135-1.222-.282-.343-.132-.813-.33-.823-.658-.015-.49.75-.674 1.175-.776 1.577-.374 3.296-.517 4.936-.87 1.04-.224 2.067-.622 2.914-.964.925-.373 1.8-.856 2.75-1.128.38-.108.686-.093 1.198-.117zm19.51 1.646c.245-.025.913.003.917.33.006.477-1.5.475-1.524.024-.018-.283.332-.324.61-.352zm-1.927.4c.32-.03.855-.01.87.33.023.516-1.524.494-1.505 0 .01-.223.3-.298.634-.33zm-2.303.398a3.06 3.06 0 0 1 .729.024c.1.018.46.154.47.282.02.242-.492.333-.728.352-.465.04-1.307-.02-1.34-.306s.597-.332.87-.352zm-3.055.235c.37-.05 1.21-.03 1.222.376.018.582-1.867.585-1.88.024-.007-.303.372-.36.66-.4zm-3.573.043c.314-.02.626-.02.964.047.164.032.67.15.686.375.024.432-1.195.5-1.8.47-.36-.024-1.032-.163-1.034-.446-.002-.24.363-.32.47-.353.256-.074.4-.076.705-.094zm-21.978.94c-.112.343-1.227.533-1.646.282.22-.38 1.155-.478 1.646-.282zm.26.615C1.64 62.4.54 62.553 0 62.28c.3-.42 1.387-.58 1.928-.306zm.447.564c-.307.386-1.4.577-1.928.283.215-.394 1.503-.6 1.928-.283zm1.974.283c-.2.475-1.542.685-1.998.306.24-.5 1.487-.66 1.998-.306zm1.598.094c.3-.024.9-.048 1.222.047.594.176.127.495-.33.61-.47.123-.977.18-1.575.14-.28-.02-.754-.094-.776-.282-.026-.223.43-.333.587-.376.343-.096.56-.116.87-.14zm4.7.258c-.027.298-.427.47-.776.588-.38.125-.775.204-1.175.235-.26.016-.777-.002-.823-.188-.07-.278.558-.495.752-.564.4-.144.793-.23 1.152-.258.35-.026.74-.015.87.188zM30.3 17.808c.027.005.013.024 0 .024-1.573 1.766-3.043 3.657-4.89 5.242-.214.184-.603.56-.893.54-.165-.01-.372-.24-.54-.306-.99-.378-2.042.39-1.998 1.48-.365.112-.76.152-1.175.188-.395.038-.854.134-1.246.094-.3-.03-.478-.18-.87-.14-.18.02-.322.136-.54.165-.343.043-.8-.073-1.2-.165-2.5-.57-4.628-1.874-7.075-2.397.302-.184.683-.288 1.034-.42.06-.114-.122-.296-.07-.4 5.79.603 10.835-.778 15.16-2.21 1.5-.496 2.962-1.122 4.305-1.692z" fill="#000"/><path d="M25.997 19.5c-4.326 1.432-9.372 2.813-15.16 2.2-.05.103.13.286.07.4-.35.135-.732.24-1.034.42 2.446.523 4.576 1.822 7.075 2.397.395.09.86.208 1.2.165.22-.028.36-.146.54-.165.392-.04.58.112.87.14.392.04.85-.06 1.246-.094.416-.035.8-.076 1.175-.188-.043-1.1 1.004-1.86 1.998-1.48.17.065.376.295.54.306.3.02.68-.357.893-.54 1.846-1.585 3.317-3.476 4.89-5.242.013 0 .027-.02 0-.024-1.34.57-2.8 1.196-4.305 1.692z" fill="#638b18"/><path d="M28.113 58.52c-1.565.07-2.912-.02-4.348.188-.524.076-1.486.26-1.434.847.032.366.71.562 1.222.634 1.792.257 3.742-.035 5.265-.165 1.684-.143 3.403-.282 4.866-.706.457-.133 1.067-.333 1.175-.686.294-.945-.966-.82-.94-1.504.014-.383.54-.552.8-.73.293-.198.658-.507.588-.94-.085-.516-1.11-.564-1.88-.564-1.8 0-3.28-.056-4.772.26-.623.132-1.54.363-1.505.987.032.572 1.067.685 1.524.752.7.102 1.4.09 1.716.587-.093.995-1.19.984-2.28 1.034zm-14.315-.705c-.95.272-1.825.755-2.75 1.128-.847.34-1.873.74-2.914.964l-4.936.87c-.425.1-1.2.286-1.175.776.01.328.48.526.823.658.38.147.85.235 1.222.282 1.9.242 3.678.32 5.735.165.747-.056 2.242-.09 2.163-.846-.046-.444-.808-.517-1.4-.564-.468-.036-1.59.08-1.622-.353-.025-.352.677-.56.964-.635.492-.127.96-.157 1.41-.212L18.31 59c.392-.103 1.083-.234 1.08-.54-.001-.288-.524-.4-.8-.47-1.05-.266-2.538-.333-3.596-.282-.513.024-.82.01-1.198.117zm20.097 1.88c.028.452 1.533.457 1.524-.024-.004-.326-.672-.354-.916-.33-.28.03-.628.07-.61.352zm-1.95.38c-.024.494 1.524.516 1.505 0-.015-.34-.55-.36-.87-.33-.335.03-.623.106-.634.33zm-2.54.418c.033.286.874.344 1.34.305.236-.02.75-.114.728-.352-.01-.128-.38-.264-.47-.282a2.915 2.915 0 0 0-.73-.024c-.273.02-.903.072-.87.352zm-2.844.282c.013.56 1.9.558 1.88-.024-.013-.407-.853-.425-1.222-.376-.287.038-.666.096-.66.4zm-3.62-.258c-.107.032-.472.113-.47.353.003.283.674.42 1.034.446.59.04 1.8-.038 1.8-.47-.012-.226-.518-.343-.686-.375a3.474 3.474 0 0 0-.964-.047c-.305.02-.448.02-.705.094zM.024 61.645c.42.25 1.533.065 1.646-.282-.5-.196-1.427-.1-1.646.282zM0 62.28c.54.272 1.64.12 1.928-.306C1.387 61.7.3 61.86 0 62.28zm.446.54c.533.293 1.62.103 1.928-.283-.425-.305-1.713-.11-1.928.283zm1.904.306c.456.38 1.798.17 1.998-.306-.5-.353-1.758-.2-1.998.306zm2.726-.072c-.158.044-.6.154-.587.376.022.188.494.267.776.282a4.842 4.842 0 0 0 1.575-.14c.455-.12.924-.435.33-.61-.32-.095-.922-.07-1.222-.047a4.07 4.07 0 0 0-.87.14zm4.702-.07a4.4 4.4 0 0 0-1.152.258c-.2.07-.82.286-.752.564.046.19.562.204.823.188.4-.03.794-.11 1.175-.235.35-.114.75-.3.776-.588-.13-.203-.52-.213-.87-.188z" fill="#000"/><g fill-rule="nonzero"><path d="M29.986 14.078c-14.13 6.132-21.22 3.45-21.22 3.45l1.676 3.353c10.108 1.15 20.495-4.288 20.495-4.288l.52-1.424s-.86.186-1.356-1.128z" fill="#e1caa2"/><path d="m31.016 9.97-.18-.61S19.443 4.904 16.86 6.27s-5.927 3.737-8.37 7.4l-.036 2.9s7.018 2.9 21.485-3.365c0 0-.192-1.75 1.078-3.246z" fill="#638b18"/><path d="M31.893 14.115c-.17.15-.333.26-.503.226-.513-.1-.75-1.1-.53-2.23s.818-1.964 1.332-1.867c.494.097.73 1.024.552 2.1 0 0-.547 1.004-.806 1.71z" fill="#000"/><path d="M38.896 8.88s-2.6-1.7-5.34 2.084c0 0-.36-2.248-2.204-1.294 0 0 .36-3.233.12-3.69 0 0 .72.216.934.695 0 0 1.892-1.844 1.773-4.407 0 0 .503.072.503.718 0 0 .705-1.56 1.395-2.4l.066-.092c2.778-2.42.216 4.79.216 4.79s-.15.358-.302.55 1.316-.49 1.298-1.046.184.786 0 1.028c0 0 2.43-1.922 2.5-2.928 0 0 .383.766.287 1.39 0 0 2.155-1.628 2.204-2.395 0 0 .267 4.143-3.832 5.724 0 0 .67 0 1.51-.168z" fill="#e1caa2"/><path d="M40.26 13.838s8.647-1.916 4.048 1.173-5.27 2.946-5.27 2.946.934-1.385 1.222-4.12zm-1.365 4.24-7.952 3.473s2.467-2.108 1.63-3.258c0 0 4.168-.622 6.324-.215z" fill="#638b18"/><path d="M31.52 17.48c2.203-6.108 3.31-6.795 3.31-6.795 1.045-1.124 2.36-1.62 3.397-1.144.9.41 1.38 1.456 1.386 2.72v.076s-.166 3.08-1.028 4.83c0 0-3.21-.455-6.66.455z" fill="#60d0e4"/><path d="M34.665 14.75s1.724-3.43 2.776-2.638c0 0 .26.3-.414 2.57 0 0 2.78-3.397-.103-3.484 0 0-1.93-.07-2.26 3.553zM7.862 21.486s-2.27-3.435-2.476-2.75.137 1.894.2 2.225-1.735-2.11-.536-3.002 2.682 1.872 2.82 3.526z" fill="#000"/><path d="M5.217 24.96h.1S6.622 24 7.01 23.852s-.478 1.435 1.824 1.435-5.98.3-7.864-1.346c0 0-.164-.71 2.36-1.882 0 0 1.524 2.723 1.886 2.895z" fill="#638b18"/><path d="M13.32 25.886c-2.605-1.15-4.554-1.486-4.554-1.486l-.058.002c-.41 0-.74-.265-.74-.593s.332-.593.74-.593c.034 0 .068.002.102.005s1.912.32 4.887 1.563l.324.133c2.766 1.024 3.88 1.05 3.88 1.05.373.032.472.032.52-.005s.36-.157.36-.157c.393.01.71.283.71.618 0 .322-.552.673-.925.703 0 0-2.048.16-5.137-1.204zm18.514-6.9a.51.51 0 0 0 .01-.101.54.54 0 0 0-.548-.533.56.56 0 0 0-.217.043l-2.264 2.47c-.928 1.05-3.197 3.532-4.147 3.644l-.536.056c-.045-.09-.287-.305-.287-.305a.581.581 0 0 0-.554-.133c-.312.095-.48.457-.375.8.04.128.114.243.215.33s1.57 1.59 4.276-1.237l2.95-3.118s1.37-1.498 1.464-1.855z" fill="#000"/><path d="M36.565 30.12c0 3.004-2.438 5.44-5.448 5.44s-5.446-2.437-5.446-5.44a5.45 5.45 0 0 1 5.446-5.447 5.45 5.45 0 0 1 5.448 5.444zm-16.914 3.976a5.444 5.444 0 0 1-5.448 5.44 5.44 5.44 0 0 1-5.442-5.441 5.45 5.45 0 0 1 5.446-5.447 5.447 5.447 0 0 1 5.448 5.448zm4.54 8.722c.144.814.48 2.54 1.628 2.395s.72-2.443.72-2.443-1.964-.095-2.156 0zm-.67.226s-1.054.45-1.896.998c0 0 .42 2.142 1.817 1.503 0 0 .92-.203.135-2.357zm-2.677-4.76s-6.704 2.02-3.416 5.41c2.156 2.222 5.14-1.562 6.732-1.525 0 0 .365-.166 1.128-.066s5.738.497 6.202-1.492-.133-2.32-.498-2.553-2.985-1.8-6.898-.696z"/><path d="M12.02 35.966a1.7 1.7 0 1 1 3.414 0 1.7 1.7 0 1 1-3.414 0zm16.672-4.072a1.7 1.7 0 1 1 3.414 0 1.7 1.7 0 1 1-3.414 0zm-8.355 6.508c-.18-.895.993-1.884 2.633-2.216s3.107.12 3.288 1.016-.993 1.884-2.633 2.216-3.107-.12-3.288-1.016z" fill="#000"/><path d="M20.166 39.37s-4.215 1.964-2.248 3.592 2.922-1.006 5.796-1.485 6.18.287 6.85-.958.914-2.248-3.785-2.683c0 0-.43 2.06-2.922 2.3s-2.92-.192-3.687-.766z" fill="#e1caa2"/><path d="M53.528 48.635s6.96 1.475-3.102 2.95c0 0 2.383-.984 3.102-2.95z" fill="#231f20"/><path d="M48.762 49.315s-.227-3.555-2.346-5.485 1.778-2.534 2.99-2.005 6.242 4 1.816 8.474c0 0-1.89 1.362-2.42-.794z" fill="#e1caa2"/><path d="M4.287 48.52s-.36 1.796-.072 2.55c0 0-6.072-1.042-.288-2.48z" fill="#000"/><path d="M7.196 44.46S3.468 48.87 5.4 52.47c1.58 2.946 4.778-.395 4.85-.503z" fill="#e1caa2"/></g></g></symbol></svg>