<svg width="300" height="300" fill="#fff" fill-rule="evenodd" font-family="Roboto" font-size="14" stroke="#000" stroke-linecap="round" stroke-linejoin="round" text-anchor="middle" viewBox="0 0 66 66"
    xmlns="http://www.w3.org/2000/svg"
    xmlnsV="http://vecta.io"
    xmlnsXlink="http://www.w3.org/1999/xlink">
    <use x=".5" y=".5" xlinkHref="#a"/>
    <symbol id="a" overflow="visible" vTags="openapi initiative, logo">
        <g class="Group.cls" vAbox="{&quot;x&quot;:0,&quot;y&quot;:0,&quot;width&quot;:64.00106430564927,&quot;height&quot;:64.00457000732428}" vSize="66,66,0.5,0.5">
            <g class="Prim.cls" stroke="none" stroke-width=".571">
                <path transform="translate(.026 36.796)" d="M16.887 0H0l.01.247.028.476.013.204.046.55.011.122.066.609c0 .02.003.04.006.059l.086.653c.194 1.354.484 2.688.874 4l.006.017.201.651.012.036.185.553.05.14.173.478.082.216.154.4.122.297.129.308.171.376.1.229.21.45.07.144.254.51.04.08.308.585.066.114 14.47-8.732c-.57-1.2-.924-2.475-1.055-3.771ZM.797 7.749l.005.015.545-.171Z" fill="#93d500"/>
                <path transform="translate(9.122 44.551)" d="M11.941.002 0 11.937l.185.17.51.453.405.344.11.092.464.373.06.048.51.392a.13.13 0 0 1 .02.014l2.226 1.504.08.049.438.259.269.153.254.143.465.251.065.034 1.316.64 6.426-15.61A11.458 11.458 0 0 1 11.935 0Z" fill="#4d5a31"/>
                <path transform="translate(4.065 41.584)" d="m15.76 1.784-.371-.437-.308-.398-.33-.467L14.44 0 0 8.699l.744 1.168.06.088.003.006.776 1.094.017.023.018.022.35.457.421.523.09.109.346.407.152.173.3.343.169.184.077.083.229.24.091.094.4.409L16.156 2.209l-.39-.417Z" fill="#6ba43a"/>
                <path transform="translate(35.218 44.547)" d="M.398 0 0 .309l.03.05 8.686 14.418 1.188-.819c.84-.62 1.654-1.29 2.438-2.015L.445.047Z" fill="#4d5a31"/>
                <g fill="#93d500">
                    <path transform="translate(42.827 59.998)" d="M.009.012.028.001V0l-.02.011ZM0 .018Z"/>
                    <path transform="translate(42.83 59.932)" d="M.025.061.139.004.137 0 .025.067ZM0 .081.006.078Z"/>
                    <path transform="translate(42.806 59.98)" d="M.02.035h.001L0 0ZM.03.03.048.02l-.02.01ZM.017.035.012.038.018.036Z"/>
                    <path transform="translate(42.824 60.015)" d="M0 .001.003 0Z"/>
                    <path transform="translate(42.815 59.932)" d="M.015.081.01.083.02.077ZM.04.068.153.004.04.068ZM.153.004.151 0ZM0 .09h.001Z"/>
                    <path transform="translate(42.816 60.02)" d="M.003 0 0 .002.003 0Z"/>
                    <path transform="translate(9.127 11.999)" d="m33.544 47.444-8.402-13.942-.5.279-.512.257a11.513 11.513 0 0 1-4.932 1.116 11.46 11.46 0 0 1-3.28-.48l-.54-.189-.54-.191-6.414 15.578.047.017.05.019.012.006 1.232.47a28.534 28.534 0 0 0 6.013 1.416l.698.076.113.01.56.046.19.012.49.028.3.012.39.013.696.009c1.577 0 3.15-.131 4.704-.392l.08-.012.493-.09.286-.054.288-.06.481-.106.087-.02a28.482 28.482 0 0 0 6.798-2.534l.417-.23.848-.477-.014-.04.021.036.027-.016.112-.067Zm-21.6-32.673.397-.309-.03-.05L3.627 0l-1.19.82A28.36 28.36 0 0 0 0 2.833l11.897 11.891Z"/>
                </g>
                <path transform="translate(0 7.335)" d="m8.302 8.282-.79.826a27.9 27.9 0 0 0-2.407 2.983l-.104.148-.242.357-.245.375-.09.137A28.271 28.271 0 0 0 .026 27.18l-.015.571-.01.572h16.848l.028-.572.031-.57a11.433 11.433 0 0 1 2.541-6.137c.114-.147.255-.284.384-.425.128-.141.247-.288.383-.424ZM43.066 4.1l-.07-.042-.447-.265-.261-.149-.263-.146-.457-.247-.072-.038a29.483 29.483 0 0 0-3.039-1.37l-.08-.032-.685-.247A28.43 28.43 0 0 0 32.014.217l-.237-.032-.237-.027-.457-.05-.128-.01-.544-.047-.686-.041-.248-.01v16.89c.867.09 1.726.274 2.559.557L44.47 5.023c-.46-.321-.93-.629-1.408-.922Z" fill="#4d5a31"/>
                <path transform="translate(13.713 7.316)" d="m.303 4.557-.295-.49ZM0 4.066l.002.003ZM14.059.012l-.571.011c-1.192.048-2.382.17-3.562.368L9.85.404l-.495.09-.285.053-.29.061-.48.105-.088.02a28.506 28.506 0 0 0-6.798 2.535l-1.411.797.001.003L8.7 18.506l.499-.278a11.456 11.456 0 0 1 4.283-1.315l.571-.046.572-.02V0c-.19 0-.381.007-.571.011Z" fill="#6ba43a"/>
                <path transform="translate(39.214 19.52)" d="m17.437 14.745-.028-.454-.014-.227-.044-.534-.012-.138-.063-.596-.005-.048-.003-.023-.086-.642a28.311 28.311 0 0 0-.874-4.004l-.008-.025-.187-.607-.026-.08-.183-.545-.051-.147-.171-.47-.086-.223-.152-.388-.124-.305-.126-.3-.168-.383-.097-.216-.213-.456-.066-.138-.256-.518-.037-.071-.298-.571-.01-.02A28.421 28.421 0 0 0 12.435 0L0 12.437c.28.829.467 1.687.557 2.558h16.889l-.01-.25Z" fill="#4d5a31"/>
                <path transform="translate(36.471 35.657)" d="m3.366 0-.028.572-.031.571A11.417 11.417 0 0 1 .767 7.28c-.115.146-.256.283-.384.424-.129.141-.247.288-.383.424l11.913 11.913c.135-.135.263-.275.394-.413l.394-.413a28.442 28.442 0 0 0 2.414-2.992l.084-.122.262-.385.226-.345.114-.169a28.265 28.265 0 0 0 4.39-14.06l.016-.57.01-.572H3.366Z" fill="#6ba43a"/>
                <path transform="translate(20.451)" d="M41.237 2.312a7.893 7.893 0 0 0-11.162 0c-2.459 2.458-2.95 6.134-1.485 9.086L11.397 28.59c-2.952-1.464-6.628-.973-9.086 1.486a7.896 7.896 0 0 0 0 11.162 7.896 7.896 0 0 0 11.163 0c2.458-2.459 2.95-6.134 1.485-9.087L32.152 14.96c2.952 1.464 6.627.973 9.085-1.485a7.891 7.891 0 0 0 .001-11.162Z" fill="#424143"/>
            </g>
        </g>
    </symbol>
</svg>